<mxfile host="65bd71144e">
    <diagram id="W0HerqF-CKLVZPZhZVOm" name="Page-1">
        <mxGraphModel dx="1060" dy="528" grid="1" gridSize="10" guides="1" tooltips="1" connect="1" arrows="1" fold="1" page="1" pageScale="1" pageWidth="850" pageHeight="1100" background="#FFFFFF" math="0" shadow="0">
            <root>
                <mxCell id="0"/>
                <mxCell id="1" parent="0"/>
                <mxCell id="48" value="single azure subscription" style="rounded=0;whiteSpace=wrap;html=1;labelBackgroundColor=none;fontColor=#000000;strokeWidth=2;fillColor=none;align=left;strokeColor=#000000;labelPosition=center;verticalLabelPosition=top;verticalAlign=bottom;" parent="1" vertex="1">
                    <mxGeometry x="130" y="40" width="670" height="660" as="geometry"/>
                </mxCell>
                <mxCell id="29" value="rg-vdc-nonprod-01" style="rounded=0;whiteSpace=wrap;html=1;fillColor=none;strokeColor=#999999;strokeWidth=2;fontColor=#000000;labelPosition=center;verticalLabelPosition=top;align=left;verticalAlign=bottom;" parent="1" vertex="1">
                    <mxGeometry x="170" y="80" width="590" height="580" as="geometry"/>
                </mxCell>
                <mxCell id="129" value="private link" style="edgeStyle=orthogonalEdgeStyle;rounded=0;orthogonalLoop=1;jettySize=auto;html=1;exitX=1;exitY=0.5;exitDx=0;exitDy=0;entryX=0;entryY=0.5;entryDx=0;entryDy=0;labelBackgroundColor=#ffffff;fontColor=#000000;startArrow=classic;startFill=1;endArrow=classic;endFill=1;verticalAlign=top;fillColor=#0050ef;strokeColor=#001DBC;" parent="1" source="122" target="16" edge="1">
                    <mxGeometry relative="1" as="geometry"/>
                </mxCell>
                <mxCell id="122" value="mssql-xxxxxxxxxx" style="rounded=0;whiteSpace=wrap;html=1;dashed=1;fontColor=#000000;fillColor=none;align=left;strokeColor=#999999;labelPosition=center;verticalLabelPosition=top;verticalAlign=bottom;" parent="1" vertex="1">
                    <mxGeometry x="210" y="470" width="120" height="120" as="geometry"/>
                </mxCell>
                <mxCell id="38" value="" style="shape=image;verticalLabelPosition=bottom;verticalAlign=top;imageAspect=0;aspect=fixed;image=data:image/svg+xml,PHN2ZyB4bWxucz0iaHR0cDovL3d3dy53My5vcmcvMjAwMC9zdmciIHZpZXdCb3g9IjAgMCAxOCAxOCI+PHBhdGggZD0iTS41IDE1LjA4YS4xNi4xNiAwIDAwLjA4LjE0bDEuMTYuNjVMMy43IDE3YS4xNy4xNyAwIDAwLjIzLS4wNmwuNjYtMS4xMmEuMTYuMTYgMCAwMC0uMDYtLjIxbC0yLjMtMS4zYS4xNy4xNyAwIDAxLS4wOC0uMTRWMy44NWEuMTYuMTYgMCAwMS4wOC0uMTRsMi4zLTEuM2EuMTYuMTYgMCAwMC4wNi0uMjFsLS42Ni0xLjEyQS4xNy4xNyAwIDAwMy43IDFMMS43OCAyLjExbC0xLjIuNjdhLjE2LjE2IDAgMDAtLjA4LjE0djEyLjE2eiIgZmlsbD0iIzk0OTQ5NCIvPjxwYXRoIGQ9Ik0yLjE0IDMuNzdsLjA2LS4wNiAyLjMtMS4zYS4xNC4xNCAwIDAwLjA2LS4yMUwzLjkgMS4wOEEuMTUuMTUgMCAwMDMuNjggMUwxLjc1IDIuMTFsLTEuMTkuNjdzLS4wNSAwLS4wNi4wNmwuOS41MXpNNC41IDE1LjU5bC0yLjMtMS4zYS4yMi4yMiAwIDAxLS4wNy0uMDlsLTEuNjIgMWguMDVsMS4xNS42NSAyIDEuMTFhLjE1LjE1IDAgMDAuMjItLjA2bC42Ni0xLjEyYS4xNC4xNCAwIDAwLS4wOS0uMTl6IiBmaWxsPSIjYTNhM2EzIi8+PHBhdGggZD0iTTE3LjUgMTUuMDhhLjE2LjE2IDAgMDEtLjA4LjE0bC0xLjE2LjY1TDE0LjMgMTdhLjE3LjE3IDAgMDEtLjIzLS4wNmwtLjY2LTEuMTJhLjE2LjE2IDAgMDEuMDYtLjIxbDIuMy0xLjNhLjE3LjE3IDAgMDAuMDgtLjE0VjMuODVhLjE2LjE2IDAgMDAtLjA4LS4xNGwtMi4zLTEuM2EuMTYuMTYgMCAwMS0uMDYtLjIxbC42Ni0xLjEyQS4xNy4xNyAwIDAxMTQuMyAxbDEuOTIgMS4wOSAxLjIuNjdhLjE2LjE2IDAgMDEuMDguMTR2MTIuMTh6IiBmaWxsPSIjOTQ5NDk0Ii8+PHBhdGggZD0iTTE1Ljg2IDMuNzdsLS4wNi0uMDYtMi4zLTEuM2EuMTQuMTQgMCAwMS0uMDYtLjIxbC42Ni0xLjEyYS4xNS4xNSAwIDAxLjIyLS4wOGwxLjkzIDEuMDkgMS4xOS42Ny4wNi4wNi0uOS41MXpNMTMuNSAxNS41OWwyLjMtMS4zYS4yMi4yMiAwIDAwLjA3LS4wOWwxLjYyIDEtMS4xNS42NS0yIDEuMTFhLjE1LjE1IDAgMDEtLjIyLS4wNmwtLjY2LTEuMTJhLjE0LjE0IDAgMDEuMDQtLjE5eiIgZmlsbD0iI2EzYTNhMyIvPjxwYXRoIGZpbGw9IiMzMmJlZGQiIGQ9Ik0xNC4zMSA1LjkzdjYuMTRsLTUuMzIgMy4wOVY5LjAxbDUuMzItMy4wOHoiLz48cGF0aCBmaWxsPSIjOWNlYmZmIiBkPSJNMTQuMzEgNS45M0w5IDkuMDIgMy42OCA1LjkzIDkgMi44NGw1LjMxIDMuMDl6Ii8+PHBhdGggZmlsbD0iIzUwZTZmZiIgZD0iTTguOTkgOS4wMnY2LjE0bC01LjMxLTMuMDlWNS45M2w1LjMxIDMuMDl6Ii8+PHBhdGggZmlsbD0iIzljZWJmZiIgZD0iTTMuNjggMTIuMDdsNS4zMS0zLjA2djYuMTVsLTUuMzEtMy4wOXoiLz48cGF0aCBmaWxsPSIjNTBlNmZmIiBkPSJNMTQuMzEgMTIuMDdMOC45OSA5LjAxdjYuMTVsNS4zMi0zLjA5eiIvPjwvc3ZnPg==;fontColor=#000000;strokeColor=#999999;strokeWidth=2;fillColor=none;imageBackground=#ffffff;" parent="1" vertex="1">
                    <mxGeometry x="740" y="650" width="18" height="18" as="geometry"/>
                </mxCell>
                <mxCell id="42" style="edgeStyle=orthogonalEdgeStyle;rounded=0;orthogonalLoop=1;jettySize=auto;html=1;exitX=0.5;exitY=1;exitDx=0;exitDy=0;fontColor=#000000;endArrow=oval;endFill=1;strokeColor=#0000FF;strokeWidth=2;" parent="1" edge="1">
                    <mxGeometry relative="1" as="geometry">
                        <mxPoint x="775" y="320" as="sourcePoint"/>
                        <mxPoint x="775" y="320" as="targetPoint"/>
                    </mxGeometry>
                </mxCell>
                <mxCell id="49" value="" style="shape=image;verticalLabelPosition=bottom;verticalAlign=top;imageAspect=0;aspect=fixed;image=data:image/svg+xml,PHN2ZyB4bWxucz0iaHR0cDovL3d3dy53My5vcmcvMjAwMC9zdmciIHZpZXdCb3g9IjAgMCAxOCAxOCI+PGRlZnM+PHJhZGlhbEdyYWRpZW50IGlkPSJhIiBjeD0iLTM2LjYzIiBjeT0iMTcuMTIiIHI9IjExLjE4IiBncmFkaWVudFRyYW5zZm9ybT0ibWF0cml4KC45NCAwIDAgLjk0IDQxLjg4IC03LjQpIiBncmFkaWVudFVuaXRzPSJ1c2VyU3BhY2VPblVzZSI+PHN0b3Agb2Zmc2V0PSIuMjciIHN0b3AtY29sb3I9IiNmZmQ3MGYiLz48c3RvcCBvZmZzZXQ9Ii40OSIgc3RvcC1jb2xvcj0iI2ZmY2IxMiIvPjxzdG9wIG9mZnNldD0iLjg4IiBzdG9wLWNvbG9yPSIjZmVhYzE5Ii8+PHN0b3Agb2Zmc2V0PSIxIiBzdG9wLWNvbG9yPSIjZmVhMTFiIi8+PC9yYWRpYWxHcmFkaWVudD48L2RlZnM+PHBhdGggZD0iTTEzLjU2IDcuMTlhMi4wNyAyLjA3IDAgMDAwLTIuOTNMMTAgLjY5YTIuMDYgMi4wNiAwIDAwLTIuOTIgMEwzLjUyIDQuMjZhMi4wOSAyLjA5IDAgMDAwIDIuOTNsMyAzYS42MS42MSAwIDAxLjE3LjQxdjUuNTJhLjcuNyAwIDAwLjIuNWwxLjM1IDEuMzVhLjQ1LjQ1IDAgMDAuNjYgMGwxLjMxLTEuMzEuNzctLjc3YS4yNi4yNiAwIDAwMC0uMzhsLS41NS0uNTZhLjI5LjI5IDAgMDEwLS40MmwuNTUtLjU2YS4yNi4yNiAwIDAwMC0uMzhMMTAuNCAxM2EuMjguMjggMCAwMTAtLjQxTDExIDEyYS4yNi4yNiAwIDAwMC0uMzhsLS43Ny0uNzh2LS4yOHptLTUtNS42NGExLjE4IDEuMTggMCAxMS0xLjE5IDEuMTggMS4xNyAxLjE3IDAgMDExLjE3LTEuMTh6IiBmaWxsPSJ1cmwoI2EpIi8+PHBhdGggZD0iTTcuNjIgMTYuMjFBLjI1LjI1IDAgMDA4IDE2di00LjQ1YS4yNy4yNyAwIDAwLS4xMS0uMjIuMjUuMjUgMCAwMC0uMzkuMjJWMTZhLjI3LjI3IDAgMDAuMTIuMjF6IiBmaWxsPSIjZmY5MzAwIiBvcGFjaXR5PSIuNzUiLz48cmVjdCB4PSI1LjY5IiB5PSI1LjQ1IiB3aWR0aD0iNS44NiIgaGVpZ2h0PSIuNjkiIHJ4PSIuMzIiIGZpbGw9IiNmZjkzMDAiIG9wYWNpdHk9Ii43NSIvPjxyZWN0IHg9IjUuNjkiIHk9IjYuNTciIHdpZHRoPSI1Ljg2IiBoZWlnaHQ9Ii42OSIgcng9Ii4zMiIgZmlsbD0iI2ZmOTMwMCIgb3BhY2l0eT0iLjc1Ii8+PC9zdmc+;labelBackgroundColor=none;fontColor=#000000;strokeColor=#000000;strokeWidth=2;fillColor=none;" parent="1" vertex="1">
                    <mxGeometry x="782" y="690" width="18" height="18" as="geometry"/>
                </mxCell>
                <mxCell id="56" value="&lt;b&gt;#AzureQuickStarts&lt;/b&gt;&amp;nbsp;- terraform-azurerm-vnet-app" style="text;html=1;resizable=0;autosize=1;align=center;verticalAlign=middle;points=[];fillColor=none;strokeColor=none;rounded=0;labelBackgroundColor=none;fontColor=#000000;" parent="1" vertex="1">
                    <mxGeometry x="10" width="280" height="20" as="geometry"/>
                </mxCell>
                <mxCell id="62" value="automation account" style="shape=image;verticalLabelPosition=bottom;verticalAlign=top;imageAspect=0;aspect=fixed;image=data:image/svg+xml,PHN2ZyB4bWxucz0iaHR0cDovL3d3dy53My5vcmcvMjAwMC9zdmciIHZpZXdCb3g9IjAgMCAxOCAxOCI+PGRlZnM+PGxpbmVhckdyYWRpZW50IGlkPSJhIiB4MT0iOSIgeTE9IjE3Ny45IiB4Mj0iOSIgeTI9IjE2MC4xIiBncmFkaWVudFRyYW5zZm9ybT0idHJhbnNsYXRlKDAgLTE2MCkiIGdyYWRpZW50VW5pdHM9InVzZXJTcGFjZU9uVXNlIj48c3RvcCBvZmZzZXQ9IjAiIHN0b3AtY29sb3I9IiMwMDc4ZDQiLz48c3RvcCBvZmZzZXQ9Ii4wNjQiIHN0b3AtY29sb3I9IiMwYTdjZDciLz48c3RvcCBvZmZzZXQ9Ii4zMzgiIHN0b3AtY29sb3I9IiMyZThjZTEiLz48c3RvcCBvZmZzZXQ9Ii41OTQiIHN0b3AtY29sb3I9IiM0ODk3ZTkiLz48c3RvcCBvZmZzZXQ9Ii44MjIiIHN0b3AtY29sb3I9IiM1ODllZWQiLz48c3RvcCBvZmZzZXQ9IjEiIHN0b3AtY29sb3I9IiM1ZWEwZWYiLz48L2xpbmVhckdyYWRpZW50PjxsaW5lYXJHcmFkaWVudCBpZD0iYiIgeDE9Ii0yNi4xODkiIHkxPSItMjk1LjYiIHgyPSItMjYuMTg5IiB5Mj0iLTMxMS4xMDUiIGdyYWRpZW50VHJhbnNmb3JtPSJtYXRyaXgoMS4xNTYgMCAwIDEuMDI5IDM5LjQyNSAzMjEuNjEpIiBncmFkaWVudFVuaXRzPSJ1c2VyU3BhY2VPblVzZSI+PHN0b3Agb2Zmc2V0PSIwIiBzdG9wLWNvbG9yPSIjZmVhMTFiIi8+PHN0b3Agb2Zmc2V0PSIuMjg0IiBzdG9wLWNvbG9yPSIjZmVhNTFhIi8+PHN0b3Agb2Zmc2V0PSIuNTQ3IiBzdG9wLWNvbG9yPSIjZmViMDE4Ii8+PHN0b3Agb2Zmc2V0PSIuOCIgc3RvcC1jb2xvcj0iI2ZmYzMxNCIvPjxzdG9wIG9mZnNldD0iMSIgc3RvcC1jb2xvcj0iI2ZmZDcwZiIvPjwvbGluZWFyR3JhZGllbnQ+PC9kZWZzPjxwYXRoIGQ9Ik0xNy45IDEwVjhsLS4zLS4xLTIuMi0uNy0uNi0xLjRMMTYgMy40IDE0LjUgMmwtLjMuMS0yIDEtMS40LS42TDEwIC4xSDhsLS4yLjMtLjcgMi4yLTEuNC41TDMuNCAyIDIgMy41bC4xLjMgMSAyLS41IDEuNEwuMSA4djJsLjMuMSAyLjIuNy42IDEuNEwyIDE0LjYgMy41IDE2bC4zLS4xIDItMSAxLjQuNi44IDIuNGgybC4xLS4zLjctMi4yIDEuNC0uNiAyLjMgMS4xIDEuNC0xLjQtLjEtLjMtMS0yIC42LTEuNHpNOSAxMi45QTMuODQyIDMuODQyIDAgMDE1LjEgOSAzLjg0MiAzLjg0MiAwIDAxOSA1LjEgMy44NDIgMy44NDIgMCAwMTEyLjkgOSAzLjg0MiAzLjg0MiAwIDAxOSAxMi45eiIgZmlsbD0idXJsKCNhKSIvPjxwYXRoIGQ9Ik04LjUgMTAuNUg0LjlhLjIxNS4yMTUgMCAwMS0uMi0uMnYtLjFMOSAxLjdjMC0uMS4xLS4xLjItLjFoNC4yYS4yMTUuMjE1IDAgMDEuMi4ydi4xTDguNSA4LjZoNC45YS4yMTUuMjE1IDAgMDEuMi4yLjEuMSAwIDAxLS4xLjFsLTguMiA4LjVjLS4xIDAtLjYuNS0uNC0uMnoiIGZpbGw9InVybCgjYikiLz48L3N2Zz4=;fontColor=#000000;strokeColor=#999999;strokeWidth=2;fillColor=none;" parent="1" vertex="1">
                    <mxGeometry x="660" y="270" width="50" height="50" as="geometry"/>
                </mxCell>
                <mxCell id="63" value="log analytics workspace" style="aspect=fixed;html=1;points=[];align=center;image;fontSize=12;image=img/lib/azure2/analytics/Log_Analytics_Workspaces.svg;fontColor=#000000;strokeColor=#999999;strokeWidth=2;fillColor=none;labelBackgroundColor=none;" parent="1" vertex="1">
                    <mxGeometry x="660" y="570" width="50" height="50" as="geometry"/>
                </mxCell>
                <mxCell id="64" value="key vault" style="shape=image;verticalLabelPosition=bottom;labelBackgroundColor=#ffffff;verticalAlign=top;aspect=fixed;imageAspect=0;image=data:image/svg+xml,PHN2ZyB4bWxucz0iaHR0cDovL3d3dy53My5vcmcvMjAwMC9zdmciIGlkPSJiYzkzMTY5YS0yNGM0LTQ2ODYtOWYzNy1jN2U0ZjUzYjNkMzQiIHdpZHRoPSIxNyIgaGVpZ2h0PSIxNyIgdmlld0JveD0iMC41MDAwMDA0NzY4MzcxNTgyIDAuNSAxNyAxNyI+PGRlZnM+PHJhZGlhbEdyYWRpZW50IGlkPSJmYjExNGM5My03YzE2LTQ1NDAtODk5YS0wNzk2MDQxNjI5ZTYiIGN4PSI5IiBjeT0iOSIgcj0iOC41IiBncmFkaWVudFVuaXRzPSJ1c2VyU3BhY2VPblVzZSI+PHN0b3Agb2Zmc2V0PSIwLjE4IiBzdG9wLWNvbG9yPSIjNWVhMGVmIi8+PHN0b3Agb2Zmc2V0PSIwLjU2IiBzdG9wLWNvbG9yPSIjNWM5ZmVlIi8+PHN0b3Agb2Zmc2V0PSIwLjY5IiBzdG9wLWNvbG9yPSIjNTU5Y2VkIi8+PHN0b3Agb2Zmc2V0PSIwLjc4IiBzdG9wLWNvbG9yPSIjNGE5N2U5Ii8+PHN0b3Agb2Zmc2V0PSIwLjg2IiBzdG9wLWNvbG9yPSIjMzk5MGU0Ii8+PHN0b3Agb2Zmc2V0PSIwLjkzIiBzdG9wLWNvbG9yPSIjMjM4N2RlIi8+PHN0b3Agb2Zmc2V0PSIwLjk5IiBzdG9wLWNvbG9yPSIjMDg3YmQ2Ii8+PHN0b3Agb2Zmc2V0PSIxIiBzdG9wLWNvbG9yPSIjMDA3OGQ0Ii8+PC9yYWRpYWxHcmFkaWVudD48cmFkaWFsR3JhZGllbnQgaWQ9ImVjNDc4YmQzLTViMzgtNGU3Zi1iNjYxLTExZjM1NTU3OGJmZiIgY3g9IjM4Ljk1IiBjeT0iMTgyLjA3IiByPSI5Ljg4IiBncmFkaWVudFRyYW5zZm9ybT0idHJhbnNsYXRlKC0yOC43MSAtMTYzLjI0KSBzY2FsZSgwLjk0IDAuOTQpIiBncmFkaWVudFVuaXRzPSJ1c2VyU3BhY2VPblVzZSI+PHN0b3Agb2Zmc2V0PSIwLjI3IiBzdG9wLWNvbG9yPSIjZmZkNzBmIi8+PHN0b3Agb2Zmc2V0PSIwLjQ5IiBzdG9wLWNvbG9yPSIjZmZjYjEyIi8+PHN0b3Agb2Zmc2V0PSIwLjg4IiBzdG9wLWNvbG9yPSIjZmVhYzE5Ii8+PHN0b3Agb2Zmc2V0PSIxIiBzdG9wLWNvbG9yPSIjZmVhMTFiIi8+PC9yYWRpYWxHcmFkaWVudD48L2RlZnM+PHRpdGxlPkljb24tc2VjdXJpdHktMjQ1PC90aXRsZT48cGF0aCBpZD0iYWFjZjgzMTEtYTMxNy00MDBmLWI2MTMtNzRiZDAwZGE1Y2UzIiBkPSJNOSwuNUE4LjUsOC41LDAsMSwwLDE3LjUsOSw4LjUxLDguNTEsMCwwLDAsOSwuNVpNOSwxNi4zNEE3LjM0LDcuMzQsMCwxLDEsMTYuMzQsOSw3LjM0LDcuMzQsMCwwLDEsOSwxNi4zNFoiIGZpbGw9InVybCgjZmIxMTRjOTMtN2MxNi00NTQwLTg5OWEtMDc5NjA0MTYyOWU2KSIvPjxjaXJjbGUgY3g9IjkiIGN5PSI5IiByPSI3LjM0IiBmaWxsPSIjZmZmIi8+PGc+PHBhdGggaWQ9ImJkOTgzYzQxLWRiNzMtNDBlYy1hNGY0LWRhMTIxM2ZjOTkyNCIgZD0iTTEzLjQ0LDcuMzNhMS44NCwxLjg0LDAsMCwwLDAtMi41OWgwTDEwLjI5LDEuNThhMS44MywxLjgzLDAsMCwwLTIuNTgsMGgwTDQuNTYsNC43NGExLjg0LDEuODQsMCwwLDAsMCwyLjU5TDcuMTgsMTBhLjUxLjUxLDAsMCwxLC4xNS4zNnY0Ljg4YS42My42MywwLDAsMCwuMTguNDRsMS4yLDEuMmEuNDEuNDEsMCwwLDAsLjU4LDBsMS4xNi0xLjE2aDBsLjY4LS42OGEuMjUuMjUsMCwwLDAsMC0uMzRsLS40OS0uNDlhLjI3LjI3LDAsMCwxLDAtLjM3bC40OS0uNDlhLjI1LjI1LDAsMCwwLDAtLjM0bC0uNDktLjQ5YS4yNy4yNywwLDAsMSwwLS4zN2wuNDktLjQ5YS4yNS4yNSwwLDAsMCwwLS4zNGwtLjY4LS42OXYtLjI1Wk05LDIuMzVBMSwxLDAsMCwxLDksNC40MiwxLDEsMCwxLDEsOSwyLjM1WiIgZmlsbD0idXJsKCNlYzQ3OGJkMy01YjM4LTRlN2YtYjY2MS0xMWYzNTU1NzhiZmYpIi8+PHBhdGggaWQ9ImFkMmU3ZTQ0LTliZmQtNDc3NS04YmY0LThlZjI2YTU0NDkyMSIgZD0iTTguMTgsMTUuM2gwYS4yMy4yMywwLDAsMCwuMzgtLjE3di00YS4yNC4yNCwwLDAsMC0uMTEtLjJoMGEuMjIuMjIsMCwwLDAtLjM0LjJ2NEEuMjguMjgsMCwwLDAsOC4xOCwxNS4zWiIgZmlsbD0iI2ZmOTMwMCIgb3BhY2l0eT0iMC43NSIvPjxyZWN0IGlkPSJhOTk2ZmJmZi0zOTM2LTRiMjQtYjQwNy0zNjkzMzZjMTQzYmEiIHg9IjYuNDgiIHk9IjUuNzkiIHdpZHRoPSI1LjE3IiBoZWlnaHQ9IjAuNjEiIHJ4PSIwLjI4IiBmaWxsPSIjZmY5MzAwIiBvcGFjaXR5PSIwLjc1Ii8+PHJlY3QgaWQ9ImJiMTJkMzFjLTMzNTItNGExOC04N2RkLWExNjlhNGE4NzIxZCIgeD0iNi40OCIgeT0iNi43OCIgd2lkdGg9IjUuMTciIGhlaWdodD0iMC42MSIgcng9IjAuMjgiIGZpbGw9IiNmZjkzMDAiIG9wYWNpdHk9IjAuNzUiLz48L2c+PC9zdmc+;fontColor=#000000;" parent="1" vertex="1">
                    <mxGeometry x="660" y="120" width="50" height="50" as="geometry"/>
                </mxCell>
                <mxCell id="65" value="storage account" style="shape=image;verticalLabelPosition=bottom;verticalAlign=top;imageAspect=0;aspect=fixed;image=data:image/svg+xml,PHN2ZyB4bWxucz0iaHR0cDovL3d3dy53My5vcmcvMjAwMC9zdmciIHZpZXdCb3g9IjAgMCAxOCAxOCI+PGRlZnM+PGxpbmVhckdyYWRpZW50IGlkPSJhIiB4MT0iOSIgeTE9IjE1LjgzIiB4Mj0iOSIgeTI9IjUuNzkiIGdyYWRpZW50VW5pdHM9InVzZXJTcGFjZU9uVXNlIj48c3RvcCBvZmZzZXQ9IjAiIHN0b3AtY29sb3I9IiNiM2IzYjMiLz48c3RvcCBvZmZzZXQ9Ii4yNiIgc3RvcC1jb2xvcj0iI2MxYzFjMSIvPjxzdG9wIG9mZnNldD0iMSIgc3RvcC1jb2xvcj0iI2U2ZTZlNiIvPjwvbGluZWFyR3JhZGllbnQ+PC9kZWZzPjxwYXRoIGQ9Ik0uNSA1Ljc5aDE3djkuNDhhLjU3LjU3IDAgMDEtLjU3LjU3SDEuMDdhLjU3LjU3IDAgMDEtLjU3LS41N1Y1Ljc5eiIgZmlsbD0idXJsKCNhKSIvPjxwYXRoIGQ9Ik0xLjA3IDIuMTdoMTUuODZhLjU3LjU3IDAgMDEuNTcuNTd2My4wNUguNVYyLjczYS41Ny41NyAwIDAxLjU3LS41NnoiIGZpbGw9IiMzN2MyYjEiLz48cGF0aCBkPSJNMi44MSA2Ljg5aDEyLjM3YS4yNy4yNyAwIDAxLjI2LjI3djEuNGEuMjcuMjcgMCAwMS0uMjYuMjdIMi44MWEuMjcuMjcgMCAwMS0uMjYtLjI3di0xLjRhLjI3LjI3IDAgMDEuMjYtLjI3eiIgZmlsbD0iI2ZmZiIvPjxwYXRoIGQ9Ik0yLjgyIDkuNjhoMTIuMzdhLjI3LjI3IDAgMDEuMjYuMjd2MS40MWEuMjcuMjcgMCAwMS0uMjYuMjdIMi44MmEuMjcuMjcgMCAwMS0uMjYtLjI3VjEwYS4yNy4yNyAwIDAxLjI2LS4zMnoiIGZpbGw9IiMzN2MyYjEiLz48cGF0aCBkPSJNMi44MiAxMi41aDEyLjM3YS4yNy4yNyAwIDAxLjI2LjI3djEuNDFhLjI3LjI3IDAgMDEtLjI2LjI3SDIuODJhLjI3LjI3IDAgMDEtLjI2LS4yN3YtMS40MWEuMjcuMjcgMCAwMS4yNi0uMjd6IiBmaWxsPSIjMjU4Mjc3Ii8+PC9zdmc+;fontColor=#000000;strokeColor=#999999;strokeWidth=2;fillColor=none;" parent="1" vertex="1">
                    <mxGeometry x="660" y="420" width="50" height="50" as="geometry"/>
                </mxCell>
                <mxCell id="109" value="public ip" style="edgeStyle=orthogonalEdgeStyle;rounded=0;orthogonalLoop=1;jettySize=auto;html=1;exitX=0;exitY=0.5;exitDx=0;exitDy=0;labelBackgroundColor=#ffffff;fontColor=#000000;startArrow=none;startFill=0;endArrow=oval;endFill=1;fillColor=#0050ef;strokeColor=#001DBC;verticalAlign=top;" parent="1" source="66" edge="1">
                    <mxGeometry relative="1" as="geometry">
                        <mxPoint x="100" y="210" as="targetPoint"/>
                    </mxGeometry>
                </mxCell>
                <mxCell id="113" value="peering" style="edgeStyle=orthogonalEdgeStyle;rounded=0;orthogonalLoop=1;jettySize=auto;html=1;exitX=1;exitY=0.5;exitDx=0;exitDy=0;entryX=-0.008;entryY=0.18;entryDx=0;entryDy=0;entryPerimeter=0;labelBackgroundColor=#ffffff;fontColor=#000000;startArrow=classic;startFill=1;endArrow=classic;endFill=1;fillColor=#0050ef;strokeColor=#001DBC;verticalAlign=top;" parent="1" source="66" target="14" edge="1">
                    <mxGeometry relative="1" as="geometry"/>
                </mxCell>
                <mxCell id="66" value="vnet-shared-01 (10.1.0.0/16)" style="rounded=0;whiteSpace=wrap;html=1;dashed=1;fontColor=#000000;fillColor=none;align=left;strokeColor=#0000FF;labelPosition=center;verticalLabelPosition=top;verticalAlign=bottom;" parent="1" vertex="1">
                    <mxGeometry x="210" y="120" width="120" height="180" as="geometry"/>
                </mxCell>
                <mxCell id="67" value="" style="shape=image;verticalLabelPosition=bottom;verticalAlign=top;imageAspect=0;aspect=fixed;image=data:image/svg+xml,PHN2ZyB4bWxucz0iaHR0cDovL3d3dy53My5vcmcvMjAwMC9zdmciIHZpZXdCb3g9IjAgMCAxOCAxOCI+PGRlZnM+PGxpbmVhckdyYWRpZW50IGlkPSJhIiB4MT0iOS44OCIgeTE9IjguNTkiIHgyPSIxMS41MiIgeTI9IjEwLjIzIiBncmFkaWVudFRyYW5zZm9ybT0icm90YXRlKC0uMDggLTI4NS40NjQgLTE0NTQuMDgpIiBncmFkaWVudFVuaXRzPSJ1c2VyU3BhY2VPblVzZSI+PHN0b3Agb2Zmc2V0PSIwIiBzdG9wLWNvbG9yPSIjODZkNjMzIi8+PHN0b3Agb2Zmc2V0PSIxIiBzdG9wLWNvbG9yPSIjNWU5NjI0Ii8+PC9saW5lYXJHcmFkaWVudD48bGluZWFyR3JhZGllbnQgaWQ9ImIiIHgxPSI2LjE4IiB5MT0iOC41OSIgeDI9IjcuODEiIHkyPSIxMC4yMyIgZ3JhZGllbnRVbml0cz0idXNlclNwYWNlT25Vc2UiPjxzdG9wIG9mZnNldD0iMCIgc3RvcC1jb2xvcj0iIzg2ZDYzMyIvPjxzdG9wIG9mZnNldD0iMSIgc3RvcC1jb2xvcj0iIzVlOTYyNCIvPjwvbGluZWFyR3JhZGllbnQ+PGxpbmVhckdyYWRpZW50IGlkPSJjIiB4MT0iMi40OCIgeTE9IjguNTkiIHgyPSI0LjExIiB5Mj0iMTAuMjMiIGdyYWRpZW50VW5pdHM9InVzZXJTcGFjZU9uVXNlIj48c3RvcCBvZmZzZXQ9IjAiIHN0b3AtY29sb3I9IiM4NmQ2MzMiLz48c3RvcCBvZmZzZXQ9IjEiIHN0b3AtY29sb3I9IiM1ZTk2MjQiLz48L2xpbmVhckdyYWRpZW50PjwvZGVmcz48Y2lyY2xlIGN4PSIxMi43NCIgY3k9IjguOTkiIHI9IjEuMTYiIGZpbGw9InVybCgjYSkiLz48Y2lyY2xlIGN4PSI5LjA0IiBjeT0iOSIgcj0iMS4xNiIgZmlsbD0idXJsKCNiKSIvPjxjaXJjbGUgY3g9IjUuMzQiIGN5PSI5IiByPSIxLjE2IiBmaWxsPSJ1cmwoI2MpIi8+PHBhdGggZD0iTTYuMTgyIDEzLjYzOGwtLjY2NC42NjVhLjMuMyAwIDAxLS40MjQgMEwuMTggOS40MDRhLjYuNiAwIDAxLS4wMDEtLjg0OGwuNjYzLS42NjYgNS4zNCA1LjMyNGEuMy4zIDAgMDEwIC40MjV6IiBmaWxsPSIjNTBlNmZmIi8+PHBhdGggZD0iTTUuNDE4IDMuNzA4bC42NjYuNjY0YS4zLjMgMCAwMTAgLjQyNEwuODM4IDEwLjA1N2wtLjY2Ni0uNjYzYS42LjYgMCAwMS0uMDAxLS44NDlMNC45OTQgMy43MWEuMy4zIDAgMDEuNDI0IDB6IiBmaWxsPSIjMTQ5MGRmIi8+PHBhdGggZD0iTTE3LjE1NyA3Ljg4bC42NjMuNjY2YS42LjYgMCAwMTAgLjg0OGwtNC45MTUgNC45YS4zLjMgMCAwMS0uNDI0IDBsLS42NjQtLjY2NmEuMy4zIDAgMDEwLS40MjRsNS4zNC01LjMyNHoiIGZpbGw9IiM1MGU2ZmYiLz48cGF0aCBkPSJNMTcuODE4IDkuMzg3bC0uNjY1LjY2NC01LjI0Ny01LjI2MWEuMy4zIDAgMDEwLS40MjVsLjY3NC0uNjdhLjMuMyAwIDAxLjQyNCAwbDQuODIzIDQuODM2YS42LjYgMCAwMS0uMDAyLjg0OXoiIGZpbGw9IiMxNDkwZGYiLz48L3N2Zz4=;fontColor=#000000;strokeColor=#999999;strokeWidth=2;fillColor=none;imageBackground=#ffffff;" parent="1" vertex="1">
                    <mxGeometry x="310" y="290" width="18" height="18" as="geometry"/>
                </mxCell>
                <mxCell id="69" value="" style="shape=image;imageAspect=0;aspect=fixed;verticalLabelPosition=bottom;verticalAlign=top;image=data:image/png,iVBORw0KGgoAAAANSUhEUgAABH0AAAdBCAIAAAAGJHGoAAAAAXNSR0IArs4c6QAAAARnQU1BAACxjwv8YQUAAAAJcEhZcwAADsMAAA7DAcdvqGQAAP+lSURBVHhe7P0LvBVlmt990z0zmck8cZJxks6Y501MJuNrfBKnH8YYjbxEeTS2rxLUpHE00yo9keloI45NIwoqtowKHmlRW2nsbg+ITYutMzQKikC3goA0IogKykmOm4McZXPYm+ey6qL65q6qa1XVWrX3Ovy+n/qsT+2qa69Vq1atuu//qlq1ehwBAAAAAJSJ3AUAAAAA5SJ3AQAAAEC5yF0AAAAAUC5yFwAAAACUi9wFAAAAAOUidwEAAABAuchdAAAAAFAuchcAAAAAlIvcBQAAAADlIncBAAAAQLnIXQAAAABQLnIXAAAAAJSL3AUAAAAA5SJ3AQAAAEC5yF0AAAAAUC5yFwAAAACUi9wFAAAAAOUidwEAAABAuchdAAAAAFAuclcD+/DDD7/61a/2CHzta1/btm2bzihfe3v7jBkzBgwYcPLJJ4cLcOKJJ5533nl33XXXnj17tKheuetNRuRPndHl9u7dO3XqVFmNPXv2DJdH1qf8OXny5F27dmlRFTo7O8ePHx/e85tvvqlTy3Ho0KHRo0fLAx133HEvvfSSTs2myuWUf5cXccyYMfIuOP7448NlOPfcc++8886lS5d2dHRoXflkJQwfPlwWoNTtqruebxmPK3cYvhlPOumkJUuW6NRjHThw4Fe/+tUtt9zSp0+f8HGFvGUuv/zyiRMnbtmyReuqs2nTposuuii8c3lGOjVJW1vbpZdeKmVnnHHG8uXLdSoAAJWQu6oiXY033nhDuoz6d9eKuiyiK3PXmjVrwm5H3HXXXbd//36tq1fuerP7x+W9vtJBf+6556LUGiezpE8p+Vb/oRDpFEbPtOzcNXv2bMne8kBXXXVV3tBYzXKuW7dOHjH830Qyd/Xq1VpdspkzZ55wwgnyoPZ2VY3uer4lPe7LL78c/vvXv/71nTt36tSj5G0yadKkU089NaxJJNlv2LBhkoX0fwqJAnPIzl1i+vTp8rhSKXu8vXv36lQAAEzkroI6Ozulsxh2RCo20iXplty1Y8eO/v37hw8ad/fdd2tdHcuSu0p9faWj5nbyDDfccEPhXt3mzZsvvvhivaOSc1d0rEBSx5w5c3RqNtUs59y5c6OX0iAhNu9SFSAbzBlnnBE+Ykm5q7ueb0mPe/jw4VtuuSX83wcffFCnHrV79+7rr78+nFuRLJ4spP5nflGOClV8y3/++eff+ta3wuJnnnlGdhc6AwCAdOSugn72s59F7XRL5a7o8+lIz549zw/IyPPPP691dSxL7irv9Y3Ox4scf/zxEmXvClxyySVu/0/cfvvt8i/6z5lJWrvuuuv0LgLl5S5ZvFGjRoWPMmTIkFzH6KpZTjfnhGQLHDp0qKxeufWOJcoLnXYaW0146TFtu6pGdz3f8h5348aN5513nvyXbPPe6x7fMET0uPKWvOCCC7x3SuGz/lavXt2rVy+9l0CWt/zChQvDA7zylIs9LgCg1ZC7Cnr22WfDFlq0VO6SJxs+opCOzoIFCxrus94suau819f7ZF06l9L71HkB6QW6J3RJcd6vSyUeTysvd8k9hx3QU045JVdfv5rl3LVrl7uWpPc/depUN6BK/Js4caKbCiTc7tixQ2fXVFtb25VXXqkPE0jbrgrrrudb6uPKax2+F84555wNGzbo1OBoc/R9v9Cll166dOlSb1cjq33YsGHuu0nK8p5wKMs/ZMgQ/f+jsrzlZSVEW++gQYM+//xznQEAQApyV0Gtmbvcs2vE448/rjMaSjfmLumPul+NS/tyiPdhf79+/bJfPGD79u0DBw7U/3SUlLvcfvltt912+PBhnVFJlcs5ZcoU/Yfgmi6zZ8/WGceKvnUWkpdVZ9TOmjVrousxRGqeu7rr+Zb6uA8++GBYf+ONNx44cECnxg5Apb1NREdHxzPPPONGrwkTJui8bCZNmuT+eyjjW37JkiWnnHKK1Ms9TJ8+XacCAJCC3FUQuUt0wXdmytCNucvtxfbp02f9+vU6I8Y7b03+UWeYPvjgg/PPP1//51gl5a6XXnop7LZKB3TZsmU6tZIql9OLr+PHj0876CrTJ06cGHWs5b9qeMhL7lyWNtqWXLXNXd31fEt93N27d0cHCb2cJtkpnC7st4lwjzuJXE95xYoV3imUoYxv+cOHD992223hv5R3NBUA0DTIXQWRu0RJXfmydVfu8tZexQ/m3ZA2YMCAtI/8Q+3t7Y888kh0lW0hneCvfOUr+kc5L5Z0NKW7Gd7/4MGDZRl0RrqaLKfURF388847zztR0+OGB/mv119/XWdUR2KDdPejxRDyLKI/a5u7uuv5lvq40dvQu4K8m8dEluNX8+fPDy8jKYzr0Xvco8qSvr7zne+E4yL7Wz56aHnKec8HBgC0GnJXQeQuUUZXvgt0V+5yHzfL0aENGzacc845Yb3Rm+zo6Hjttdd69+4dVobC7+G4J/KV8WJFB7uy9LNrtZydnZ3RZTxElpMbH3/8ca3u0eOWW27JfjJkIomOzz33nHdx8169es2ePVvehuGfadtVAd31fMt+3LQryK9Zs+ass84KZ2UMUbLri9a8yHIc3j1AJ7cy/swzz4T/LrK/5SW8DRgwIPwvDnkBAGxl5S5pjaZPn37dddedeeaZYZskbZt0uWSKdLPsn/dxO/dunJD/mjRp0uWXXx59h1vufPDgwdJRc7/nnYXclSyG+3u1J554Yr9+/R566KHVq1dLk6x1MdIeh/VpZMll+bW6OnI/s2bNkicYLeTZZ589ZsyYtWvXhgV5c5c8r3Xr1j322GPyTKMvY8idV/yhXjeEpDE6mtIXkbU9dOhQ92dPhbx88tDymlb88pK72rN0iex6d715i13q6ztjxgy9lx49rrzyyt27d+uMFPv373e/5ZV2rUjZ/rXiqEsvvVQ6r2WHZLfHmeXkrlotp3c8RNaqzkg3b968sIctLrrooio7x/G3g7xM27dvd3v/Ncxd3fV8S31ciWTRFeQl3bm7XPdOzjvvvCzXyfA2IXmBdEY69yKN8vLJxlz4o5boH2Wxa3U0FQDQlGqfu6QJHDt2rPsd6zjpfD/44IPS1On/HMttRMM4IbHK/pHZ008//a233jLyUkQeVB7a7f3HXZX+A6Cl9ssj4ZEBeVJ6p8eShX/kkUfa29tz5S7vKnlxxotSOHfJgw4aNCjqRaWRAvuXT+0cFWfXd1fuiq4iIEaOHJllc83yL26ekffIxKO/tux1Rmueu9yTux544IGKT6dWy+keDzn11FM/+OADnZGuwL8Y3LeDvEnlrSpvWJleUu7qrudb6uNu3br1ggsukLJ4VlmxYsVdd911+eWX9+nTR8JbxY+ThAQ899ImL7/8ss5IIXu56BBrdPX5wrnL3Z9kPNsWANCaapy7du/efe2114YtUEXSUko7rf/p8HLX2rVr4xebjpPYMGnSJLvzJ/2AtG/zeyQ3TpkyJX5vpfbLQ/Lvo0aNqphV7r777vfeey9q743cJZ3CyZMn20k4IutH+j36n0cVyF2y6mQFZnzQUK9evdK6qnaOirPr3X6St9jlvb7ewaunnnpKZ5ief/55/YcePa655pp9+/bpDEeYZ+LZNW+eyUVe3+gkNHnoLHdeq+UscDzE65dXeT2Y8O0Q/5yipNzVXc+31MeNQrt3Bfli3He0LLMsuc5IIpvuM0dPKZRiyf/hfr5w7nI34FxXlwEAtJpa5q5DsR+ElW73ZZdddtddd6X90uXAgQPjB1jcZqx3796DBw8Ox4Xc4dVXXy33JvfZv39/77CV3deJ//qn/Hvfvn1lwcIfAI1O5wu5TXJk6tSpUiy+8Y1vaF2PHhdeeGE4UTz33HPuBZHziq9DIYs9YsQImS4dd/eg33e+851Tj37JJC13yfLLs/BWu9zJgAEDguUdLevTS0fRB8AR6ceExdLVdq/vPGjQoHC6eOihhzZt2qT/ELuutJAHvfzyy8ONQW5lw4insrRU48ahLF0iu97IXeW9vgXO2hJhVgmlvcTy6txwww3xI7Sl5q7oF29Fxq5zrZYz7+mawnsI6WHrjEImT54sG3A8h5SUu7rr+Zb6uNGBXO8K8sW41z+suDVGF38X4RmG4fTCuUu4X2zLeyF7AEDrqGXuWrx4cdSTlo7++PHjpRnWeUdJd8391F/K4ifEe413SHrtzzzzjHeH0vVx702kne/kXZU7/Kza+0ZTR0fHwoUL3QNi8nTSeoHVNNIG70d1JeS8/fbb4VlMIQlmUhPFhkhap9zLP6effrp0p7yvw8lalXXrll2a8vOj3kuTtnK2bNnSr18/LQr6oLLM3oOK9vb2F1980U2SJ5xwwvz583W2w85RcXa9kbsiNX993U65yJiCpI940kknhf9y1llnJR4fTpPxxSpG7i3aUOU9uH//fp2RX97ldF8a+Udvn5DI/TaRkPe+zqipknJXdz3f8h7X/QxCHkWnFuXtbezrf8g+Pzrd2vuAqZq3vPt2yLiuAAAtqJa5K/oIUxjf93DPrRfxzzu9fpiQBnLp0qU6+1hyb270uuCCC7Zu3arzjpJm+O6779aKIE3NnDkzbfG8n3OVRjrxghPVNNJpdjhX5RYSFNN+uCZ+7C4xd3k9EuMOxTvvvOPeZ+Jv9XgvTVoX2b0A+imnnGJfkWzRokXRx88i8beY7RwVZ9d3S+7KeHFCT5ZFTZPxxSrGfbMnvmTZ5V3OYhfry7sJFVBS7uqu51ve40ZbdfY3QhrvBIG0D25CskMbO3ZsWCkxadKkSTojUM1b3v1iW97PRwAAraNmucv7+ordeXK/kR8/LcTrh0kDaf8uintviV/mXrVqVZQo5N7iZw96JJz06dMnqk+8RFUZuUseKPrQtGJckegYPWuRmLvc/ON9uJvIPdp2XtLP9WTpIkuKliytFRmuuCD9Ofcz8sSrR2TpzLns+ixhpuavb5YHjSv2X6Hycte+ffuuueYavd/M50ymybuceTeGULH/yqWk3NVdz7e8x027gnwB3vH84cOHx4+rRxYuXBgVDxo0SDY8nRGo5i3vnUXcoD8oDwAoW81yl9d5srtibW1tffv2lZ790KFDn3jiic8++0xnBLy7SjyE5XKPJIh4v809+z/t+JXH/ZfEbyDUvF/uxY+Kv5bT3t7ufvMtnrv2Opf5FonHrzzev8QvC5aliywLJnlvxIgRF1100Zlnnpnl82x3Zcr9e/0hkaUz57Lrs4QZcpfBfccVvlxeJO9y5t0YQsX+Kxdyl6j4X+6OzruCfF5z586N3h2iT58+xvF8aXSin3U+44wz7KsH5V1j3t4741VzAACtpma5S5rPkSNHarOTfq3CLLx+WMVTXLzPGr1+m3dv0rjqDJOkheh7NYlf1K55vzy6sHIoyzEE94vv8dxVrMtun1xUUlee3JWm2H+FSnqxhASt6IIuie+OXPIuZ96NIVTsv3Ihd4mK/+Xu6Ko5Urp06VL3vOgTTzxx9uzZOi9G9mP33ntvWHlc7AzDUJVveXfPmfFXIgAAraaW3+9yT5MT0hCOGDFi/vz5eS9X5fXDKn52aPfb3M/mZfHsSwxH2traosu1nXDCCe+8847OOKrm/XI36WX8hsDKlStPO+208F/iuctNZRKDd2T77dQ5c+bo/ySdBVRSV57clabYf4VKerGE3JXeaRU/yxvJu5x5N4ZQsf/KhdwlKv6X7EvDE6Sr+R6U92XUij8i4p6OGD/DMFTlW979yYfEnRgAALXMXe6lolzSKPbv3//pp5+WVta9NF8arx8m7ZnOSGH329w8I+39TTfdFF4Q3DZy5Ej3Yg/xz2Vr3i93A0/Gvqz7aznx3OV+/tqrV69Ro0bpczNJp0T/J8NX76rsykuok3u49dZb3UsaJnZZKnbmPHZ9ljBD7jJUzMm55F3OvBtDqNh/5ULuEhX/K7oiS7EtR8LVrFmz3D1GxdDlXsw28QzDUJVvedlu9Z9r8WEEAKAp1TJ3CelquL/vFCftpfSzFyxYYHz7OW8/zK53m8PCpEnWuzuqYiPt9j8M0dIW6Mu6TzyeuzIugCHed8z70kQOHDggvR+pf/HFF2XB+vXr534b3pX43N3nkri2PXZ9ljBT89e32HeisixqmsIvVkUFtlVD3uUsdkKXvUnUREm5q7uebxmPW+UV5GUZvF9jl3GZYiybe8HD48xLNFV8y9tku9V/TtobAwAgapy7RFtb27Bhw9wTDhNJe3n//fcnNk55+2F2vdscFhbvItS8X16gL+s+8frMXVu2bBk3btzZZ5+t/5BB4nN3n0uWLpFdnyXM1Pz1dTvlouKqCxU4+zSS98XKzu2RZ9xWDXmXs8A7xbvsQbHfs6qopNzVXc+3jMeN3noFriAvCUp2Jt6p7NOmTbMDoXvd1yFDhrS3t+uMmIpveVt0/qQgdwEAEtU+d4XCDrd7Cn6iXr16LVq0SP/nqLz9MLte/tQZVZAmWe/uqIqNdN5+eYFejvvE6y137d27V3pdxx9/vJamO/nkk6Or9ovE5+4+lyxdIru+W3JXsStNu1tv3s5c9hcrL/e5Z9xWDXmX0/3i4jXXXLNv3z6dkc57iPjbuSZKyl3d9XzLeNzCV5CXt8/NN98c/m9I1vDcuXN1dopNmzZFZ2JLW7N69WqdkaTiW97m7lXIXQCARGXlrlBnZ6e0fNLWXn311WnnlcVPuM/bD7Prq+m5GmreL3fvUJ6OPKlwusF94nbuKtCNSJTxpWlra3Mzhqdnz56XX375/fffP2vWLFlm2UgqPve8z8Wu75bc5f2smdx/ON1WzZf1M75YBXTv8a4CBxbcb0KKGq4KlyxJGbmru55vzR/XPRqW6wry8f2JhKhly5bp7HSyAPoP1cmyAufNmxcdi8u4ugAArabc3OU6dOjQ6tWrH3vssXPPPTdsnCLeT+vm7YfZ9W5zeNppp61cuVJnVKdivzwvt4uQsdl2D6HE/+Xuu+8OZ4nrrrtu//79OqMKWV4aeaGlU6UVgVNPPXXMmDHyQsgSJl5YpRFzVwHRFQVExvt0/yXvxanzvo+yq/h65ZJ3OdesWXPWWWeFxRnjjfsv1f/gWBrZvOVtGD5KDXNXdz3fmj9usSvIy326WU7079/f+J0ul7tTrUaW9477WOQuAECirstdEek7LliwwD0FUZpV9+pPefthdr17sXUJYFla0Cxq3i93fxMpYy/HvVRDvKV3D5VU/O3pjLK8NMuWLXMvBXn99ddLPtR5KSr243MlFkmYkjO1up5yl3vilgTmiqvFeyIVL+zpyfs+yq62l8zOu5zeGZtZevDuhy/e3qaGSspd3fV8a/640QE0yWaSpnSqSdahd6GmLPuTiGxL+m/VyfLecR+rvG0MANDQapa7pB2dOHHi0KFD+/TpM2LEiMPmLx2LadOmaRsV66Pk7YfZ9Tt37vz617+u82LH1tKsWrVKIs15550nz+jRRx/dvHmzzjiq5v1yaaeltdZ77NHj5Zdf1hnp5JlGvZx47nJPE5KR+fPn6wzTlClTevbseckll8iTknHva+hZXhr3JDTZGCp+Mi0vx0jnF7cT+/Hu2q542Mdbk/WTu7I8rss9elDgOgR530fZyV3pndbio/28yymvvntANcsZa25uj/8aeK2UlLu66/nW/HGjPUPiezxuxYoV559/fvgvoTvuuCPLP0ZkHyj3kJHs9/Rhgi+d6tSA3I/eY7qKHx4BAFCz3OVmgCxHV4w+aN5+mF0vfQXJWjovcxIYP368/kPKp7M175d7vZyKLbf0aW677TatTur+Svy49NJLdXaPHsOHDzeu3R/yfoHtxhtv9H7zuuJLI0vlXtAsfg9x3nImPnF3bVf8ir8bOEX95C5v7U2YMEFnpJDcq6XZjo95Kr5YhbnHZrMfu0hTYDmlJtrbnHfeeRs3btQZSbwNLPsZbnmVlLtEdz3fGj7u3r17BwwYEM6SAKZT07k/uiVkMcaNG1dxD1aNKt/yuY7JAwBaU81yl3vOm7SR06dP1xkpvBa9ra1NZ+Tvh1WsX7hwoXtVj9GjR9vt94oVK9zTIG+66aZ4eCijXz5//vwoMFRch0uWLHFP54vnLglyY8eO1dnBNZdnz56t81JMmjQpelFkZOrUqTrjqIqr2rt6RMXvlXkRV8j9y6Po7KOkD6ezgwuxrFq1SmfEyCsrCVNLA/WTu4QbpeyPANxLsYmKIS2uQJ7JSN6t8p4N77bAgThPgeX0uviyCcmGpPOOJdOfeeYZrcsQHqpRXu7qrudbw8eN3nSyi6t4+Ki9vX3IkCHhXQnZF8n2X2roEtW85b3Pm5566imdAQCAo2a5yzv8Ip3j5cuX67yYvXv3Dhw4UEtjZ6Tk7YdVrM/Viu/evfvaa6/V0iCuSGzTeQ63kS58Jo/HW05Zh2kdFOmvux8Gi3juEqtXr3a/HWHcoVi6dKmbNvv37y+9Lp13VJaXxr2eh/S0jM2go6Nj4sSJ3rXmEw9nuUlJpCVnuUPp/EXRMVR97qrV6yu2bNnSr18/vd8ePWRLSzyKJW8Q95tdWQ7SxpWXu7wvnmU5J9ZQbDndF0jepDNnzkyMBLNnz3Y/czGSQ/XKy12iu55vrR431xXkX3rpJfddXPGTsppwn2ne3OWezS5LPm/ePJ0BAICjltfV8I7AnH766TNmzIi3lxIGrrjiCi1KCjY1z13CO4QlbrzxxrVr1+rsgHQUFi1a1LdvX60IpDX5UTdCyD1LaNEZ1ZGU4i7nySefLMnE/ZKVRIu3337b+665SMxdwj2EJWRtP/nkk9Kt19kBuX95FHksLQrKEg+OZVnVr7/+uvuI559/vqxVrxMmz0LWmHtOYyTxiXiPK/d/3333ec9i48aNiT/YXSx3lfT6Cq9PKe8F72eF5E93zUixvIg6L49ieSYj91t8krR1aiHFlnPHjh39+/fX/wm2WInc7jslvlVfeuml7nF1j2wnWlc0NRXLXRkft7ueb00e1z0cVPF7Yt5nE/azqKFqcpd79aZzzjlnw4YNOgMAAEctc5e0pu6JbSFpjwcMGCDpRQwdOvTMM8/UGUfFg03efljGeu8T2dDZZ589YsQIWQa59YKZuPrqqxPDjPC+RCSd4969e0vG+Pa3v71r1y4tKiS+nLIOr7vuunAFul/+dqXlLlm38o9adNTxxx8vfam77rpLZl177bXew8lzeeyxxxKP8GRZ1d6XxELyusvCy8MJ2R7cXpq44IILosTunXQamTNnjrvChSy2LLzcoXSS5B6iMCPTH3nkEelKhn/Gu1DSxYzmpvU4y3t946+I3LksvyynvCKXXHJJ9ERCUpyY/CsqNXe566fAd89chZfT+5BCuO8UbxuTSuPQq8iYQwyl5i7RXc+3+sfNdQV591zcYiRB6X3lUU3ukr2T/me2L7UCAFpTLXOXkC7UHXfcoe1PJdK/HDVqlPyL/vNRefth2evnzp0rPQytq0R6k8bnrN7HwJHqP+yU+Dpt2rR4RPTI2rv99tujr6qn5S4hvfZx48Z5vfk0UmZ8fz3jqpY+XPyIXCJJgJKR3O8ypf3cUMZnIetN1p4sQPRCx7tQ7ty0Hmd5r6/Yu3ev9yW0NDfccIN3WC+7vO+jXNye9FnVXVqjmuXM+I6WbCA9Y/2fFPWfu0R3Pd8qHzdK6RU3Fdnao31aYV2fu9yLakhu1KkAAByrxrlLdHR0SMMTXe4sTe/evV977TUp1n9zlJe7hEQp6fJ63ynySO/BO7svkXQmvI+BRfWXGQh5J5t5ZAl/9rOfSR8leuJG7hLhKZTuV+QT9e3bN35OoCv7ql63bp2x/EIS1KBBg8JT7LyrcaR1m2RrkW3m9NNP17oYWf7FixdLpXQio25isdwlSn1942dneTJuhIZSc5dsJO5lQqv5ileVy2m/U4TM9c7kTNQQuUt01/Ot5nGzX0He/e2Ewro4d7lf7pI9hnHVHwBAi6t97godOnRowYIF0npdeOGF0aEbGZE/ZeJ7771nnDqVtx9WoN+2Y8eOyZMnDxgwIDrvUWKARMHBgwfPmjXL7hm4JMXdf//95557rnscppoLN7vCL0HdeuutsmDh/csKvOyyyyZNmhSe6uY+cTt3heQOP/nkk4ceeuiSSy6JevzhizJmzJjly5cnxmBXrlUdLr+83LJsUdDt2bOnrHZ5Clu2bNG6gHtykXTgjHP5ZBmmT58udxKdcikvorxwsjDRRiWdSOlKhnPjXSh3rt3jLPX1FfI0p06d6j4XeV3kT9k4qzybURR4X+TinmpYzaVHql9O2dJk65VtONrS5PWSV01eetkCK27VISkOF0BkySFxXZO7RHc932KP676+Fa8gL4shCxMWF9bFuWvJkiUnnXRS+I+33XZbra7BAwBoPmXlLgDNzT0lrMpTDYHGFR3NOyHzz9MDAFoTuQtAQe61K/laC1rQDucnzgYMGFD425gAgFZA7gJQkHv1ETqdaEHRRw9ya//SPQAA5C4AxUU/R8ZJVmg17e3tgwcPDj52qPCtVAAABLkLQHHS14wuczd8+HDjejlAk1myZEn4w4Mc7AIAZEHuAlCV6CetpQ9ak4vsA/Xv0KFD0a/wDRo06PPMV8EFALQscheAqrgdUA55oUVEB7v4uAEAkBG5C0C11q9f36dPH+mDnnjiiQsXLtSpQJNqb28fMmRI8FFDj/Hjxxu/NQ8AQITcBaAGpk+fHl5g41vf+hbnXKG5zZw5Mzy3duDAgVzGEwCQEbkLQA0cOnRo9OjR0hOV9PXSSy/pVKDpRD+fcMYZZyxfvlynAgBQCbkLAAAAAMpF7gIAAACAcpG7AAAAAKBc5C4AAAAAKBe5CwAAAADKRe4CAAAAgHKRuwAAAACgXOQuAAAAACgXuQsAAAAAykXuAgAAAIBy5ctdT2Sm/2DSUpOWmrTUpKUmLTVpqUlLTVpq0lKTlpq01KSlJi01aalJS01aatJSk5aatNSkpSYtNWmpSUtNWmrSUpOWmrTUpKUmLTVpqUlLTVpq0lKTlpq01KSlJi01aalJS01aatJSk5aatNSkpSYtNWmpSUtNWmrSUpOWmrTUpKUmLTVpqUlLTVpq0lKTlpq01KSlJi01aalJS01aatJSk5aatNSkpSYtNWmpSUtNWmrSUpOWmrTUpKUmLTVpqUlLTVpq0lKTlpq01KSlJi01aalJS01aatJSk5aatNSkpZmRu35DS01aatJSk5aatNSkpSYtNWmpSUtNWmrSUpOWmrTUpKUmLTVpqUlLTVpq0lKTlpq01KSlJi01aalJS01aatJSk5aatNSkpSYtNWmpSUtNWmrSUpOWmrTUpKUmLTVpqUlLTVpq0lKTlpq01KSlJi01aalJS01aatJSk5aatNSkpSYtNWmpSUtNWmrSUpOWmrTUpKUmLTVpqUlLTVpq0lKTlpq01KSlJi01aalJS01aatJSk5aatNSkpSYtNWmpSUtNWmrSUpOWmrTUpKUmLTVpaWbkrt/QUpOWmrTUpKUmLTVpqUlLTVpq0lKTlpq01KSlJi01aalJS01aatJSk5aatNSkpSYtNWmpSUtNWmrSUpOWmrTUpKUmLTVpqUlLTVpq0lKTlpq01KSlJi01aalJS01aatJSk5aatNSkpSYtNWmpSUtNWmrSUpOWmrTUpKUmLTVpqUlLTVpq0lKTlpq01KSlJi01aalJS01aatJSk5aatNSkpSYtNWmpSUtNWmrSUpOWmrTUpKUmLTVpqUlLTVpq0lKTlpq01KSlJi01aalJS01amhm56ze01KSlJi01aalJS01aatJSk5aatNSkpSYtNWmpSUtNWmrSUpOWmrTUpKUmLTVpqUlLTVpq0lKTlpq01KSlJi01aalJS01aatJSk5aatNSkpSYtNWmpSUtNWmrSUpOWmrTUpKUmLTVpqUlLTVpq0lKTlpq01KSlJi01aalJS01aatJSk5aatNSkpSYtNWmpSUtNWmrSUpOWmrTUpKUmLTVpqUlLTVpq0lKTlpq01KSlJi01aalJS01aatJSk5aatNSkpSYtNWmpSUtNWmrSUpOWZlY8d+kkAAAAAICJ3AUAAAAA5SJ3AQAAAEC5yF0AAAAAUC5yFwAAAACUi9wFAAAAAOXKl7sAAAAAACE9JBXQSSnIXQAAAABQhEaugE5KQe4CAAAAgCI0cgV0UgpyFwAAAAAUoZEroJNSkLsAAAAAoAiNXAGdlILcBQAAAABFaOQK6KQU5C4AAAAAKEIjV0AnpSB3AQAAAEARGrkCOikFuQsAAAAAitDIFdBJKchdAAAAAFCERq6ATkpB7gIAAACAIjRyBXRSCnIXAAAAABShkSugk1Lky116lwGdBAAAAAAwkbsAAAAAoFzkLgAAAAAoF7kLAAAAAMpF7gIAAACAcpG7AAAAAKBc5C4AAAAAKBe5CwAAAADKRe4CAAAAgHKRuwAAAACgXOQuAAAAACgXuQsAAAAAypUvdwEAAAAAQnpIKqCTUpC7AAAAAKAIjVwBnZSC3AUAAAAARWjkCuikFOQuAAAAAChCI1dAJ6UgdwEAAABAERq5AjopBbkLAAAAAIrQyBXQSSnIXQAAAABQhEaugE5KQe4CAAAAgCI0cgV0UgpyFwAAAAAUoZEroJNSkLsAAAAAoAiNXAGdlILcBQAAAABFaOQK6KQU5C4AAAAAKEIjV0AnpciXu/QuAzoJAAAAAGAidwEAAABAuchdAAAAAFAuchcAAAAAlIvcBQAAAADlIncBAAAAQLnIXQAAAABQLnIXAAAAAJSL3AUAAAAA5SJ3AQAAAEC5yF0AAAAAUC5yFwAAAACUK1/uAgAAAACE9JBUQCelIHcBAAAAQBEauQI6KQW5CwAAAACK0MgV0EkpyF0AAAAAUIRGroBOSkHuAgAAAIAiNHIFdFIKchcAAAAAFKGRK6CTUpC7AAAAAKAIjVwBnZSC3AUAAAAARWjkCuikFOQuAAAAAChCI1dAJ6UgdwEAAABAERq5AjopBbkLAAAAAIrQyBXQSSnIXQAAAABQhEaugE5KkS936V0GdBIAAAAAwETuAgAAAIBykbsAAAAAoFzkLgAAAAAoF7kLAAAAAMpF7gIAAACAcpG7AAAAAKBc5C4AAAAAKBe5CwAAAADKRe4CAAAAgHKRuwAAAACgXOQuAAAAAChXvtwFAAAAAAjpIamATkpB7gIAAACAIjRyBXRSCnIXAAAAABShkSugk1KQuwAAAACgCI1cAZ2UgtwFAAAAAEVo5AropBTkLgAAAAAoQiNXQCelIHcBAAAAQBEauQI6KQW5CwAAAACK0MgV0EkpyF0AAAAAUIRGroBOSkHuAgAAAIAiNHIFdFIKchcAAAAAFKGRK6CTUpC7AAAAAKAIjVwBnZQiX+7SuwzoJAAAAACAidwFAAAAAOUidwEAAABAuchdAAAAAFAuchcAAAAAlIvcBQAAAADlIncBAAAAQLnIXQAAAABQLnIXAAAAAJSL3AUAAAAA5SJ3AQAAAEC5yF0AAAAAUK58uQsAAAAAENJDUgGdlILcBQAAAABFaOQK6KQU5C4AAAAAKEIjV0AnpSB3AQAAAEARGrkCOikFuQsAAAAAitDIFdBJKchdAAAAAFCERq6ATkpB7gIAAACAIjRyBXRSCnIXAAAAABShkSugk1KQuwAAAACgCI1cAZ2UgtwFAAAAAEVo5AropBTkLgAAAAAoQiNXQCelIHcBAAAAQBEauQI6KUW+3KV3GdBJAAAAAAATuQsAAAAAykXuAgAAAIBykbsAAAAAoFzkLgAAAAAoF7kLAAAAAMpF7gIAAACAcpG7AAAAAKBc5C4AAAAAKBe5CwAAAADKRe4CAAAAgHKRuwAAAACgXPlyFwAAAAAgpIekAjopBbkLAAAAAIrQyBXQSSnIXQAAAABQhEaugE5KQe4CAAAAgCI0cgV0UgpyFwAAAAAUoZEroJNSkLsAAAAAoAiNXAGdlILcBQAAAABFaOQK6KQU5C4AAAAAKEIjV0AnpSB3AQAAAEARGrkCOikFuQsAAAAAitDIFdBJKchdAAAAAFCERq6ATkpB7gIAAACAIjRyBXRSiny5S+8yoJPQ1DbuPDxjefsP39z3yGwZ9nLLbcbbx3+57+fv7l+64ZBuSQDQXGgfuS12S/vYyshdSLbvQOffv9c+ZMquq37yGQNDseF/P7fzybf2rWw7rFsVADQ+2keG6gfax9ZE7kKySQs/D3cNVz+1M9pNMM54gfF7Z+zZ8BlNC4AmQfvIeK3GaR9bDbkLyaL9AgND9cOTb+1rP9Sp2xYANDJv/8bAUM1A+9hSyF1IJvuCAp/cMM542jjnsgNoDvH9G+OMVzNO+9g6yF1IFu0RGBhqMvz83f26bQFAI/N2bgwMVQ60j62D3IVk0e6gwCc3jDMeH3/8l/t02wKARhbfvzHOeDXjtI+tg9yFZNF+gYGhJsMjs2lXADQDb+fGwFDlQPvYOshdSCY7gsKf3DDOeHz8kdl7ddsCgEYW378xzng147SPrYPchWTRHoGBoSYDn+cBaA7ezo2BocqB9rF1kLuQLNodFPjkhnHG4+O0KwCaQ3z/xjjj1YzTPrYOcheSRfsFBoaaDLQrAJqDt3NjYKhyoH1sHflyF1qH7AgKf3LDOOPxcc5fB9Ac4vs3xhmvZpz2sdHpIamATkpB7kKyaI/AwFCTgc/zADQHb+fGwFDlQPvY6DRyBXRSCnIXkkW7gwKf3DDOeHycdgVAc4jv3xhnvJpx2sdGp5EroJNSkLuQLNovMDDUZKBdAdAcvJ0bA0OVA+1jo9PIFdBJKchdSCY7gsKf3DDOeHyc89cBNIf4/o1xxqsZp31sdBq5AjopBbkLyaI9AgNDTQY+zwPQHLydGwNDlQPtY6PTyBXQSSnIXUgW7Q4KfHLDOOPxcdoVAM0hvn9jnPFqxmkfG51GroBOSkHuQrJov8DAUJOBdgVAc/B2bgwMVQ60j41OI1dAJ6UgdyGZ7AgKf3LDOOPxcc5fB9Ac4vs3xhmvZpz2sdFp5AropBTkLiSL9ggMDDUZ+DwPQHPwdm4MDFUOtI+NTiNXQCelIHchWbQ7KPDJDeOMx8dpVwA0h/j+jXHGqxmnfWx0GrkCOikFuQvJov0CA0NNBtoVAM3B27kxMFQ50D42Oo1cAZ2UIl/u0rsM6CQ0KW+nwMBQ5cD56wCag7dzY2CocqB9bB3kLiS78iefMTDUcBjH53kAmoK3c2NgqHKgfWwd5C4k+8aPd8i+gFtua3X78Cw+zwPQDOx9Hbfc5r2lfWwd5C4k+8sf75DhGz/+LBxhnPEqx2lXADSH+P6NccarGad9bB3kLiT7nz+SfcFnwe0OxhPHb5q656cfH7pnzj6jhvFo/Pu0KwCagr2vY1xuaR9zjdM+tg5yF5LJvoAhbbjmuZ3jl7T/ateRcHhh1aGbfrHHq2HwBtoVAM3B27kxuAPtY4GB9rF1kLuQ7PInt1/xox1X/OiLW8bd8Xvf3Dd7R2fUqETDhKXtf/3TncXusxXGx75BuwKgGRTbB7bCOO1jsXHax9ZB7kKyy3+0XXYHlwc7BcbD8RGv7nn508Nec+IND8z7PPF/GaddAdAciu0Dm3uc9rGacdrH1kHuQrK/CHYKchsOLT7+7Rd2PrX8gNeEpA1/v+HwrTP2JN5PK48/9MYe3bYAoJHF92+tPE77WP047WPrIHch2WVPbmeQ4Yqf7Pj+gv1ey5FleObDg4N+vsu7t1YeaFcANAdv59ayA+1jrQbax9ZB7kKy/hO2yb6gxW+/98beVzd3eA1GruGRd/b/5VNf7FWNR2mR2wdn0q4AaAb2vq5Fbmkfa3hL+9g6yF1IJvuCr0/Y1n/C9uC25cb/5uVdz398yGskig2vtXXeOXtvgWVosnHaFQDNodg+sGnGaR9rPk772Dry5S60jv/xQ9kXbA9ut7XU+IBndzz+7m+ugVur4WerDn3n73cbj9v04w/M3K3bFgA0Mntf18TjtI8ljdM+Njo9JBXQSSnIXUgm+4IWHO751b7ZnyVcA7dWw/j32r/53A7vQVtkuJ/P8wA0BW/n1iID7WN5A+1jo9PIFdBJKchdSHbp+K3//Yfb/vsPv7hthfGbfrHr5+sqXAO3NsPOI6Pf2pe4DM09fv/rfJ4HoBkU2wc27jjtY9njtI+NTiNXQCelIHch2aU/3Cq7g0tlpyAjTT3+1z/77MfvZ70Gbq2Gv1t/+ObpexKXp1nH76NdAdAU7H1dM43TPnbNOO1jo9PIFdBJKchdSHZJsFMIbrc26/j/eHLbg/M/9/b4XTk8/eGBb73wWeHlb6zxe2lXADQFe1/XHOO0j105TvvY6DRyBXRSCnIXksm+4OKjQ1OO3zZzzyvVXQO3VsPYhZ/3//E2d9macpx2BUBzKLYPbKBx2scuHqd9bHQauQI6KQW5C8n6PdEm+4KmvB30853PfXzQ27l37zCjrWPkrD3GMjfB7ZjXaFcANAN7X9fQt7SP3XJL+9joNHIFdFIKcheSyb7gvz3R1u+JL3YKTTP+l09ve2xxkR/X75rhp58cvP7lnQWeV0OM064AaA72vq5Bx2kfu3Gc9rHRaeQK6KQU5C4k6/u47Au2BrdtzTH+t3P2zirzGri1Gn6wZP83nt1uP5dGHB/92i7dtgCgkdn7ukYcp33s3nHax0ankSugk1KQu5Csb7A70KHBx4f8YteL62rz4/pdNOw8cvebe6Plr+a518847QqA5lBsH1if47SP9TBO+9joNHIFdFIKcheSXfT4loseb5Nb2SM07vg3n9/+5LLa/7h+1wwvrz/83Vd2FX7u9TZ+zwzaFQDNwN7XNco47WP9jNM+NjqNXAGdlILchWQXPr7lwh9sufDxti9GGnP8oXfr91T17MOPVx68+Edbq1kPdTJOuwKgOdj7uoYYp32sq3Hax0ankSugk1Lky116lwGdhCb1/w92CsHtlgYd/9677ePWHH5uTUOdQeEMM7d33vnhgUs2NsNrIeN3z9ip2xYANDJ7X9cQ47SPdTVO+9g6yF1IJvuCC37wxR6hcW+lXZmw9YgM31958NWtdfFTJNmHcSsO/s91HdKohO2K/Uwb4vYuPs8D0BTsfV1D3NI+1tUt7WPrIHch2dce2yz7goa+jdoVGR7f3PnoioO/3OnvvutweHbNoes+PhS2KOFgPMcGur1rOp/nAWgG9r6uIW5pH+vqlvaxdZC7kEz2BcHwxU6hQcfvWLw/alfC4ZF1HT/+pH5Pq5i2pWP4hwfdFiUcvOfVoON/S7sCoCnE928NN077WFfjtI+tg9yFZOc/uvn8x7Y09O0di3/zeZ47fP+TQy9tPOzt07t9uO/Dg/9jg9+ihIPxHBvodhTtCoCmYO/rGuKW9rGubmkfWwe5C8n+62Ob/+ujmxv6Nv55XjSM33Lk4Y8Ozont3LtlePKTg9esOuy1Je5gPMcGuqVdAdAc7H1dQ9zSPtbVLe1j6yB3Idl5j24679HNcis7hQYdH5neroTDYxs6xq886O3lu3L4+frDQz5KOHHCG4zn2EDjd75KuwKgGdj7uoYYp32sq3Hax9ZB7kKycx/dJIPsDsKRRhyv2K6Ew8NrDj+/tqtPq5jz2ZG/TTpVPXHwnleDjtOuAGgO8f1bw43TPtbVOO1j6yB3Idn/84jsCzY39G3GdkWGH2498v0VB1/b3unt/UsaHl158Mqj18DNMhjPsYFuv/fqZ7ptAUAjs/d1DXFL+1hXt7SPrYPchWSyLwiHPkdHGm48e7sSDo9v6nxs5cFfxpqBGg7Prz10/cpjroGbZfCeV4OO064AaA7x/VvDjdM+1tU47WPrIHch2TnjNsoeoaFvb8/ZroTDuHWHn15d+2vpztjacXuGU9UTB+M5NtDtHa/QrgBoBva+riFuaR/r6pb2sXWQu5BM9gXB8MVOoUHHb/91kXYlHL7/8aGpW2r2E/4Prjhweay1yD54z6tBx+/g8zwATSG+f2u4cdrHuhqnfWwd+XIXWsfZ4zaePW7T2Q8Ht405Xk27IsP4LZ3jVlR7Ld0frzr4LfMauFmGAs+9DsdHvrJDty0AaGTF9oF1NU77WFfjtI+NTg9JBXRSCnIXkv2XcRv/y8MbG/r2turalXB4dH3HDz8pci3dv9t4+Kb8p6onDsZzbKDbkZxHAaAp2Pu6hrilfayrW9rHRqeRK6CTUpC7kKz3wxtkX/DF7bjgtgHHa9KuhMP3Vx96YX2Oa+nes6LgqeqJg/EcG2j89ml8ngegGdj7uoYYp32sq3Hax0ankSugk1KQu5Ds//fwBhl6P7wxHGnE8dt+/bnXPFQz/LDtyNgVB2fv9JsQb3j8k4N/lecauFkG73k16PjtnEcBoCnE928NN077WFfjtI+NTiNXQCelIHchWa/vy75gY0Pf1vDzvGj4wcYvrqXrtSXhMHn9ob/5uDYnTniD8Rwb6PY2Ps8D0BTsfV1D3NI+1tUt7WOj08gV0EkpyF1IJvuCRh9urennee4wbu3hZ9f85lq6M3d0fq+mJ054g/e8GnS4lXYFQFPwdm6NONA+1tVA+9joNHIFdFIKcheS/eex68/6/oazgtsGHS+vXQmHsSsPTtva8f2PD/7PTX5LUNuhwHOvw/ERv6BdAdAMiu0D62qc9rGuxmkfG51GroBOSkHuQjLZF3wxBDuFBh2/dVG57crkHUcmbekctuXIpbGWoLaD97wadHwEn+cBaArx/VvDjdM+1tU47WOj08gV0EkpyF1IduYX+4INcntmcNuI4+W1KxO3HXnlsy/OoJB2Rf4c13bk+s1+Y1DDwXiODTQ+/BfbddsCgEZm7+saYpz2sa7GaR8bnUaugE5KQe5CsjPGrtfhoUa9HVFCu/LjrUf+boeeth61K+Ewuu3IX5VzQoXxHBvolnYFQHP4Yp8WDpX2e3V7S/tYV7e0j41OI1dAJ6UgdyHZf3roU9kdNPRtzduVKduPzD7aosTblXC4fcuRy2MNQ5WD8Rwb6PaWqbQrAJqBva9riFvax7q6pX1sdBq5AjopBbkLyf7TQ+tPf+hTuZWdQoOOD69du/L89iOvJf0ySbxdkWH81iNDtvhtQzWD8RwbaPwWPs8D0BTsfV1DjNM+1tU47WOj08gV0Ekp8uUuvcuATkKT+o8Pfnr6Q+sb+rYm7crT2478IjhVPXFIbFfC4aG2I9fW6LQK4zk20O3NfJ4HoCnY+7qGuKV9rKtb2sfWQe5CMtkXNPpQZbvyZNuRl7b7DYk3GO1KOPxt25Grqm5dvOfVoAPtCoDm4O3cGnGgfayrgfaxdZC7kOy0B9ad9uCnDX1bTbvywo4jb8RakfjwXKV2JRyGbzny9VhrkX0wnmMD3Q6buk23LQBoZPa+riFuaR/r6pb2sXWQu5Dszx/49M8fWPfnDwa3jTl+yzv7vP17luG57UemJ52qnjhkbFdkeHTrkRuKXku3wHOvw3HaFQDNodg+sK7GaR/rapz2sXWQu5CsZ7A7aOjbW97J93neT7Ye+XvnGrhZhuztSjjct+XIwPynVRjPsYFub/p72hUAzcDe1zXELe1jXd3SPrYOcheSyb7g/35gXUPf5vo878XtR+Zk/hgvGvK2K+FwR9uR/5mndTGeYwPdDqVdAdAU7H1dQ9zSPtbVLe1j6yB3IdlX718r+4KGvs3Yrvx0x5HXYw1GxqFYuxION2U+rcJ4jg10S7sCoDnY+7qGuKV9rKtb2sfWQe5Csq/ev+7P7l8rt7JTaNDxmyu1K89uO/JK+jVwswzVtCsyfL/tyLcztC7Gc2yg8e/SrgBoCva+riHGaR/rapz2sXWQu5Ds1PvW/tn96xr61mhXfrT1yMs5T1VPHKpsV8LhnrYj3zRPqzCeYwPdDvm7rbptAUAjs/d1DXFL+1hXt7SPrYPchWSyL2j0Ia1deWHHkdmxFqLYUJN2JRxu3XLksliLEg7e82rQgXYFQHPwdm6NONA+1tVA+9g6yF1I9h/uXfMf7lv7H+5bI3uEBh0fFmtXJm0/MiP/l4ONoYbtigyPbz3ynaTTKgo89zoc/w7tCoCmUGwfWFfjtI91NU772DrIXUj27+9b++/vXdPQt8MW/qZdeXrbkV9Ud6p64lDbdiUcHmg78q1jT6swnmMD3dKuAGgO9r6uIW5pH+vqlvaxdeTLXWgd/1ewO/ji9t7gtgHHo8/zfl6LU9UThzLalXAY1XbkyqOti/EcG2j8xpdpVwA0A3tf1xDjtI91NU772Oj0kFRAJ6UgdyGZ7AtOuXdNQ98OW7hv8vYjb9T0xAlvKK9dCYebNx/570G7Yj/ThrilXQHQHOx9XUPc0j7W1S3tY6PTyBXQSSnIXUj278asln1BQ9+OnLdndpmNigwTS25XZLh55UHjOTbQ7d+83KbbFgA0Mntf1xC3tI91dUv72Og0cgV0UgpyF5L9uzFf7A4a/fbMRz998uMDXmNQw6HUz/PuWd/Rd+oO49k11i3tCoDmYO/rGuWW9rF+bmkfG51GroBOSkHuQrKTR68+ecya5rj9i59teWlzh9ck1GQoqV15tO3IgLl7jWfUiLc3vES7AqAZ2Pu6xrqlfayHW9rHRqeRK6CTUpC7kOz/O3p1kw23/GrX67X+AnEZ51HcuPzAqWPXegvfBAPtCoDm4O3cmmCgfezegfax0WnkCuikFOQuJDvpnlWyLzgp2CM0zfip9699dPl+r22oZqhtu/K9tYfPm9xW4Hk1xPhg2hUATaHYPrDOx2kfu3Gc9rHRaeQK6KQU5C4k+9PRq//0nlWyX/hipLnGL3x60+T1h70WothQq3Zl7ObOy2ftMpa5Ccavp10B0BTsfV1Dj9M+dss47WOj08gV0EkpyF1I9m/vWSW7gya+HTTjs+nbO712Iu9Qk3bluiX7jeVsmttBP9+i2xYANDJ7X9cEt7SPXXxL+9joNHIFdFIKcheSyb6g6Yc/HbP6gSWf/zLWWmQfqmxXRnxy6MyfbPKWqlkH2hUAzcHbuTXlQPvYlQPtY6PTyBXQSSnIXUj2b+7+5E/uWfUnd6+S2+Ye/y/jN0xcd9BrMDIOhduV+zZ2XvzqjsTladbxb9OuAGgKxfaBjThO+9g147SPjU4jV0AnpSB3Idm/ufuL3UFwGw5NPj7g77dNy39aRYF25QdtR/5q4d7Cy9m447QrAJpDfP/W3OO0j2WP0z42Oo1cAZ2UIl/u0rsM6CQ0qX991yf/+u5VLXX7b+5Zdec7e2bl+Qn/iVs6vGbDHoZ+eODURz81lqGJb697kXYFQDOw93VNeUv7WOot7WPrIHch2Yl3f3LiXUeHVhrvOW7tk6uy/oR/9nblrk87zpuy1XuslhqnXQHQHIrtA5tgnPaxpHHax9ZB7kKyf3XXx7Iv+FfBfqEFx78+ecvLbZV/wj9Lu/LwliNX/HJ3gWVosvFrX9ys2xYANLJi+8CmGad9rPk47WPrIHchmewR/uXffvzFbbB3aMFx2RXe/Nbu1z/z2xJ3qNiuXL9s/5/cu7rwMjTTOO0KgOZg7+taYZz2sbbjtI+tg9yFZP+fv/1Y9gjc/umYVY9+1O41J9FgtCu3rzl01rObjHtutdv/PYV2BUAzsPd1rXNL+1irW9rH1kHuQjLZFzBEw9ee3vjCpoSf8E9sVx7Y3Hnpa59598BAuwKgOXg7txYfaB+rH2gfWwe5C8n+xaiV/+fffvx/jvpYbhkPx69/47PpO465lu7Ezce0Kz9sOzJw0b7E/2X8W7QrAJpCsX1gc4/TPlYzTvvYOshdSPYvRn2xOwhuw4HxL4YT7/n4/qW/+Ql/t125ecXBP3tivVfPeDROuwKgOcT3b4zLQPtYeJz2sXWQu5DshDu/2Clwm3jba/z6iZ8eitqVe9Z3fO3vthn13MrtX7+wSbctAGhk9r6uxW9pHwvc0j62DnIXkv3xqJV/fOdKbo3bb07b9vTGw9+Yt8eo4Ta6HUi7AqAp2Ps6buWW9jHXLe1j6yB3Idk/v3OF7Av+ebBTYJzx6sevoV0B0BSK7QMZZzxtnPaxdZC7kEz2CF/53gq5DQfGGa9ynHYFQHOI798YZ7yacdrH1pEvd6F1/LPvrfjKnSu55bZWt//rZ7QrAJqBva/jltu8t7SPjU4PSQV0UgpyF5LJvoCBoYYD7QqA5uDt3BgYqhxoHxudRq6ATkpB7kKyf3rHR//0eyv+6R1f7BEYZ7z68b/62UbdtgCgkRXbBzLOeNo47WOj08gV0EkpyF1I9kd3rPijOz4KbsOBccarGqddAdAc4vs3xhmvZpz2sdFp5AropBTkLiQ7PtgpHD8yuGWc8arHvzmZdgVAMyi2D2Sc8bRx2sdGp5EroJNSkLuQTPYFfzjyI265rdUt7QqA5mDv67jlNu8t7WOj08gV0EkpyF1I9k9Gfij7gn8y8qM/vENuGWe82vEBtCsAmkKxfSDjjKeN0z42Oo1cAZ2UgtyFZLJHkN1BcBsOjDNe1TjtCoDmEN+/Mc54NeO0j41OI1dAJ6UgdyHZP779w3888qM/CG4ZZ7z68at/ukG3LQBoZMX2gYwznjZO+9joNHIFdFIKcheSyR6BgaGGw1W0KwCagrdzY2CocqB9bHQauQI6KQW5C8mOu+2D427/8LjbvtgjMM549eO0KwCaQ7F9IOOMp43TPjY6jVwBnZSC3IVk/+i2D/9RsDsIRhhnvNrxK2lXADQFe1/HOON5x2kfG51GroBOSpEvd+ldBnQSmtT/cdsHsjvgltta3X7jedoVAM3A3tdxy23eW9rH1kHuQjLZF/z+rR9wy22tbmlXADQHe1/HLbd5b2kfWwe5C8n+4a3LZV/wD2/94Pdvk1vGGa92/C+fX6/bFgA0smL7QMYZTxunfWwd5C4kkz2C7A6C23BgnPGqxv+Sz/MANIX4/o1xxqsZp31sHeQuJPu9Ect/79YPuOW2Vrf/cxKf5wFoBva+jltu897SPrYOcheS/e6I5QwMNRxoVwA0B2/nxsBQ5UD72DrIXUj2D4a/L/uCfzD8iz0C44xXP34F7QqAplBsH8g442njtI+tg9yFZL8zfPnvDH//H4yQ23BgnPGqxgdM5vx1AM3A3tcxznjecdrH1kHuQrLfHv6+7A645bZWt3fObNNtCwAamb2v45bbvLe0j62D3IVksi/Q4ZajI4wzXsX4jJV7ddsCgEYW378xzng147SPrYPchWRfvmXZbw1//7dueV9uGWe8yvG/fnHj3gMdum0BQCMrsA9knPG0cdrHlkLuQrLvTtssu4Mv3yI7hXBgnPGC4xf8aM37W9p1wwKABkf7yHitxmkfW02+3IXWsXP/4btntf3JvSu+dMv7X7r5ix2E3DLOeK7xf3LHBwNf3Dh37ee6VQFA46N9ZLz6cdrHZqKHpAI6KQW5C5YP29q//9a2b76wof/ET5t4+Mbjc7t+uOzpT7zFaKbhGz9df8frW6av2KNbEgA0F9rH8gbaRzQWjVwBnZSC3AUc+c53vnPjjTfKbahrxtesWaMPDwBAXYrarFDXjNM+orFo5AropBTkLrS6zs7O73aHtWvX6hIAAFB/aB+BLDRyBXRSCnIXWp20Kzd1B9oVAEA9o30EstDIFdBJKchdaHUdHR03dwfaFQBAPaN9BLLQyBXQSSnIXWh1hw8fHjFixPDhw7v4lnYFAFDPaB+BLDRyBXRSCnIXWt3BgwdvPeq2227TsfLH+d4wAKCe0T4CWWjkCuikFOQutLr29vaRI0fefvvtXXy7evVqXQIAAOoP7SOQhUaugE5KQe5Cq9u/f/8dd9zxvaO6bHzVqlW6BAAA1B/aRyALjVwBnZSC3IVWt2fPnlGjRt15551dfPvxxx/rEgAAUH9oH4EsNHIFdFIKchda3c6dO+/qDh999JEuAQAA9Yf2EchCI1dAJ6XIl7v0LgM6CWhw27Ztu6c7vP/++7oEAADUH9pHoLbIXWh1W7ZsGdMdli5dqksAAED9oX0EaovchVa3bt26+++//76jumz8nXfe0SUAAKD+0D4CtUXuQqtbuXLlA91h7ty5ugQAANQf2kegtshdaHVLly4dO3bsQw891MW3s2fP1iUAAKD+0D4CtUXuQqtbtGjR97///YcffriLb2fMmKFLAABA/aF9BGqL3IVW98tf/vKRRx4ZN25cF9++9NJLugQAANQf2kegtshdaHWvvvrqY4FHH300HBFdMP7888/rEgAAUH9oH4HaIneh1f385z9//PHHf/CDH3Tx7Y9//GNdAgAA6g/tI1Bb5C60uqeeemp8N9m/f78uBAAAdYb2Eagtchda2ueffz4h8MMf/jAcEV02vmnTJl0OAADqCe0jUHPkLrQ02bP/qPt88MEHuhwAANQT2keg5vLlLqDJLF269Cc/+clTTz3VLbdvvvmmLgcAAPWE9hHISA9JBXRSCnIXWtobb7zxdPfhUrkAgPpE+whkpJEroJNSkLvQ0l544YVnn3124sSJ3XV74MABXRQAAOoG7SOQkUaugE5KQe5C69q6detzzz03adKkbrxdvXq1Lg0AAPWB9hHITiNXQCelIHehdS1evPinP/3p888/3423nMIOAKg3tI9Adhq5AjopBbkLresXv/jFz7rbiy++eOjQIV0gAADqAO0jkJ1GroBOSkHuQotau3btCy+8MOWobhznarkAgPpB+wjkopEroJNSkLvQombMmPHz+jB16lQ+0gMA1AnaRyAXjVwBnZSC3IVWtHLlypfryXvvvadLBgBA96F9BPLSyBXQSSnIXWg57e3t06ZN+/t6MnXq1N27d+vyAQDQHWgfgQI0cgV0UgpyF1pLZ2fn3Llzf/GLX0jTIrehehifM2fO4cOHdSkBAOhatI9AMRq5AjopBbkLrWXJkiWvvPLKq6++Kreh+hlfuHChNHu6oAAAdCHaR6AYjVwBnZQiX+7SuwzoJKBxLF++fPr06TNmzKjb28WLF3d0dOjiAgDQJWgfgS5A7kJLOHz48JIlS1577bXXX3+9zm8XLlx48OBBXW4AAMpE+wh0GXIXmt+OHTveeuutmTNnvvHGGw1x+6tf/WrLli269AAAlIP2EehK5C40s717977//vuzZ8+eNWuW3IYaZXzJkiWfffaZPhMAAGqH9hHoeuQuNKH9+/dv3rx52bJlc+bM+eUvf9nQt4sXL964ceO+ffv0uQEAUBTtI9CNyF1oErt375b974cffjh//vw3m9Hbb7+9fPnyTz/99LPPPuOKugCAjGgfgTpB7kID6+jo2Lp160cffST73Hnz5s09qhXGly1bJu1oe3u7rgsAAI6ifaR9RB0id6FRrV69WpoTvP/++/v379eVAgBoebSPIdpH1BtyFxrPgQMHli1btmDBgoULF3Irt4sWLeIbxgAA2kfvlvYRdYXchQaze/fuxYsXv4OYDRs26DoCALQe2sc0tI+oE+QuNJLDhw+/++67uh99551FixbpGOMBPtUDgNZE+6hjKeO0j6gH5C40krVr14Y7UCR67733Ojo6dGUBAFoG7aON9hH1IF/uArrRvn37dPdZxSdeornH169fr+sLANAaaB9D9jjtI0qih6QCOikFuQsNY/Xq1eEOFIbFixfr+gIAtAbaxyxoH1ESjVwBnZSC3IWG8f7778t+s9inXKEWGedHSwCgpdA+ZhynfUQZNHIFdFIKchcaQ0dHh+44Ucn27dt1rQEAmh3tY3a0jyiDRq6ATkpB7kJj2L17d4FPtnSsxcY//fRTXWsAgGZH+6hjGcZpH1EGjVwBnZSC3AUAAAAARWjkCuikFOQuAAAAAChCI1dAJ6UgdwEAAABAERq5AjopBbkLAAAAAIrQyBXQSSnIXQAAAABQhEaugE5KQe4CAAAAgCI0cgV0UgpyFwAAAAAUoZEroJNS5MtdepcBnQQAAAAAMJG7AAAAAKBc5C4AAAAAKBe5CwAAAADKRe4CAAAAgHKRuwAAAACgXOQuAAAAACgXuQsAAAAAykXuAgAAAIBykbsAAAAAoFzkLgAAAAAoF7kLAAAAAMqVL3cBAAAAAEJ6SCqgk1KQuwAAAACgCI1cAZ2UgtwFAAAAAEVo5AropBTkLgAAAAAoQiNXQCelIHcBAAAAQBEauQI6KQW5CwAAAACK0MgV0EkpyF0AAAAAUIRGroBOSkHuAgAAAIAiNHIFdFIKchcAAAAAFKGRK6CTUpC7AAAAAKAIjVwBnZSC3AUAAAAARWjkCuikFOQuAAAAAChCI1dAJ6XIl7v0LgM6CQAAAABgIncBAAAAQLnIXQAAAABQLnIXAAAAAJSL3AUAAAAA5SJ3AQAAAEC5yF0AAAAAUC5yFwAAAACUi9wFAAAAAOUidwEAAABAuchdAAAAAFAuchcAAAAAlCtf7gIAAAAAhPSQVEAnpSB3AQAAAEARGrkCOikFuQsAAAAAitDIFdBJKchdAAAAAFCERq6ATkpB7gIAAACAIjRyBXRSCnIXAAAAABShkSugk1KQuwAAAACgCI1cAZ2UgtyFVG+++WaPo771rW99/vnnOgP14dlnn9WXp0ePO++8U6d2qyVLlpxyyin1szwAkEsd7lcbgqwrXWtJ6036D9KL0Nk9ekjvQmcgZv369X369JG1RL+rgWjkCuikFOQupCJ31bl66x/s3bt34MCB9bM8AJAXuasYcldNHDp0aNSoUeFaot/VQDRyBXRSCnIXUpG76lxd9Q+ktRg9erQuDf0VAI2J3FUMuat6nZ2dEydOPO6448K1RL+rgWjkCuikFOQupCJ31bn66R94rYWgvwKgEZG7iiF3VW/27NknnniiriP6XQ1FI1dAJ6UgdyEVuavO1Un/QELXlClT3NZC0F8B0IjIXcWQu6o0d+7cr371q7qCAvS7GohGroBOSpEvd+ldBnQSgBZ26NChCRMmuEe6QvRXAKB12LkLhs7OzmnTpnmfXQpyV1MidwEoaPfu3TfffLM2Ecei3QWA1kHuKqa9vf3hhx+Of3YpyF1NidwFILfOzs633nrr9NNP1/YhcMIJJ+gY7S4AtBJyVwEffPBB3759da0F3GaU3NWUyF0A8lm9evU3v/lN9/M5GR8zZsyTTz6pf9PuAkArIXfl0tbWNnz48OOPP15XWeD666+fNm2a/kHualLkLqSqeF2NvPtZu17uXx4lnPu1r31t27Zt4XQZke2tb9++4R5KbmVcpmzZsiUsiHR2dkokkABw7rnnhqng5JNPvvzyy2VHZuy80h537dq17l2deOKJl1122aRJk3bt2hUWeHbv3n3llVeG9yNefvllnZFkzZo1Z511lpb26PHUU0/pjCRu8QUXXLB169Zwuv3977TnJcsvz0JWi6yccO6ZZ545ePBgebkPHToU1hjkfuTewn8Myf288sorsvL5PjqARmfvx7wdYMXrQ1SsdwvcdjZ7A9TR0bF06dJbb71V9uTh/fTs2fOaa66xd+lu+y5POZzY3t4+Y8aMAQMGuK2D3LPcvzxKWJMme/susq8Haeilue/Xr1/49SdZG717986ySPbyxKXVHz58+N5779UZAflTJursJNOnTw9ftdDo0aO9F8JbG0I6Nj/5yU+kzH1d3PWApkHuQqqK7/9a7ddC7p5I9r+yF5Y24JFHHvE+EIpE+6nw3yX2DB8+3N3ZuXr16rVo0aKw0lPgcR988MHEvaFM16IePW655RZj1yzr1l3UG2+88cCBAzovRhpCrevRY9SoUZJwwul5c5esq+eeey5qUONOP/30t956K7r/RG7rKE9h2LBhbW1t4SxyF4BG1+25y27Los+5wn/ftGnTX/3VX+m8mEsvvXTNmjVhpcdt38PcFT/nzSWzFi9eHP5vouztu8iyHoQ0qWkNsZBFkmXW/4+xlyfOqJc2Ttakzgsy8MKFC3VezPr16/v06aOlwUsQNZERb21cddVVq1evDme5r0u4HsLpaBrkLqSq+P6v4X5NuHsi2f+uXbv2hhtuCP9MIy3TxIkTpQXavHlz//79dWoKaa7eeecdfTCH97gbNmy4++67wz8NV155ZXxnKmssaizdA1NxbkITRrE8u+jX64VkMJ2RM3fJ+pS2PPzTII3cpEmTjOgVtY7S5kmUdSvJXQAaXffmrlWrVlVsy6TfP3v2bPnfDz/8sFevXjo1xTnnnJMYvdz2XZ7y0qVLzzjjDP07hTzulClT0lqH7O27qLgepMFyzx9JI836nDlz9C6OZS9PnF0vCxwecAtJUko88+XQoUNuO3vKKacsWbJE5zmitXH66ae/9tpr7oE793WRGqnUGWgW5C6kqvj+r+1+zd0v9+7de/DgweG4kH3r0KFDR48eLbc9e/bUqYGvfvWrkqauu+46/btHj3PPPVfuXIplr+19VDZgwIC9e/fq4x3lPu5555133333heNC/l3uRO5K7lDuVqceJQ/q3ZtkNmnkwrknnHBCYswT+/btu+aaa8Ky0EknnZS4dxY7d+78+te/HpbJnctD6Iw8uctbn9J+XH311fK87rrrLmnjvbUkq1Sac72XGGkdBw0a9MYbb8TP8SB3AWh03Zi7ZG/8jW98IxwXEoRGjBghO2ppa7zzFPr16ydNxsUXXxz+edxxx11yySWyPxcy4h0ru+222+InX7jt+z333HPRRRfpH87jXnvttW7YEFHki5N1pUWV2iORaz3Ic5c1EDbEF1xwgffsZFXEv3Qg7OWJs+slbY4dO1ZnB5555pl4BH3ppZfcxUusEbI2ZA2/8MIL7e3tOumoiv0uNDpyF1JVfP/Xdr/m7ZdDkgGmT5/unhst+ynvB6Oi6/9cccUV0cH6UFtb28CBA8O5Qirnz5+v845KfFy5f/cMOiF7zxUrVrgnGwjvPG8Zv+WWW3Sec9K8x/tyV+j555/X2ceS8BY9Qe90xOy5KyINmLQE3kspT9MNruKBBx5I+1DTQO4C0Oi6MXdFzj///IULF7qfbe3du3fkyJE6OxC1C9/97ne9ky8++eQTL0etWrVK5x3ltu+R+OEXaSyefPJJ97M5uTdpCnW2I1f7nnE9yPLMmDHD7QAIeXZeQzxlyhSd57CXJ65i/Y4dO9xDkfH1IN0P9/Bj/JPZLCr2u9DoyF1IVfH9X9v9mrdfFrJfW758uc52SPRyj96E0vZxmzZtclugBx98UGccFX9cCV0S7bx9fWj37t3XXnut1gVnESxbtkznBV5++WWdl/6tLff7WpG074M9/vjjWhFrXfLmLlmfS5cu1dnHklXnRi/7JMk05C4Aja7bc9fFF1+8efNmne2Qfr+XN8To2DUbQtJ0fvWrX9WipOs8ue17SBrKxDMSOzs7Z86c6R74SjyAlqt9z7ge1q9fr7OPJesnOtYnuqB/EpIw7K6HIUOGRAesZAEGDRqkM9LTaUUV+11odOQupKr4/q/tfs3bL4vED7FCXnTp1auXd6TL5X6ZKp6F4o87atSoxJYs5AU579DQhx9+GLV23mmBkej7Y2efffaFF14Yjst9SrOqFUe5yxY//S9X7pIw+dJLL+m8JPPnz48+QD311FON7yunIXcBaHTdm7sST8qIuB/Dif79+8dbjZA0c9LYaV3SB45u+y6kfUn8lDMkbdwzzzyjpUGoiB9Ay9W+V1wPEm+Ma1cI6R5oafAFgfjXre3lictSL+vBPdtQWtXp06eHsyZNmhSdhlOxtTVU7Heh0ZG7kKri+7+2+zVvvyx70o0bN+q8GDfeCPcqf3HuMaj4E/EeN7FF8bgNs3doyL2avOx8582bpzOOcgtksaNMmPgVL/eMxPiX03LlroqHsNwvp4l4u1gRuQtAo+ve3JX4JeSI2ygLWVSdkcT9wDH+RLy7qnhu+ZYtW/r166fVSQ8tD6HzMrRHFddDvKX2SHMpjWZYHP9QUtjLE5exfteuXVdddZXWHb1c4YoVK6TnoJMqfXRrc1+XiisBjShf7kJLqfj+r+1+zdsv25dW90KCe5W/OPuJeI+beAaFx41DJ8Sun+G2do8//rhOPcpNjBII3QN38VNB3Lnxu8qVu+zr2gs3EIp4u1gRuQtAo+ve3BU/MOVyw4ZxNaaQ/UTcZjF+wnwit2mLN9DyEDovQ3tUcT3E2zuP2wfoytwlZLXLGtPS4CVzz9JPO000I/d1iXdXULf0kFRAJ6UgdyFVxfd/bfdr3n7Z3u26++h48vHYT8R7XDvChbwLEnqXxHBP2Is/XBSlwqbigw8+OPXUU8MpI0eOdD9xdK/Skfgcc+Uu+6eZhVcfbxcrIncBaHTdm7vsBsj92O6ss85K/DpWJHvuuvLKK3fv3q0z0s2ZM0f/IenEeHkInZehPaq4HtKuDh9x67s4d0kzPX78eC09lnG9x4zc1yXef0Dd0sgV0EkpyF1IVfH9X9v9mrdfljZDZySpuM912U/Efdzs32synsvWrVsvuOCCcJbXNMr+Ovoxrq9//es7d+6Upiv6tlg4RUuPvR9vVihX7kq7XmLEq4+3ixWRuwA0uu7NXfYdurlL/kv+V2ckyZ67vI/80riPHm925SHCWaJie2Svh8RT9D1ufRfnLuGdbRjxLnFcgPu6xLsrqFsauQI6KQW5C6kqvv9ru1/z9sv2x34V97ku+4m4j5v49dxE7vebvVP43ONUwv3czv0xrvA7aW6x90TcK8gnnnyfK3fF2zlP3vo4cheARteNuaviqYNu8pH/kv/VGUmy566KZ0OE3FP74osqDxHOEgXao1xtuqhYby9PXN5674qRIu3HlHNxX5d4dwV1SyNXQCelIHchVcX3f233a7n6/bn20fYTcR+3YksWcZu0+H26V/Jwz9d3W83o21zPP/98OEW4aTOKdscdd1zi2iB3AUBtdWPuqtiWuS1IxdYqe+6SSp1qsp+LPITOKNQe5VoPomK9vTxxees7Ojruuece/YfAY489luWwoc19XeJdC9QtjVwBnZSC3IVUFd//td2v5er359pH20/EfdyKLVnEbdLi9+m2ju6p81Eec5fZ/ap0dGHGvXv3DhgwIJyYdmlHu1nNtT5F3vo4e3kAoP7Z+zE7e8RVrM/VlrktS8XWyn4ibrMolTrVZD8XeQidUag9yrUeRMV6e3ni8tZ7V9cQ8qd9uDIL93WJdy1QtzRyBXRSCnIXUlV8/9d2v5ar359rH20/EfdxK7ZkEffKTvHn4qamaPEkUI0cOTKc6H5fy/2KVxTS3PY17VKE5C4AqC1yVxr3Qr7xRZWHCGeJAu1RrvUgKtbbyxOXqz7t+13Vn2rovi7x7grqlkaugE5KQe5Cqorv/9ru13L1+3Pto+0n4j7uaaedtnLlSp2Rzk1QIvHKv+4XwMKzB+Nf7gor3a94RQvgnqkYv758iNwFALXVgrnr7rvv1qkm9+q78aspykOEs0SB9ijXehAV6+3licteL223ez3DEwL6R48eY8eOjRr3AtzXJd5dQd3SyBXQSSnIXUhV8f1vH/Px7N+/3/2Ni3h9rn5/rn20/UTcx5W9p31J+pD3U1eJuci9KkaYstzzCb1/cRtICWluEjMuFkzuAoDasvdj7sdnouJ+cuXKlaeddppWV503Sspd9q9lRqRt0n9IusSuPITOK9Qe1Tx31bZ/4vLOMHwqoH8El5JfuHChlubnvi7x7grqlkaugE5KQe5Cqorvf3e3XvFCtO7ZdKLAftlVUu4SEyZM0Bnp3MYv7dHjV4FP/HJXyI1k0lq4/2vsecldAFBbufarFX9mat68eccdd5xW12vuSvsKsUva9+hHUIR7ykZIHkLnFWqPap67ats/iUhl//79ta5Hj4EDB+7du9c77VAKpEz/ISf3dTFaf9QbjVwBnZSC3IVUFd//7n7tmmuu2bdvn85I4h7/EQX2y67ycteAAQNkN6rzUkg20+r0eveYlWSqX//619Gf8U8K3aAla/LVV1+NmmpZyVoUk6t/YK9Pkbc+zl4eAKh/ufarFa/A7h51EfH9aj3kLmluXn/9dZ2RQoKZxDOjXh4inCsKtEel5q7q+ychCW9jx47VomMvpLFw4cITTzxRZ1RxtqH7usgak/WmM1DfNHIFdFIKchdSVXz/u2cdnHHGGatWrdIZMYcOHRo+fLiWBgrsl13l5S5pUV566SWdl2T16tW9evXS6h49pkyZojNi3O9oPfzww4lf7gp5JxZKIxGOy2592bJlWhRD7gKA2rL3Y+6+WgwePLi9vV3nxaxfv75Pnz5aGojvV+shdwn7EI2XNy699NJ4sTyEzi7UHtU8d9W2fxIywpVsGPfee6/OqOJsQ/d1iXdXULc0cgV0Uop8uUvvMqCT0Lwqvv/dNkCMHj1a9l86z9HR0fHMM8+451qIAvtlV3m5S8g+Ou1bXm1tbe43u/r167dlyxadF+Ne/UnuM+3LXSG3jYy416CPI3cBQG1V3I+5BdK9nj17ts44luy6r732Wq07Kr5frZPcJe644w6vcQxJtJgyZYqbN+SedZ5DHkJnF2qPap673HUlquyfCO8MQwmf0h/QeYFNmza5JyvGC7JwX5d4dwVNgNyFVBXf/96eVPZc9913n3fS3caNG4cNG+bt1ESB/bKr1NwlTj755IkTJ7ofZErbs2jRovPPP18rguc7ffp0nZ0k8Z7Tltb9ilck8UqJEbtZzbU+Rd76uIr9FQCocxX3Y16HXsZnzJgh3XedHXTlFy5c2LdvX61wxPer9ZO7xFVXXbV69WqtCEiDLs2624KnXSpdHkIrCrVHNc9d3iNW2T/xjvil5W3pErj3du+99x5O+g0Yg/u6yPLLs9AZaBbkLqTK8v6fM2eOe1a0kP3RtddeO3r0aNlzXXDBBdE+SKY/8sgjUZtRYL/sKi93uU9H0td1110nz2XEiBFnnHGGTj0q7fMzl3s1+VD8y10h9yteIVkS++KK5C4AqK2K+zHpSd99991acZQ0ENJMSKMwdOjQnj176tQePS6++GKZqH/Ua+76yle+ErXUMiItkdTLYl955ZXHH398OD0kT3P58uV6F8eSf9GiQu1RzXOXqGH/RBZYasK5YtSoUYmtv3fKovxL3pbUfV3i3RU0AXIXUmV5/8teZty4ce4HPIlk7zNt2jS3zSiwX3aVl7smT57snkuQSJ6vPOuKoUt439YV8S93hbyvDQhpFSSM6ewk5C4AqK0s+zHvhPM0F1100Zo1a9w7jO9X6yF3DRw4cMKECV7Eijv//PNXrFih/x8jD6F1hdqjMnJXrfon8nJfeuml4SzRp0+f9evX67wY7xvgec82dF+XeHcFTYDchVQZ3/8dHR2vvfba6aefrqUxffv2Xbx4sVQa+zWRq99fXu6S4t27dw8fPjxtZy1PZ9GiRYnZKS5+FCvxy10ht5kUaQktYjerudanyFsfl6W/AgD1LON+bO/evQ8++GBaVpHmY9iwYdu3b5dK9w7j+9V6yF2y55en89Zbb6W14/I05cl6J+l55CG0ulB7VEbuEtX3T7wLZsgra195S0yaNMntP+Q629B7XbzuCpoAuQupcr3/Ze706dMHDBgQnWJx5plnDh48WO4kOi6Utl8L5er3l5q7ZKIEnuXLl996663u05E/33nnHfc8/orkfiQ+hfcg7EX1vuI1Y8YMnZGC3AUAtZVrP7ZlyxbpDvXr1y88CU3yiTRMY8aMWb16dfSpWUPkrrBZlGQlmaF///5hnpQnddlll02cONF+oJA8RHhvokB7lGs9iFz18uiF+ydSE764oSFDhhhXsAzJahw4cKD+Q7Aa0y6+Epf4uqCZkLuQqkXe/xXbAwBAi2iRz4/o3wPdgtyFVOQuAEBLIXcBKA+5C6nIXQCAlkLuAlAechdSuc3PjTfeeODAAZ3RXMhdAICQZC1tDCr9gmJDI3cB3YLchVTS5Oheuak/9iN3AQDEgQMHbrzxRm0MevR49tlndUbTIXcB3YLchWSbNm266KKLdK/co8fzzz+vM5oOuQsAIJYvXx5d1O64446bN2+ezmg65C6gW+TLXWhu27Zt++u//usRgVNPPVV3yT16nHLKKcuWLdOipkPuAoCWtXLlyiuvvPLOO+/87ne/614x/Lzzztu4caMWNR1yF1BDekgqoJNSkLvwG97vR0WGDx8e/cZF8yF3AUDLmjFjhu79jzV+/PiMv4/fiMhdQA1p5AropBTkLvzGyy+/rLthx5VXXtnW1qYVzYjcBQAty/0mc2T48OF79+7VimZE7gJqSCNXQCelIHfhN376059+7WtfC3+oXm779+//yiuvVPxp9kZH7gKA1nTgwIFHH320d+/exx13nOz/TzzxxP/1v/7X3LlzOzo6tKJJkbuAGtLIFdBJKchdAAAAAFCERq6ATkpB7gIAAACAIjRyBXRSCnIXAAAAABShkSugk1KQuwAAAACgCI1cAZ2UgtwFAAAAAEVo5AropBTkLgAAAAAoQiNXQCelIHcBAAAAQBEauQI6KQW5CwAAAACK0MgV0Ekp8uUuvcuATgIAAAAAmMhdAAAAAFAuchcAAAAAlIvcBQAAAADlIncBAAAAQLnIXQAAAABQLnIXAAAAAJSL3AUAAAAA5SJ3AQAAAEC5yF0AAAAAUC5yFwAAAACUi9wFAAAAAOXKl7sAAAAAACE9JBXQSSnIXQAAAABQhEaugE5KQe4CAAAAgCI0cgV0UgpyFwAAAAAUoZEroJNSkLsAAAAAoAiNXAGdlILcBQAAAABFaOQK6KQU5C4AAAAAKEIjV0AnpSB3AQAAAEARGrkCOikFuQsAAAAAitDIFdBJKchdAAAAAFCERq6ATkpB7gIAAACAIjRyBXRSCnIXAAAAABShkSugk1Lky116lwGdBAAAAAAwkbsAAAAAoFzkLgAAAAAoF7kLAAAAAMpF7gIAAACAcpG7AAAAAKBc5C4AAAAAKBe5CwAAAADKRe4CAAAAgHKRuwAAAACgXOQuAAAAACgXuQsAAAAAypUvdwEAAAAAQnpIKqCTUpC7AAAAAKAIjVwBnZSC3AUAAAAARWjkCuikFOQuAAAAAChCI1dAJ6UgdwEAAABAERq5AjopBbkLAAAAAIrQyBXQSSnIXQAAAABQhEaugE5KQe4CAAAAgCI0cgV0UgpyFwAAAAAUoZEroJNSkLsAAAAAoAiNXAGdlILcBQAAAABFaOQK6KQU5C4AAAAAKEIjV0AnpciXu/QuAzoJAAAAAGAidwEAAABAuYrnrjgtMmmpSUtNWmrSUpOWmrTUpKUmLTVpqUlLTVpq0lKTlpq01KSlJi01aalJS01aatJSk5aatNSkpSYtNWmpSUtNWmrSUpOWmrTUpKUmLTVpqUlLTVpq0lKTlpq01KSlJi01aalJS01aatJSk5aatNSkpSYtNWmpSUtNWmrSUpOWmrTUpKUmLTVpqUlLTVpq0lKTlpq01KSlJi01aalJS01aatJSk5aatNSkpSYtNWmpSUtNWmrSUpOWmrTUpKUmLTVpqUlLTVpq0lKTlpq01KSlJi01aalJS01aatLSQshdlWmpSUtNWmrSUpOWmrTUpKUmLTVpqUlLTVpq0lKTlpq01KSlJi01aalJS01aatJSk5aatNSkpSYtNWmpSUtNWmrSUpOWmrTUpKUmLTVpqUlLTVpq0lKTlpq01KSlJi01aalJS01aatJSk5aatNSkpSYtNWmpSUtNWmrSUpOWmrTUpKUmLTVpqUlLTVpq0lKTlpq01KSlJi01aalJS01aatJSk5aatNSkpSYtNWmpSUtNWmrSUpOWmrTUpKUmLTVpqUlLTVpq0lKTlpq01KSlhZC7KtNSk5aatNSkpSYtNWmpSUtNWmrSUpOWmrTUpKUmLTVpqUlLTVpq0lKTlpq01KSlJi01aalJS01aatJSk5aatNSkpSYtNWmpSUtNWmrSUpOWmrTUpKUmLTVpqUlLTVpq0lKTlpq01KSlJi01aalJS01aatJSk5aatNSkpSYtNWmpSUtNWmrSUpOWmrTUpKUmLTVpqUlLTVpq0lKTlpq01KSlJi01aalJS01aatJSk5aatNSkpSYtNWmpSUtNWmrSUpOWmrTUpKUmLTVpqUlLCyF3VaalJi01aalJS01aatJSk5aatNSkpSYtNWmpSUtNWmrSUpOWmrTUpKUmLTVpqUlLTVpq0lKTlpq01KSlJi01aalJS01aatJSk5aatNSkpSYtNWmpSUtNWmrSUpOWmrTUpKUmLTVpqUlLTVpq0lKTlpq01KSlJi01aalJS01aatJSk5aatNSkpSYtNWmpSUtNWmrSUpOWmrTUpKUmLTVpqUlLTVpq0lKTlpq01KSlJi01aalJS01aatJSk5aatNSkpSYtNWmpSUtNWmrSUpOWFpIvdwEAAAAA8iJ3AQAAAEC5yF0AAAAAUC5yFwAAAACUi9wFAAAAAOUidwEAAABAuchdAAAAAFAuchcAAAAAlIvcBQAAAADlIncBAAAAQLnIXQAAAABQLnIXAAAAAJSL3AUAAAAA5SJ3AQAAAEC5yF0AAAAAUC5yFwAAAACUi9wFAAAAAOUidwEAAABAuchdAAAAAFAuchcAAAAAlIvcBQAAAADlIncBAAAAQLnIXQAAAABQLnIXAAAAAJSL3AUAAAAA5SJ3AQAAAEC5yF0AAAAAUC5yFwAAAACUi9wFAAAAAOUidwEAAABAuchdAAAAAFAuchcAAAAAlIvcBQAAAADlIncBAAAAQLnIXQAAAABQLnIXAAAAAJSL3AUAAAAA5SJ3AQAAAEC5yF0AAAAAUC5yFwAAAACUi9wFAAAAAOUidwEAAABAuchdAAAAAFAuchcAAAAAlIvcBQAAAADlIncBAAAAQLnIXQAAAABQLnIXAAAAAJSL3AUAAAAA5SJ3AQAAAEC5yF0AAAAAUC5yFwAAAACUi9wFAAAAAOUidwEAAABAuchdAAAAAFAuchcAAAAAlIvcBQAAAADlIncBAAAAQLnIXQAAAABQLnIXAAAAAJSL3AUAAAAA5SJ3AQAAAEC5yF0AAAAAUC5yFwAAAACUi9wFAAAAAOUidwEAAABAuchdAAAAAFAuchcAAAAAlIvcBQAAAADlIncBAAAAQLnIXQAAAABQLnIXAAAAAJSL3AUAAAAA5SJ3AQAAAEC5yF0AAAAAUC5yFwAAAACUi9wFAAAAAOUidwEAAABAuchdAAAAAFAuchcAAAAAlIvcBQAAAADlIncBAAAAQLnIXQAAAABQLnIXAAAAAJSL3AUAAAAA5SJ3AQAAAEC5yF0AAAAAUC5yFwAAAACUi9wFAAAAAOUidwEAAABAuchdAAAAAFAuchcAAAAAlIvcBQAAAADlIncBAAAAQLnIXQAAAABQLnIXAAAAAJSL3AUAAAAA5SJ3AQAAAEC5yF0AAAAAUC5yFwAAAACUi9wFAAAAAOXquty1cePG8847r8dRp5xyyrJly3QeqrNt27avfe1rumYrOe6443r37j1gwIBJkyZt2rSps7NT76V5vfnmm/rke/T41re+9fnnn+uMRrZr167p06ffcsstffr0Of7448NnF724EyZM+PDDDw8dOqTVXevZZ58Nl0fceeedOhXVWb58+RlnnCGrtH///jt27NCp2axfv162E/nfYtv/3r17p06dKttVz549g1e1x8knnyx/Tp48WbZDLeoSS5YskbZDFqCLt6uuedyar2fZvY8aNSq8K9lXHD58WGc4pEYaAtljXH755dHjyi5FNphbb711wYIF9m5E9jNf/epXw/8qRhovacL07gLSNsmuTGaNHj26u3ZiAFCGrstdU6ZMCXeykQceeKAVOv1dIFfu8lx11VWrV6/WO2pYbW1tY8eOXblypf59rCbLXfJ6DRo0KOyX2E499dSf/OQn0pnT/+wqLZu72tvbX3jhhZdffln/rh15Ea+77jpZn/K6S97WqdlIzzXqfOfd/uV/n3vuOen9h/8eJ7MmTpwoT1z/oUyyEgYOHBg+blduV13wuCWt5507d379618P7yFxs1y3bt03v/lNe2dy+umnv/baax0dHfo/xyojd0nIlIZJZp144omzZ8/WqQDQ+Lood0lrMXjw4HAnGznvvPM2btyoFahCNblLSNs2bdq0Bs3A0iX60Y9+JJ0SafulB6BTj9U0uUveR4888kh0dCujXr16LVy4sCtf3xbMXdIr/dWvftW3b195yvL0dWqNyGv3zDPPhOsz7wYs/yv99ahjnevf5c01fPjw8B9tN9xwgxTrv5VDksno0aP18bpwu+qCxy1vPS9ZsuSkk06SfzzrrLPWrFmjUwOyYcyaNctIeh5ZwsSHLiN3iTlz5pxwwgky96KLLtq0aZNOBYAG10W5a9myZeFJGiLcmYamTJmiFahClblLNOjHijt27Lj44ovDp9D0uUsW+4477tCnkZO8vjNnzuyy6NWCuWvMmDH6hEvIXcuXLw+7tvI6SoTWqdnI+1r+K1wwkX379/KGkMDfv3//uwKXXHKJd5Dk9ttvl3/Rf641Lz2KrtmuuuBxS13PEyZMCP8r/rp7G4aIHleW57rrrotHMpkef+jqc9egQYPi22R7e/uQIUPCglGjRpW3aQFAV+qi3PX444+HO1AJXePGjYui14ABA8r+lLQVeLnL7vbt2bPn008/ffHFF72o1q9fvy1btmhRg3CfeHPnrnj/T8avuuqq6dOnb968+cCBA1HZzp0733nnHekdep0qWT/SfQ/LytaCuUuepj7hWucu2VylYxre8/Dhw3N1QOfOnev1ibNv/7JpudubdMS90xNWr14dngwWkuKXXnpJ59WUbNVTpkzxtucu2K665nHLW8/yQsvLHf6XNME6NRB93y8kiesHP/iB1xZ3dHS89tprp59+uhYFDz1p0iSdXZQ8SnjGbOjiiy+WPZjOO1b0nTp5CWQfrlMBoJF1Re7asWPHpZdeGu5kzznnHNmZXnDBBeGfXF2jJnLlrkh7e/vdd9+t/xOYMGGCzmsQGXNXE5C+V69evcJnKs4444wFCxZIv1BnJ9m9e/fNN9+s/xDossxJ7tKptRD1y3PtLWXbmDZtmpcZRMZtwN1pC+koJ35A5vWhy/jsRnKm7JfcZBIqe7vqmsctdT2vWbPmrLPOkvoTTjjhnXfe0anBtjF27NjwroRsJMbJDpLQonMKRJXfDjh8+PC9996r9xXsx4wPg+QliE6/lOTZxVdwAYAydEXumj9/fnSAS1p9aUKiL3kLrq5RvWK5S0ir379/f/23Hj2uvPJK6azrvEbQOrkrOl9ISP97yZIlOsMk0fqWW27Rfwu6X/Jm1HllInfp1Kq579Dbbrst8Xp0cfK6P/zww/HMIDLmLvcySH369JHOt86I2bx5s9svr+2p4/HPDiKlbldd9rilrucZM2aExRdccMHWrVt1auzawuPHj7eb4Oi4U6ial9g9uVG2z4oH7qJvKGQpBoD6V3ruko6CdBfC/awIz3Z48803oz4BV9eoXuHcJdwu8mmnnZZ2ScD61CK5a//+/e6n3bk+qvAOlI0aNaoLPuYgd+nUqklfM9xVZs/MH3zwQXh5j0j0sZfIkrvc89NExcPgbnio1anjspW+9dZb7kluwn0iJW1XXfm4pa5neSJpV5CP8pjI0v5KjHcvi5V2PfqKNm3adNFFF+m9ZDtp1n3o/vl/PgEA6k3puWvDhg3nnHNOuN+U1is822Hr1q3RqYaims/PIKrJXfKKRL0K6eHNmzdPZzSCFsld3usr3SadkYH3wcc111yzb98+nVcacpdOrY57sCtLnmlra5O+rHe5y+uvv37atGn6R7bcJe+j6FthWU5udHfyJ510UsaDsYbVq1d7FzeX8TFjxjz55JP6dznbVRc/bqnr2biC/IMPPhhOFxlDlPuOLrYPkYjlnufSq1cvWds6z/T666+Hr4jccsgLQKMrPXe5H9FJMyCNgUzs7Ox84IEHdGq2LoXbROXl9ci9XmzFL+xWrHcLwm6NPMF3331XmvCwD3TmmWfeeuutS5cuTfsJlF27dnk/l3niiSf269fvoYceksZJ7k3rUnhLmKvb563YLF9flu6gLO3QoUP7OL/YK+RpylOYNGlS9u94yOs+ffr06667Tv43vBNpXHv37i1T5CHSTujPsjG4T0TGdWq2fmf85ZCnKWtYulzvvfdexc9o49tDOF1WyxNPPCEva3imTfhM7Q0j5L2+c+bM0RnZSK9Lll9erPPPP//b3/52fK26naos66divVsQ9VOlTPYGl112Wfj0ZZH69u2bZQuXf5RHCe9N1oOsjXC6PBHZ2C6//PLowmuyFQ0ePFhe7oqvkUsefd26dY899lj00gh56WUDsH+v1l2wNNV006Mep6j44VR8YWQN/+QnP5FVkXf7d4+HZDn32Dse+/zzz+uMQrytXcjr+8orr8jLlLhd1UrXP26p61lSWXgFea/58+7kqaee0hkmdxNy34PZyT3kOsMw4n5Km6WrAAD1rNzc5XUF3POj3C99RcfBDA2Uu6SjNm7cuKjDFEl8mtKKPPjgg256ibuq0k8be0sovQSdkUHUPAtvRcXJYmT5xV4pGDZsWFtbm/5bEtk2xo4dG7XEiWS1yMqJN7Tl5S5Z5lGjRtkvh4Ql41dEhbc9yMMJ+1WWBPLBBx/o/8dI0HXPz6n5VyIr5ihPxXqvnypLGz93KyJbyze/+U1JPvrPMXL/8ihhsaxYWb2SJewfmZXHkkfMspZkk3YvFheXthEKd8HSFO6mu2dYnXHGGatWrdIZKbyFcXca2bf/kHs8ZOTIkVlWY4F/SeO+fbw9SUn5J9T1j1vqeo6W2csqBw4ckPfO0KFDzz///J49e0qZzjBJxgvvTUSfn2YnbaL7Lhs4cGD2+CTPMTpQJm1o13xDFQBKUm7uir4UG+4x3dThngUhKnYlGyV3SYvyxBNPJCaT+Gd10tWWxk9nmySfTJkyJW0VeUuYsSkNJR6QjJOHlko7Jnl69eqVluJ279597bXXal0lEjm8X/wsKXctWrTI/SqUQV5f6Qqk3Y/7csjDrV279sorrwz/NEiKSDuQdfjwYffyGPZFwApwu5VZ+uUV692C733ve5MmTbKjrJAXdO7cufr/x5L7l0cJy2TFyvqMrnJmkEeUxzX2KpKcJ0+enHGTlvfpihUr9D+PchcsTeFuuruRZ3lRooWRzOl9LpArdxU7HuL2y6s8lzV6+/Tt21feku4r6G5X5eWurnncUtezG9q9K8gXIKvCPUVQFlsWXudl465Aecfl/Q062YCjJjX71WUAoA6Vm7vcD+fi51FEP+olKn67d9OmTQ899NDoDB599FFpGvV+AzLRPe/ISynxHOWpWO8WSO85Oo537rnnypIIGZE/vTOFpOssHeiwMiQ9RWnypV4WeOjQodFJbiFpeCZOnJjYj/SWUBo5nVGJ9zGk8cXu+I9syjO9/PLLwx/ZlNvo/DFXYidPXgv5F60IyD/Kv4d3JU//ggsu8IKr9/lotDGMHDnSDfY33XSTTAy5veQs/c74E5RlkCUJXw7pasSPrtxwww2Jn9q6L0f//v2/8Y1vhONC7kTuSu4w8Wkal4d2TzkT0reeMWNGrrPpDG6vKEsXv2K9WyDhwV2x4ZtC1oDsELwwlpYn5f7lUcKa3r17u1/xl3u++uqr5d5k45FV7d2h94GLS95H3u+hCXl1BgwYIPcm5G697SG+eOGhg7D+wgsv1LoePeQVDyeKqVOnanVO7hUss3SdZS2NGDHihRdekD63TjoqV+6SvbT7MUHGLxO6DyEbv7wFdEZ+8r+DBg1644034oeU3e1KtiKdWiNd/Lilrue0K8gX413/MG+Qk32a7Nn0n/P/Bp1wv9jGhbgANLQSc9eOY3+ZJN6nd4+GiYpfYMho9bEXcJNurtc5drvFIp6jPBXrvQIhPbbJkydH7bd08qTlcGOnd1Fg6S9KRvW+SSL/vnDhQveAmNxt4tJ6CyC9BJ1hku7XHXfcof8THFaSPKPzjuU1nNKdnT59erztlA7fiy++6OaTxNNCFi9eHPVopeM7fvz4eEdQWlb3w2Apk+Ch8xzuEzc62W5nJbHfKSHNzcDycLfffrvcuc4OyMvh/YqouPfee+Mfvsa3B5GYlD755BP3PSLS3gWyDUv41KKjTj311DFjxrz//vtVBrCKOcpTsd4tiFxxxRXe6bKywUsv1g0/iZcsk/uPcldENrNnnnnGe+i2tjZ3sxFpB9K9mJ346sidy0O4ZfJipZ09K09Ei3IecE7kPmVZP1Ve7abi9u/ytt6Ku8eQe7qy9Pi9A9S14m5XNc9dhjIet9T1LBtzWHPBsVeQL8Z9+lmu/+FxP0Eo8O/CeztkXFcAUIdKzF2yc4x6VIl9YulKDhgwICwQNfnKrNyD2/FK/C38vA1exfp4P1u6a4m9vZD01N0fLJaO3cyZM9Pqt2/f7na4r0r6+UhvAexun7Rhn3766dNPP927d2/9h2AZjJ/OdM9FlIbTvo7WokWL3Dgd/3DUPQpqnF/qJY0bb7zxwIEDOu8o94kXzl0SF4cMGaKzg1UhzzdtqaTb7X5KLcXxc2bi24Nsh2m/zOMlcKNbLM8u7TRIye2SWGRVL1++PL6WKnL7VRX75aJivVsQin/8EZI0K28WN3rFt165/6jXFZKQvHTpUp19LG8PkNjv9D5HMF4d8c4777iZPO3Hjmqbu6LjFeKcc87ZsGGDzijE3v49xS5OKBunvAHD/zLeiVVyt6tGz13lrWfZPqPTAgtf8z3inZcxePDg+AFVg3esTBq+YsvjthoyrlMBoNGUlbtk3+pevTptZ+22Z4nHRnI5dOwJbPHzgkIVc5SnYr1XUPFEiFWrVkUtmfQ4084ejEinsE+fPlF9/MhPvKOfi/TmJSzpfcVIP14yj5Zm+CaevPTul5G8L39732qwV7578ZXE3qf7xAvnLu+4a8VfEXVfDiGZzdu2vZcjMZu53FgrG0/aERUh3XHv+FicbCESNh566KHsx8Hct2EZuSvx44+ILKT7fS15gt4hLy93yRO0L4bmbjannnpq/IIl7gpP20u4pk+fHiXDtHd3bXPXnDlz9L5q8WvmuXJXsQRV7L/ycrerRs9d5a1n97vT3hXk8/I+xaj4oVucu+qKHewKRUfwRNf8GAYAlKGs3OV+XivSzp5yE4io5kJt8o/uFzZkJOO3oWqeuyp+xOied5F4/CrO/Zf4kR9vAXK5+uqr075TFJJQIS/fiBEjLrroojPPPDNLu+u2tV4/z+tD299qkATSt29f6ekOHTr0iSee+Oyzz3TGUe4TN/oudr/T/SQ13ulP5Hbc44/rvRwVe7qySrNfUlJejueee07iRFhvk8gn3cS1a9fqP6cwXq9EFevdAnknJp4j6nKjb/zzF2+bqXjqlHskQXhvWOlKuofZK8Zs4f1LYl+2trnL/e5rlZcHFOSuKpXxuOWt52h/UuULIZu9dwGbLG8Wl/ddg2ouieHuJO0PpwCgnpWVu9yOqXEauncspeKRIoP3hY3Rx15Lw1UxR3kq1nsF9pWpvE5kxi6a2+rEj/x4C5DXySef/Mgjj0grq3dXNbeb4vXzpNmWfqTOS7pWYS7uEzc6GUa/0/t2e8avjHs9e68j7r0cFe/TvbeMXSV5CrNmzYp+IM4myWfYsGHbt2/Xf44xXq9EFevdgixRVu7BfVN4a8ybW/FzDe819d6wWXqucW4QSlyAGuYu7z2ScZs0kLuqVMbjlreeo6Wt5khpe3u7ezK8SDtV2OBeDajK81ncnWTiQWwAaAil5C7v42G7n+SePyDSjozZvHPQ7RaiYo7yVKzPdYdu+yFtUsZvzLe1tUkoDf9LGjDvElXeAhSTeKXsYtxuSryf512aT9LyiBEjpEku8MUk94kbfRej37ly5crTTjstnBVfsWm8zwu8rpj3clT8meOMzyKRLMnSpUsfeuih+NURPb169Uo7ycd+veIq1rsFGQ/XuMFG3r/uharl/uVRdF6GK2579d770d3hSOzPcnhTuCf+Jf7cQg1zl7f8Vf4MsTC2/7gsPfu4Yv+Vl7tdkbsS/8vdNRX+HpRsIe4ll0T//v2NU4UTSXJzLz1a5fe35X0q71a9rwytNgDUp1Jyl3vWkPQF7bOMvO/dFtg7e1cmsL9MInLFJFGx3i2o+A1p98iVdPTdS58bpPMarVLhnZ7nLaHd7evo6JA2TJLq2LFjvdPVLrzwQuPnayuSzqisnFtvvdW9pGG8n+ddvD4SXhzi6aefXrNmTXQpSFvGxGL0OyVoyasQzjIOzMa5OcG7T3epskTrjM+iIulyycv62GOPpWWwtO8yud3Kiv1yUbHeLbC3xogRh+T+5VF0XoYc4tV7b1j3hZMsOmrUKH2PmQYNGqT/k/JVwxrmLu/tXHEHVZGx/cdV7NknKvZfebnbFbkr8b+iM/xlD1Bsy9m9e/f1118fPkSoQOgS7qKKYp+oRvLuBACgPpWSu9wvzFQ8dfDwsVfgyHs2goQ094u/Wb4ln7dbU7E+V7/Z7QMV5nXsvCXM3u2TJvbmm2/WfwvErxKRSLr40hLLc3nxxRelI9KvXz/3JE9XYj9PVlHapflCktwkvy1YsMC+MkTGNe+uc2953FlyV3KHOqMStyvm3Weu7UHkrc9C3hfTpk3r27dveLcR75fQQsZzSVSx3i2oeLgvZLwQcv/yKDovwxvWrncDUjGJr1HT5K5iJ3TJCpHVEv5XrbbhOHe7avTcVdJ6jj6/qPg1yETe9VqF/Fnsy1Tud5ITP6rIxXtTV/kWA4DuUvvctePYr9IWkP3bt94FDI+rdKGzUN5uTcX6XP1mtw9UmNfqeEuYq03ygqude7ds2TJu3Lizzz5bqzNI6+dJWz5s2LDEwzIuiXP333+/PEH9t2NlXPNGv9OdJXeV9kBxblfM+8eMSxXJW59dR0fH1KlT3cOPssLjx5/d51KxXy4q1rsFFd9fIel3RkdfvfXpdbkq3qFdX/+5y+2Ri4wr0OBu5BVfX3drFBkf3T2Mn+u4cS7udtXouauM9dxZ3RXkV6xY4f5cpBg4cKDxvVCDNCvudw2quaJGyDu1u8q3GAB0l9rnLu/bOwVkvLqGtDHuBQyFZLAsF87O2+BVrHcLGi53CWnL3ZMY7777bp3hkHb0wQcfzHIVB+nlu5dZt/t5YZBzv5uXKO1K9xnXvLvOveVxZ8ldyR3qjErcrpj3/fVc24PIW5+Xd8mZeIfMfS4V++WiYr1bUPH9FXI7lN4LIfcvjxLOEhXv0K6v/9wldy4PofeVeQUa3I284uvrXZWk+sOVNeRuV42eu8pYz4WvIC+Nqdyzu9WJ4cOHx4+NZ+Ruw4mf9RRQw7cYAHSXGucu76TBwrKcC+71JrNfbcnt5oqK3ZqK9W5BxX5zGR0UbwnztkleDyDeM4uffOLq2bPn5Zdffv/998+aNUuWRJpwt5tSsZ8n5F82bdokHYWrr7467XxFyWbxy35kXPPuOveWp/DLYTzHjEsVsevlWcu2ff755/fu3VvKCpzz470r45eFyPt6Vax3C+r5PMMa9t1r2Cns3uNdxQ4sPP/88/oP2TahYtztqoavXUVlPG4Z6zn68CLLbiciu19pcN0drySlMWPGZDnhPI3szPW+anGSofB++LHKtxgAdJca5y7v97ikRy79xSz69OnjHkupeHUN7wKGFa+l4XK7uaJit6Zifa5+9rx586JjdKeddtrKlSt1RhW8JczbJnn9VK/Xe+jQoejcldCpp54qrbI8ESlLvACG203J2wmTh1u9evVjjz127rnn6l0cFf95t4xr3uh3Fr6uhvslRukQuNffy7U9CLveXULpVEnXSmfk4XaDvNdX5H29Kta7BRm3Rve6Gt7xQ2/7rPiGtevdq2N7L1w1api73O1BVHy+FRnbfyJ3284YM9x/qf4Hx9K421Wj5y5R8/UcLaf3DjLI/nbChAnuaSPSEE+cODHjlY0SHT72p/MLnPEY572pq3yLAUB3qXHucn+2K9cVMrxrztr/613AMMu1NFzuyRiiYrfGvdS4iNfn6me79yatXfWdKuF11PK2SV6T5vXL3atTiuuvv75ii+52U7L08xJJl2LBggVuuo5f9Tvjmjf6ndHlv4S8HBkv6+99+OqdmZlrexB2vbuEoliHw70Muvf6CjeVZXm93OiSWO9uAImnrca5HUqvo+ZtnxXfMna9e8Sg2LUHEtUwd9X8ktnG9p/IyMCJvLdDedeac7erJshdtV3P7gE0eTfpVJOErnvvvdcNXSeffPKsWbOqjM3ynpJ3lt5jzjMe03hv6vK2MQAoVS1zl/dV2uwfuYXczp9I+yauPIrb9khCmzlzps7LxtuDVzwPyj1CJeLdoFz9bC/1xY/hJFq1atU555xz3nnnDR069NFHH/UO7rkLIPJ2++RlkhdL/znWM3Ovu92nT5/169frjBTydNxfffXuTVLExIkT5VnIXY0YMaLi56DTpk3TO0patxnXvNHv9J57xt+o9c4E8zoWubYHYdd7b6v+/ft74TML90W85ppr9u3bpzMC7vqJz/V4nT9vfYbcfmqW/YD3HL0N2HvDVswhdr17/DD7Z0NTpkzp2bPnJZdcIt1uGY+fglXD3OUtf5X3JoztP5FsgbIdhvVZNmD3o4HCh2SzcLerJshdtV3P0U4p48d5ErrGjRvnNm1nnHFGxh8wtLnf1cx+qUab18ZleYIAUIdqmbvcva2YMGGCzsjG+yGvxJPCpalwL2AoMl5Lw+V1ayr+DKv7SbyI7/Fz9bMllkjWCotFxiQzfvx4/Yek0+G8NilvR807ojVq1KgoCnpnjNx4440HKv26sXdBS6+fJ2svaumzHG2wuyYZ17zd73Rf3379+m3ZskVnpHP7YYWXKlKx3r0is3jmmWeyZPWIvCKS1vSfkz4Ld9ePvAftr5B5x98S+/Hu+pFNK+33miMSfqIsFK/33rAVu1x2vbd9Dh8+vOIOxPvFucR3QQ1zl/fJRcZjFwZ7+4/zVmDFPbl7mkPej9tyKSn/VFTS49Z2PUdXtMryfSrZxryrUp1fu9/Ndz9CTfyR8QLc3U6WnSoA1Kea5S7Zj7txosCe0bsHIc2MzgvEm4rrMl9Lw+VlicGDBxtfIJZQ5F6dT8S7fXn72QsXLnS/xFwxOkpz6J5ud9NNN3ndvmpylzz3IUOG6H/Grj3lfflbVrj9fRh5jdyIKLx+nnukSB5r+vTpOiOFrO3oFY9HgprkLi92yvLLs9B5SbxNIr791Dx3eY8oG8/kyZMzfgHD+6giMQW5n5jYh4Aqvr4ht58q7B+Fk7fwwIEDtTRpfXrd0/gb0GPXy1MYO3aszgtW5uzZs3VeikmTJkUboYxMnTpVZzhqmLvEU089pfdVi6/H2Nt/IreLb382tGnTJvesyLwft+XSZLlL1Go9y1YdfQs3y6djXhsk9+x9llcN9zzkmny5S7j7qIqfDQFA3apZ7vI+RbbDTBrviJl3dQ3vAoa5rqXhcdtRo+O1e/fua6+9VuuOinf78vaz41FHGtG06OUtgyytNJk676jCuUuWZMyYMVGfUsRPY3MbUXl2xlfpJAlIMPauNe+dtyZtsHttPfu7eV6PPN6Eu09cthzZfnTGsex+p/dyyPJLPzstenmXdpSXo/rtIUu92/UXMv7d73537dq1OjuFLK2U6f8EEg/veN/HSPs4Q9bJzJkz3fegyJK7ZGmfeeaZxKAoK9/dwCT1xc/7rW3uEqtXr3Z/tts+vWrp0qXupx5p53m6uSvj2aoG99zm6o8Y2Nt/oi1btvTr10//p0cP2QUlHsWS7cQ96dRODtVrvtxVq/Xsnr5e8ftU3gFweyecl/fuq/69EHKPoVX8+A8A6lbNcpf3s10Vd/2JpHVxv+bhfvTuXcCwyqZCurbSwdX7Cjq7M2bMcPuFMi7xpm/fvlrhqL6fLbxDWOLGG2/0utHSzV20aJG3DIkHx/LmrgMHDnz66adPP/1079699X8C8grGD0B5r+z5558vS+XFElld0j11z8WKyILJ4mldQNKRe3zp9NNPl5Uff1LSOb7iiiu0KCVwel+Wkx58Ytqv2O/0Xg55vsOGDfM+UpXnKJHA7a+Lii9HrXKXPK+bb745rInIcsoqkveavJrRJ9yyPJKjZs2a9e1vf9vLwGkfVbgflockrXlPf9euXQ8m/YBb4vr0cpeQRZUOq9yJVgQ2btzo9iaFLEZ8fVbMUZ4s9V6Ola3rySef9NKmrPOJEye6vzotZWmf0bhnq8p6rjJ+uIeFq7/qaYHcJV566SV3FcmWJm9JnReQP923vBTLWtV5Me4yiIr7qEQF8k93Pa7XxBj/VZP1HH1kmWWH4z4d+1UrwGuMZN+uM6rjfjpTqywHAF2vNrnr8LFn7p2X7YePE7nnXYjw6hrSXfuLv/gLndSjx1e+8pX7779fdujS15GObxY/+MEP9uzZo48RLLC7Hw9Jz3vEiBFSPHTo0J49e+rUoBclE/WPGuUu4R2+C5199tnhMsitF8zE1Vdf7WWYkNfUFSaPG+/1el9uCZ155pmylqReSFR2+6biggsuiJJV/JwQ6eW7J3qF5B7kfsI7lHuW+9cZR8n0+LJ5p0EKuZ/ghwnOf/XVV7UoW78z/nJIj0SeiHSY5KElHnjPUcjExONCebeHjPXyWDfccENYVoAkRmNJZJbbTRQSsa688kp57nfddVf//v2jxCWrRd538rKGf1bMXbJniL675d7nJZdc4nY3hczyNpVQGblLtiVZDK04ShZPnqksm8y69tpr49vDY4895h1xjbifxwu5qz59+sh2KNtPxZO+4rwNu8rOa5btPy6+iqJ3ROLLJ8Xxd2jEXQbRZfmnux7Xe0MZ/1WT9RwtYfx7Xx7vzJQCZGeV2AyF3Ccub/yaXKhj375911xzTW3vEwC6RW1yl/ezXWmXIszC/aBXyN3KnVefK+JNhfTw3BPG0oQnvrvtbrwbl7efHZk7d67X2TWk9UpF9etHmvZRo0aldcjkGXnHedJId/ORRx5xv4qQeD0reaA77rgjLKjIXjbv0+KI+5loxn7nvHnzTj/9dK0zySPeeuutiaFL5N0este3t7f/6Ec/iiJQdpKc161bp/eSRMLwlGN/OzWRPPEJEyZs3rw5WuCKuUsCrXfZtEQSYrdv367/fyy5/5rnLiGd1ywLFpIyKTZyxepjz12MVOwHp3HXYZWX1si4/cfJFj58+HD9T9MNN9yQ9nYIucsg5NnpjDzcddI0uUtUuZ7dlF5xU/HOXyhA3vteY+pyrxeaqzU0uBfVkNCYeKIvADSE2uQut1lyTw4sQAKb+/0fId3B6nNFYlMhDZi0Umm9WGmchg0bFvYF3ScY78bl7We7JEpJi2v3pE8++eSJEycmnkEXqnL9XHHFFe+++6536qBHeu2JpxFGZHUNGjQoPEPG+7Q+sa/T0dEhr6ykMi1K0bt379dee809BdQjncjECOd+GSx7vzPLy9G3b18JzMbqyrs95K3fuHHjXXfdVTEjhWRp33jjDWMFRuQZxc9rdUkonTlzppS5C1wxd8nKl0f/2c9+Fj9gGKq4eWfMUZHs9eFTrvjxv6yT+Lm1Hpk7bdq0+IuS5eJyidwPs6r8ilf27T8ufrKlp+LLF3KXQSTuEypyt6tmyl2imvUcfVgpO+GK7w5p8sI7LEze+7IH0LuLcVe4XZmdezA54y+vAEB9qkHukvTifimr+o+j3ItKC7lz6fRH/bxijAZgy5YtTzzxRL9+/cI+k/S5pXjMmDESIaL9u9ePDCdG8vab42SNTZ48WZ5pdH6dtKASOQYPHjxr1qyK/SR3AbKQJvz8888fOnSotGdZLpsekt7z0qVLpQMhjxUlk549e8piT5o0ybsf93xRCWzeF3sihw4dWrBggdznhRdeGPVZZUT+lInvvfeecYQhIgs2e/ZsWQy31+IeZ3C7Aln6nfJc5BnJHUanm8oiyRby0EMPLV++vGKGybs9FNt+JNy+8847jz76qCynbCruZ9iyFclE6aXJGydvH0VWuKwu2fCiTTF8iadPnx6tN3eBs+SucKL8l7zRJMOEG4+s0ssuu0zWc9q2EZH7Lyl3heQF/eSTT+TFveSSS6JNKNwIZT+Q5RWPyE7j1ltvdc+SNS73YnM/vCh8J6G823+cvEZTp0513xGyouRP2WtVfPlC7jKILss/3fW4eXNXqNh6lucYvv2zhHxZkvCeC5P3vryX9e5i7J9oL+Cw8y2GxMuxAkADqdl1NQAANeSeElblqYZAg3K/elDsOskAUD/IXQBQj9xTCfhaC1pTdOrEccf+tiQANCJyFwDUqeiyMXQ60YLcjx6M89UBoFGQuwCgTu1wfuKWk6zQaqIvex+X9NuSANBwyF0AUL+kuxke8jrllFOquboG0FgOHToUXV6fg10AmgO5CwDql3t5RumGZrnCJ9AElixZEv7+/oknnljxqqQA0BDIXQBQ16IOKIe80CLcg1183ACgaZC7AKCudXZ2jh8/PuyDDhkyhG95oektXLjwxOAXHfv06bN+/XqdCgANjtwFAPVu165dV111lXRDTzjhhDlz5uhUoBnt3bt34MCB4dY+c+ZMnQoAjY/cBQANYPny5WeccYZ0Rvv3789veaGJRT+fMHr0aM4wBNBMyF0AAAAAUC5yFwAAAACUi9wFAAAAAOUidwEAAABAuchdAAAAAFAuchcAAAAAlIvcBQAAAADlIncBAAAAQLnIXQAAAABQLnIXAAAAAJQrX+56IjP9B5OWmrTUpKUmLTVpqUlLTVpq0lKTlpq01KSlJi01aalJS01aatJSk5aatNSkpSYtNWmpSUtNWmrSUpOWmrTUpKUmLTVpqUlLTVpq0lKTlpq01KSlJi01aalJS01aatJSk5aatNSkpSYtNWmpSUtNWmrSUpOWmrTUpKUmLTVpqUlLTVpq0lKTlpq01KSlJi01aalJS01aatJSk5aatNSkpSYtNWmpSUtNWmrSUpOWmrTUpKUmLTVpqUlLTVpq0lKTlpq01KSlJi01aalJS01aatJSk5aatNSkpSYtzYzc9RtaatJSk5aatNSkpSYtNWmpSUtNWmrSUpOWmrTUpKUmLTVpqUlLTVpq0lKTlpq01KSlJi01aalJS01aatJSk5aatNSkpSYtNWmpSUtNWmrSUpOWmrTUpKUmLTVpqUlLTVpq0lKTlpq01KSlJi01aalJS01aatJSk5aatNSkpSYtNWmpSUtNWmrSUpOWmrTUpKUmLTVpqUlLTVpq0lKTlpq01KSlJi01aalJS01aatJSk5aatNSkpSYtNWmpSUtNWmrSUpOWmrTUpKUmLTVpqUlLMyN3/YaWmrTUpKUmLTVpqUlLTVpq0lKTlpq01KSlJi01aalJS01aatJSk5aatNSkpSYtNWmpSUtNWmrSUpOWmrTUpKUmLTVpqUlLTVpq0lKTlpq01KSlJi01aalJS01aatJSk5aatNSkpSYtNWmpSUtNWmrSUpOWmrTUpKUmLTVpqUlLTVpq0lKTlpq01KSlJi01aalJS01aatJSk5aatNSkpSYtNWmpSUtNWmrSUpOWmrTUpKUmLTVpqUlLTVpq0lKTlpq01KSlJi01aalJS01aatLSzMhdv6GlJi01aalJS01aatJSk5aatNSkpSYtNWmpSUtNWmrSUpOWmrTUpKUmLTVpqUlLTVpq0lKTlpq01KSlJi01aalJS01aatJSk5aatNSkpSYtNWmpSUtNWmrSUpOWmrTUpKUmLTVpqUlLTVpq0lKTlpq01KSlJi01aalJS01aatJSk5aatNSkpSYtNWmpSUtNWmrSUpOWmrTUpKUmLTVpqUlLTVpq0lKTlpq01KSlJi01aalJS01aatJSk5aatNSkpSYtNWmpSUtNWmrSUpOWmrQ0s+K5SycBAAAAAEzkLgAAAAAoF7kLAAAAAMpF7gIAAACAcpG7AAAAAKBc5C4AAAAAKFe+3AUAAAAACOkhqYBOSkHuAgAAAIAiNHIFdFIKchcAAAAAFKGRK6CTUpC7AAAAAKAIjVwBnZSC3AUAAAAARWjkCuikFOQuAAAAAChCI1dAJ6UgdwEAAABAERq5AjopBbkLAAAAAIrQyBXQSSnIXQAAAABQhEaugE5KQe4CAAAAgCI0cgV0UgpyFwAAAAAUoZEroJNSkLsAAAAAoAiNXAGdlCJf7tK7DOgkAAAAAICJ3AUAAAAA5SJ3AQAAAEC5yF0AAAAAUC5yFwAAAACUi9wFAAAAAOUidwEAAABAuchdAAAAAFAuchcAAAAAlIvcBQAAAADlIncBAAAAQLnIXQAAAABQrny5CwAAAAAQ0kNSAZ2UgtwFAAAAAEVo5AropBTkLgAAAAAoQiNXQCelIHcBAAAAQBEauQI6KQW5CwAAAACK0MgV0EkpyF0AAAAAUIRGroBOSkHuAgAAAIAiNHIFdFIKchcAAAAAFKGRK6CTUpC7AAAAAKAIjVwBnZSC3AUAAAAARWjkCuikFOQuAAAAAChCI1dAJ6UgdwEAAABAERq5AjopRb7cpXcZ0EkAAAAAABO5CwAAAADKRe4CAAAAgHKRuwAAAACgXOQuAAAAACgXuQsAAAAAykXuAgAAAIBykbsAAAAAoFzkLgAAAAAoF7kLAAAAAMpF7gIAAACAcpG7AAAAAKBc+XIXAAAAACCkh6QCOikFuQsAAAAAitDIFdBJKchdAAAAAFCERq6ATkpB7gIAAACAIjRyBXRSCnIXAAAAABShkSugk1KQuwAAAACgCI1cAZ2UgtwFAAAAAEVo5AropBTkLgAAAAAoQiNXQCelIHcBAAAAQBEauQI6KQW5CwAAAACK0MgV0EkpyF0AAAAAUIRGroBOSkHuAgAAAIAiNHIFdFKKfLlL7zKgkwAAAAAAJnIXAAAAAJSL3AUAAAAA5SJ3AQAAAEC5yF0AAAAAUC5yFwAAAACUi9wFAAAAAOUidwEAAABAuchdAAAAAFAuchcAAAAAlIvcBQAAAADlIncBAAAAQLny5S4AAAAAQEgPSQV0UgpyFwAAAAAUoZEroJNSkLsAAAAAoAiNXAGdlILcBQAAAABFaOQK6KQU5C4AAAAAKEIjV0AnpSB3AQAAAEARGrkCOikFuQsAAAAAitDIFdBJKchdAAAAAFCERq6ATkpB7gIAAACAIjRyBXRSCnIXAAAAABShkSugk1KQuwAAAACgCI1cAZ2UgtwFAAAAAEVo5AropBT5cpfeZUAnAQAAAABM5C4AAAAAKBe5CwAAAADKRe4CAAAAgHKRuwAAAACgXOQuAAAAACgXuQsAAAAAykXuAgAAAIBykbsAAAAAoFzkLgAAAAAoF7kLAAAAAMpF7gIAAACAcuXLXQAAAACAkB6SCuikFOQuAAAAAChCI1dAJ6UgdwEAAABAERq5AjopBbkLAAAAAIrQyBXQSSnIXQAAAABQhEaugE5KQe4CAAAAgCI0cgV0UgpyFwAAAAAUoZEroJNSkLsAAAAAoAiNXAGdlILcBQAAAABFaOQK6KQU5C4AAAAAKEIjV0AnpSB3AQAAAEARGrkCOikFuQsAAAAAitDIFdBJKfLlLr3LgE4CAAAAAJjIXQAAAABQLnIXAAAAAJSL3AUAAAAA5SJ3AQAAAEC5yF0AAAAAUC5yFwAAAACUi9wFAAAAAOUidwEAAABAuchdAAAAAFAuchcAAAAAlIvcBQAAAADlype7AAAAAAAhPSQV0EkpyF0AAAAAUIRGroBOSkHuAgAAAIAiNHIFdFIKchcAAAAAFKGRK6CTUpC7AAAAAKAIjVwBnZSC3AUAAAAARWjkCuikFOQuAAAAAChCI1dAJ6UgdwEAAABAERq5AjopBbkLAAAAAIrQyBXQSSnIXQAAAABQhEaugE5KQe4CAKB+zVyx87KnV/zLO9/5/WFvn3DHwkt//OFdr69fv/OAzgYAdCuNXAGdlILcBQBAPVq2aV//pz76B0Pn9fjOXHf4re/O+4Ph8//3zz5ZvvlzLQUAdBONXAGdlCJf7tK7DOgkAABQU58f7Hhi3uaT7v61l7i84ZQxix95c9OBw536bwCAOkbuAgCgjmzeffAvnv7oy0P8lJU4/M7QeQMmrdyx75D+MwCgXpG7AACoCx2dnX///o5/87cVDnPFh1NGL27bS/QCgLpG7gIAoPu17Tn4V89//Ls3ve1lqozDv7938Sfb9ut9AQDqD7kLAIBuNnPlrhPuWOhFqbxDn8feP9TBd70AoE6RuwAA6Da79h8eP2/zH45Y4IWoAsOXh8z9/i836v0CAOoMuQsAgO6xcN2eC8Yv9+JTNcOf3v3rTo54AUBdIncBANANJry95Z/dXu25hfHhh29v1gcAANQTchcAAF1q7Y72/zbhAy8v1Wo4/4nl/KIXANQhchcAAF3nmXfa/q8xi72wVMPhH90yfxvXlAeA+kPuAgCgK2zbd+ivf/bJ799c8Erx2YfV29v1IQEAdYPcBQBAuTo7j8xdvfvf31viYS53eH/z5/rAAIC6kS93AQCAXPYf6rhj+qe/V/QHkQsM72/ep48NACiZHpIK6KQU5C4AAMqycN2ek0d30WGuaFj3GecZAkAX0cgV0EkpyF0AANTengMdzy/edsId73ihqOzhj0culIfWhQAAlEwjV0AnpSB3AQBQY/PX7jn3B+//9nfneaGoC4YhL6/u5LeTAaCraOQK6KQU5C4AAGppynvb/3DEAi8Odc3wD4bO27jroC4HAKB8GrkCOikFuQsAgNrYtu/QXz674ktDuuEwlwzyuN//5UZdFABAl9DIFdBJKchdAADUwM+WbDvp7l97WajLhj8YPv/F97brogAAuopGroBOSkHuAgCgKm17Dg75uzW/N6zrrhTvDf9q1KLpH36mSwMA6EIauQI6KQW5CwCA4mZ/vOucx973glCXDb/93Xl9J3ywdBM/2AUA3UMjV0AnpSB3AQBQxKGOzod/ten3u+8w13G3zL9/9kauXQgA3UgjV0AnpSB3AQCQ27sb9v2XR5Z5Qagrh383evHH2/h9ZADoZhq5AjopBbkLAIAcOjqP3D9rwx+P7OofRI6G426Z/zcvrW7bw/XiAaD7aeQK6KQU+XKX3mVAJwEA0DJWbt3fXT+IHA7/4d53f750+yEJfwCAhkLuAgCgss7OI2+u2t2NV4r/0pB5F/5wuQQ/XSAAQEMhdwEAUMGOzw/9zUurv9xNP4gsw+8Pe/uu19ZzkAsAGhe5CwAAyxsrd/7f9y/xglBXDv/PY8s+5jAXADQ4chcAAMn2tB8e88aG372p264U/4+Hz79j+qd8mQsAmgC5CwCABG+u2t13wgdeEOrK4c8fWPLie9t1aQAADY7cBQDAMTo6jzz8q41/PHKhF4S6bPjt784b/PPVH2/j3EIAaB7kLgAAfmPNjvb+T33kBaGuHH73pnmT392mSwMAaBbkLgAA1E8Wtv2LO7rtB5Fl6PfkBx9u+VyXBgDQRMhdAAAc2Xug47//+MMvxYJQlw1/MHz+2F9u3Ln/sC4QAKC5kLsAAC3tcMeRxev39hq31AtCXTn8+YNL5q/d08l1CwGgeZG7AACta8fnh25/Zd0/umW+F4S6bJCH/vaUVTv3H9IFAgA0qXy5CwCAprFi6/4+jy3zglBXDv/6bxdN//AzXRoAQAPSQ1IBnZSC3AUAaDmdnUfufWNDNx7m+u3vzhs4+ePPD3boAgEAGpNGroBOSkHuAgC0lmWbPr/4yQ8k+XhZqMuGf3vXr3+8YMuhDr7OBQANTyNXQCelIHcBAFrFwcOdk3699V/d2Z1Xiv/m8x9/1MYPIgNAk9DIFdBJKchdAICW8Oln7de/uMpLQV05fHnIvLteX89RLgBoJhq5AjopBbkLAND8Zq7Y+e9GL/aCUFcOf/7gkgXr9ujSAACahUaugE5KQe4CADS5IS+v9lJQVw5f+s7cm3+x9rPPuVI8ADQhjVwBnZSC3AUAaFpvr93Td8IHXhDqyuE/3Pvuqx9+xqmFANCsNHIFdFIKchcAoAl9frDjgdkb/sUdC70g1GXD79407+pJKz/Z1q4LBABoRhq5AjopBbkLAKA6g7iy4/NDG3YdWPdZ++72ww16oEaewtd/8tFvdd+V4v/5yIVPzt+iSwMAaF4auQI6KQW5CwBwpKPzyPQPd/7V8x9/9f4lf3Tbgt/+7rwvBeHh60999PqKnR2djZS/Xv3ws3/ZrVeK/28TPti0+6AuDQCgqWnkCuikFOQuAGhpq7bvv/kXa08ctUiClpcfouE/PrSkbU8DBImtew9d9dzK372p2w5z/ZMRCx6as/Hzgx26QACAZqeRK6CTUuTLXXqXAZ0EAGhMq7a3X/fCJ388cuGXhlQOKqeMWbyljqNXZ+eRN1fv/tO7f+0tdlcOF/5w+aefHWioQ4MAgK5D7gKAVjRzxc5T73vXSw728Gf3L9mw84D+fz3Zuf/wA7M3/uPh870F7rLhd296e+Dkj3ftP6wLBABADLkLAFrOqx9+ViylnPH9pRt31Vf0en/zvv/+4w+95ezK4d+NXjzlve26NAAApCB3AUBradtz8B/d/LYXHrIPp973bv181+v1FTt/Z2i3fZtLhr94+qOG+OYbAKDbkbsAoIUcPNx5yY+qPTr0nx9eWg9XOHzlg8++PMRfti4b/uWdiyYu2qqLAgBAJeQuAGghzy/e+uUMV9GoOFz/4upDHd0ZvVZu3X/y6MXeUnXN8KXvzP3GxBVLNuzTRQEAIANyFwC0iv0HO/JeSyNtkPB289S1B7rpd5XlcW/4+Wpvkbpm+IPh8ye8vUXWpC4KAADZkLsAoFUs27TPSxFVDre9su7AoW5IIAvW7fn9YcW/olZ4+M/fXzp/7R5dCAAA8iB3AUBL6Ozs/N6MT70gUf3wnZfXHO7yEw5Hvlr7J2IPvzN03u2vrtvfHSETANAcyF0A0BI27T5w8Y8+8OJE9cM/HPb2uF9t0sfoKv2f+shbjFKHf3/v4uWbP9fHBgCgEHIXALSEj9o+P/cH73uJoibDH9264OdLu/QHrP7bk130g12/d9Pblz/9Ub39ZBkAoBGRuwCgJaze3n7B+OVerqjV8Ee3LXjto536SOW7uOpL4WcZ/vTuX094e0tnHVwxHwDQBPLlLgBAg/r8YMdlZZ6ed9wt819f0UXR64pnVniPXvNBot2HWzi3EABQgR6SCuikFOQuAGgVD/9qo5cuajv84a0L/m7ZDn2wMj05f4v30DUcfm/Y2w//ahNHuQAAWWjkCuikFOQuAGgVn+48cNwt872YUdvhT+769ZKNpf+g8IJ1e37vplKuI993wgeL1+/VhwEAoBKNXAGdlILcBQAt5J6Z672kUfPhPz703rZ9h/TxynHgcOf//tkn3uNWOfyTEQvueX39nvbD+hgAAGSgkSugk1KQuwCghew9cPi/Pl7W1TWi4T+NfU8eSB+yHB9u+fyPblvoPW7h4c/ue/eVDz7TuwYAIDONXAGdlILcBQCtZXf74X9au8SSNvR8YMm+g+X+yvDDv9rkPWiB4ctD5l713ModJR+gAwA0K41cAZ2UgtwFAC1n4bq9f3TrAi+B1Hz4T2NLP+Fw4OSqzjb8x8Pnz1zZdZe/BwA0H41cAZ2UgtwFAK3ozVW7/8Ud73g5pOZD3wkfHO4o8cqAW/ceOuvhpd6DZhm+PGTehT/8YNmm0i8BAgBobhq5AjopBbkLAFrUW6t3/+GI0o96XfbURx1lXpRdnsWf3LXIe1B7+MrtC+99Y8OOzzm3EABQLY1cAZ2UgtwFAK1r/to9vz+slAuyu8NfPf9xqUe9nvv11j8YnvX6+H9237uzOLcQAFAjGrkCOikFuQsAWtqiT/f8HzeXHr2+9bNPSo1ezy/e+jtD53kP6g2/9d15N/x8dfuhcq/2AQBoKRq5AjopBbkLAFrd22v3/LPbS7/C4VXPrSz1hMOfL93+uzelRq9/e9evX162o8zHBwC0Io1cAZ2UIl/u0rsM6CQAQON7edn2L8WySm2H3xk676E5G/XxynHvrA3eg4bDXz67otgPIm/Zc/CRNzft5seUAQBVI3cBAL7w7KKtXx5S4VS9Kofjb13wo/lb9PHKcfWkle4jfmnI3OumrNpf6JfEfrVq9//4yYdfuX3h37zE2YkAgGqRuwAA6sn5W37ru+VGr+NumT/53W36eCXoPHLkGxN/E70GTv5EZ+Qhd/Lg7I1/PFLPvfzSd+Y++uam/7e9fwGXq6zzRP9oX6Z7Zpjppi9zmBvTPe3Qnh7awzgcGBmOMjDKKH+UM8LgtEjaA+NIozZGRBJugiAgN0UQERXBAKIg2IiGi1xUMAkBQ0KABBIuIVcSkpCQ6975v6z6Zfeiaq93165da6d29ufzvE89K+/61bpVZe/3u9eqVXV+PA2AXZ/cBcDf+/rDy948KUJLTS1Fu1sfXxXrq0Fff/9x33smregPTpvx3OpN0du2JWu3/OfL55Y3OLXf/MzDX/3F0qgAgOGTuwB4g+seWVH3Z71+95Rf1Rq9Nm/rP+RrT/zHSx9/9uXh5a4rf7nsD08f/BYj/+CzD1/ws5eiDgCGSe4CoNnlP1/alDq63vY6/7Hpz78a66vBxi19n5/24pqN7d4S44llr73/W0/lz/X9w8/96tszVsQTAGA45C4Amm3Z1j/xxtcv1au17f/lOSntxCprsPzVLZu3DX0/jM3b+lOa+rPzHm3avEHbP5k8/ekVNW4zALsquQuAQby6adt/v/bpptTR9bbPxbMXr9kcq9wZVq7f+r+//+ywrqvc46xHhnv5IgDIXQAMrq+//4hvP9WUOrre/vTcR5es3RKrHF0/efKVf/n5R5q2p52WotfTKzbGUgCgDXIXAJU2bOn7yA1v+EasOtp/vnzuax19xdZInH3Xi//oc79q2pL22786e9aji9fHsgBgKHIXADkvvrL5kKueaEodXW//6+ZnN28bvW/I+ulTr+x26vSmbRhu+3dffGzdpnbv2wHAOCd3ATCEX7+04c/Pf6wpdXS9nXjrwtH5buK0lv929bymtXfW/tOX56zesDWWCwDVhpe7ABifUvTa46zBv9iqi+1//2BhrK9Or27a9m++MKtp1R23g7/2xCuvOesFME7FKalCdFWQuwBoyzMvb/wXHd2FYljtIzcsiPXVZsu2/r+8aHbTekfSDrh8ztq2vygMgF1JRK5CdFWQuwBo16OL17+1/gsOL//50lhfbb7y8yVNKx1hO/hrT4zORZIA9JSIXIXoqiB3ATAMf/fE6t+bMtI7UuTbb3zm4S8/uCTWV4+Ukf79hb9uWu9I2psmPfzp2xdJXgDjTUSuQnRVkLsAGJ6v/Hzpmyc93BQ8utt+++SH01piffW488lX/tmZ3fzE2m9+5uEv3P3iNqe9AMaTiFyF6KogdwEwbF9/eFlT6uh6S9Hu6w8ti/XV45bHV/3h6V2+WchF9y8RvQDGj4hcheiqIHcB0IlrZ6xoihx1tB/NXR3rq8fdT68Z+Rd5ldubJj189l0v9kteAONDRK5CdFWQuwDo0BW/WPqbn6n3gsM/PmPmzBfWx/rqkaLX73y2m3ux+2kzbnl8VSwdgF1aRK5CdFWQuwDo3Ok/eaEpdXS9/cWFjz383LpYXz3Ov3dxdwPknufMmvbUK7F0AHZdEbkK0VVB7gKgc1u29X/i1oVNqaPrbe8v/Xr686/GKmvQ17/9xFsXdjd6/YvPP1J3XARgp4vIVYiuCnIXACPS37/9+JufbUodXW9/dt6jc5duiFXWIEWvT/1w0Zta1juStvtpM2a+UGNcBGCni8hViK4KchcAXfDRm55pSh1db//67Ec2b6vxhhVb+/on//j5ppWOsP3JF2a9vGFrrACAXU5ErkJ0VRhe7opFFqILAArH3rCgKXV0vR31nafXbtwW66vB+s3b/sd185tWOsJ28NeeWCV6AYx7chcA3bF03eb/cuXcptTR9fbXNz1T6xmklJH+/YW/blrpCNuhV8+rNS4C0PvkLgC65vElG/a99PGm1NH19tc3LlhTZ4xZuX7rn5//WNNKR9gOueqJLXVeJAlAj5O7AOimZ1/e9NYLuhxaWtuHpy7Y2ldjjEnR6//s9l4c+NW52+rcZgB6mdwFQJctXbel66Glqb1p0kOX3P9SrK8eL63d/LaLZjetd4TtU7ctiqUDMM7IXQB037Mvb/yXZz/SlDq629486aFvz1gR66vH/JUbf/+0GU3rHWE74ZaFsXQAxhO5C4Ba3Pjoyj84vcuhpam96dMPTZ21MtZXj0cXr//D02c2rXeETfQCGIfkLgDq8s3py//J5OlNqaO7LUWv7z32cqyvHr9YuO4Pux0gT7rdBYcA44vcBUCNbnps5W+d/HBT6uhu++2TH/7xvFdiffX45aJ1u3f7gsMvP7gklg7AOCB3AVCvH85Z9Q8+W2/0+t1TfjXrxVdjffW488lX3jSpeb0jaemY3D53dSwdgF2d3AVA7S6876Wm1NH19o8+96tfPV9j9Orfvv3i+5e8qWW9I2l/dPqMm39d70WSAPQIuQuA0XDsjQuaUkfX2x+dMfPnC9fG+mqwta//vHsW/+Znunnubo+zHhG9AMaD4eUuAOhM//btH55ae/T6t+c++sSy12KVNejv337aT17obvT64zNm3vdMjXERgPrEKalCdFWQuwAYJX39/R+96Zmm1NH19t5vPLlm47ZYZT0++cOFTSsdYfvTc2etfm1rLB2AsSMiVyG6KshdAIyebX39H/v+s02po+vtv3ztiXWbaoxeqzZs/cC3nmpa6Qjbvpc+/uKazbECAMaIiFyF6KogdwEwqlL0+s+Xz2lKHV1vh1z1xMr1NZ5BWrxm8+HffLJppSNsB135xPyVG2MFAIwFEbkK0VVB7gJgtC1/dcsB9Uevv75xwYbNfbHKGry0ZvPBX3uiaaUjbGmBKdHFCgDoeRG5CtFVQe4CYCdYsnbzf/py7dHr4vuX9PXHGuvw8vot+1w8u2mlI2z//dqnY+kA9LyIXIXoqiB3AbBzvLq57+2XdDm0NLXf+MzDX7rvpVhfPX71/Ku/c8qvmtY7wvapHy6MpQPQ2yJyFaKrgtwFwE6zduO2/+PMmU2po7vt96bMuOvpNbG+etz/zNo/OG1G03pH2D77d8/F0gHoYRG5CtFVQe4CYGd68Nl1f3xGvdHrbRf9ur+/zssNt2+/d8GaPzy9y9Hr9J+8sK3WqyQBGLGIXIXoqiB3AbCT/WD2y7We9XrzpIcefLb2Lya+d/6a7n6fcmpfvHdxLB2AnhSRqxBdFeQuAHa+FL3+qM6zXsfe+EysqU63Pr4qZbymVY+k/dbJD397xopYOgC9JyJXIboqyF0A9IS7nl6z26nTm4JHt9pfXjR7fZ33lB9w+c+Xvqmr0Su1H85ZFUsHoMdE5CpEV4Xh5a5YZCG6AKAb+vu3f+2XS5siR7fa3l/69ZqN22JNNfvGr5Y3rX3k7YZHV8bSARib5C4AesW2/u0n/91zv9HtT0mllnLX2tHKXcm3pnc5ev3WyQ9/Z6YLDgHGMLkLgB6yra//xFsXdv0GFf/lyic2p1Q3Wvr7t0++8/mmbRhh+6MzZt47v94b4gNQH7kLgN7S19//iVsXvXlSN6PXGT99IZY+Wl7dtO2/XT2vaTNG2P7DJbPnr9wYKwBgTJG7AOg5W/v6T/1x184XvXnSQ3OWvhaLHkVpLw7/5pNNGzPC9m/PffTFVzbFCgAYO+QuAHrR5m39p//khabU0Vn7wLeeioWOujUbt33o+vlN2zPC9mfnPfrU8p0QIwEYCbkLgB61eWvfpB+N9DYbe54za9bi9bHEnWH5q1ve/62nmrZqhO0/Xvr4C856AYwpchcAvauvf/tffXdBU+pov/2TydOv+dXyWNbOs2Dlxj8999GmbRth+8gNC17dNHp3aARghOQuAHrayvVb/88LHmtKHe203z754W9O3/mhq+HRxev/6IyZTVs4wvbxHzy7ZRRv0gjASMhdAIy2lBaunbnirqdfiX8PZdm6LW+/ZHZT6si3Pzh95q2Pr4rn94a5Szf8i88/0rSdI2zH3rigX/ICGAvkLgBG1SMvrj/smid3O3X6n5//WPtfSLVk7ZZ9L328KXVUtYO/9sS8ZRvimb3koUXr9vpiJ+fuMu3/+94zsXQAepjcBcAoWb+571vTl5cvt/uTL8x68ZXNMXsoS9dt+YsLfz3w3EHb757yq5NuW/TKa1vjOb3ntjmrfm/KjKbNHmH7/q9fjqUD0KuGl7sAoDOPL9lw1HVPNwWG1P7teY8uW7clioaycv3Wf1t9g4qU4q6duSJKe9hF97/UtOUjbL/5mYfveGJ1LB2AURSnpArRVUHuAqB2P5q76l9Wf7TpT88dRvSau3TDvzx7kEW97xtPzls2Zr7V6vKfL23a/hG23zr54dvm9Nbn2QDGg4hcheiqIHcBUKMlazf/j8FOczW1/3jp48tfbTd6XfXQsvJzf/uzv/reGLzQ7opfdDl6/fbJD9/w6MpYOgCjIiJXIboqyF0A1OVb05f/u7ZvI3HgV+du2toXz8y6+dcvv3lSPOvQq+c98uKrMWOsmXLn8wO735X2u6f86tGd+iXRAONNRK5CdFWQuwDovpXrt370pmd+55RfNQWDfPuvVz2xsY3odeOjK//V2bP+8PQZn5/24iuvjeHvDt7W1/+3ty1qOggjbH90xsxfv9SL93IE2CVF5CpEVwW5C4BuSlninvlr/u/L2r3ne1M77Jonh4xeNz328oenzv/xvHa//quXbd7Wf9z3nmk6CCNsf3ruo3OWil4AoyEiVyG6KshdAHTN+s19p/3kheGe5mpqKYds7ct9GfB9z6xdsrbdD4P1vv7+/g9PXdB0EEbY3nLeoy+0fYN+ADoWkasQXRXkLgC6Y9pTr/zZeZU3eW+/vXnSQ1+676VY6LhxTLej10dv8n3KALWLyFWIrgpyFwAjtWbjtpNuf+6fTp7eNPTvuP3jU6d/41fLY+njw7J1Wzq+OHPQ9o8/96td41JMgF4WkasQXRXkLgBG5BcL16XA8KZJDzeN+0fY/sMlszdsaev2hruMWS+uf/sls5uOw0jae7/xZCwagHpE5CpEVwW5C4AO9fe/fouL3U+b0TTc70pLi/3R3NWxpnHjsZc2/OWXft10KDpuf3D6zC3bxld2BRhlEbkK0VVB7gKgE08uf+2/XjWvaaDfxfaHp8/4zswVsbLx5JmVG//kC7OajkZn7U2THrpvwZpYLgA1iMhViK4Kw8tdschCdAEw/px914tNQ/yut91Pm/HzhetifePMc6s3/cuzH2k6IB20lLsue3BpLBSAnUruAmAYHl28/qjvPJ0G9E1D/K63cX47vlsfX/X7U0Z6AeebJz38uTueiyUCsFPJXQC0Zcu2/q/9ctmffKELd4ofsr3zirnPvrwxVjxeXfnLZb83suj15kkPXfEL57sAeoLcBcDQ1m3a9pEbFvzWyV2+aeGg7ZipC15a6zt/X/f1h5f/w891/iXUKXfNeOHVWBYAO5XcBUBOX3//TY+t3OOsLnzcaMj2+6fN+Novl8WKKUydtfLNnd6jP+WuxWskWICeIHcBUCmN2v/quwt+55TOT7m03476ztNPLX8tVkzJjY+u7OwlOODyObEIAHY2uQuAQfT1b7997up/06UbmudbChXXzlyxeVt/rJsWn7vj+d/57PCi129MeujmX78czwdgZ5O7AGj20trNaaD/Dz5b+6e53jTpoX99zqy7nn4lVkyFbX39592zeFi32fivVz3R3y/KAvQKuQuAN/j5wnX7Xvp40yC+jpZSxOenvbhm47ZYMUP51vTlv39aW9HrLy+avWDleL8hJEBPkbsACJu29n3yh4tG4bu5Uvt3X3zUneI7sGTtlo/e9EzTwWxq/+Hi2as2bI0nANAb5C4AXvd3T6ze64uj8d1cv/PZX0258/k1GwWDzj294rUrf7n0IzcseNtFs9886eHUfm/KjP0ue/zEWxd+77GVm7f1RR0APUPuAhjvlr+65dO3P/cPPze9KSDV0d5+yeM/mP1yn48ddcP6zX3Prd700KJ1Dzy7duYLr764ZrPPcwH0rOHlLgB2MWm8ftCVc5vSUR3tt05++MNTFzy/elOsGADGvjglVYiuCnIXwDi1ZVv/JQ8s+cPTZzYFpDraW8579Puz3dMcgF1NRK5CdFWQuwDGo5kvvPqfvjKnKR3V1E68deHK9T7NBcAuKCJXIboqyF0A48uGzX1nTXvxj84YjdNc/+rsWd+dtTJWDAC7nIhcheiqIHcBjBf9/dtnvbj+P146+8313yn+TZ9+6Ojrnn508fpYNwDsiiJyFaKrgtwFMC6s2bj1ovte+oPT2/rW3RG23U+b8Y1fLd+4xd3MAdjFReQqRFcFuQtg1/fMyo1HfPuppnRUR3vTpIcO/toTC1f5QmQAxoWIXIXoqiB3Aezips5a+VsnP9wUkOpovz9lxnWPrNjmy7kAGDcichWiq4LcBbDLemrFxuNvfnY0Ps016aGjrpv/wiu+mwuA8SUiVyG6KshdALumi+576Z+fNRo3LfznZz1y7t0v+jQXAONQRK5CdFWQuwB2Na9t6fv4Dxa+qSUg1dEOuvKJXyxcFysGgHEmIlchuirIXQC7jr7+1z/N9a/OfqQpHdXRfveUX5350xd9lguA8SwiVyG6Kgwvd8UiC9EFQG9Ys3Hbf7nyiaZ0VFN75xVzZy/ZECsGAIYidwGMeX39/T+et/ovLvx1Uzqqo/3xGTMvfWDJVjctBIDhkLsAxrYXX9l88t899/tTav9C5Dd9+qF3f33efc+sjRUDAG2TuwDGsIefe/Xtl8xuCkh1tH/8uV9d+LOXXnltW6wYABgOuQtgTFr92taTblv0G58ZjS9E3u+yxx9bvD5WDAAMn9wFMPb8aO7qfz8qn+b6rZMf/uzfPbdqw9ZYMQDQEbkLYCxZvGZzCkK/OSqnufa5ePacJRvcQAMARk7uAhgzfvTE6v98+dymdFRH+4en/Oq/X/v00nVbYsUAwMjIXQBjwNa+/pP/7rl/Mnl6U0Cqo+176eM/mrs6VgwAdIPcBdDr7p2/Zq8vPtqUjmpqH73pmW19sV4AoFvkLoDe9eqmbSfeuvAffW40TnP9Xxf9+o55TnMBQC3kLoAede/8NW+7aDS+myu1L9z9Ysp4sWIAoNuGl7sAGAX9/dtveHTl70+Z0ZSO6mj/4vOPfHfWyrRGAGC44pRUIboqyF0APeeWx1f9g8/+qikgdb391skPf/SmZ15auznWCgAMU0SuQnRVkLsAesvjSzb808m1n+n6J5OnX/fIilglANCRiFyF6KogdwH0kM3b+g/+2hNNGam77c2THvrw1AWLVm2KVQIAnYrIVYiuCnIXQA+54dGVv1PnFYZvOe/Rb05fvn6zW8UDQBdE5CpEVwW5C6CHHHXd/Kak1K32G5Me+m/feHL+yo2xJgBgxCJyFaKrgtwF0EP2Ov+xprzUlfavzn7kaw8tc89CAOiuiFyF6KogdwH0ilde27rnObOaItPI2wevfXrhKqe5AKD7InIVoquC3AXQK1Zv2Ppn5z3alJpG0n5vyvTLHlziu7kAoCYRuQrRVUHuAugVKXe9pXu5633XPPngs2tj0QBADSJyFaKrgtwF0Cte3dz3b7uRu/7R56Z/8d7FazZui+UCAPWIyFWIrgpyF0Cv6Ovv//MR31fjbRf9euYL62OJAECdInIVoqvC8HJXLLIQXQB0z3E3P9uUo9pvvzHpoTN++sLWPh/nAoCeI3cB9JDb5qx686TmQNVO+4+Xzp7+/KuxFACgx8hdAD1k/eZtx9ywoClT5dvvnvKr/3XzMy+8sjkWAQD0HrkLoLcsWLnxv171RFO4qmp/fv5j35/98qatffFkAKAnyV0APeeV17adeOvC3zr54aaUVW6/N2XG8Tc/u/zVLfEcAKCHyV0APerl9Vt/PO+Vj/9g4V9c+Ng/O3Nmo731gsf+x3Xzr3542ZK1EhcAjBlyFwAAQL3kLgAAgHrJXQAAAPWSuwAAAOoldwEAANRL7gIAAKjX8HIXAAAADXFKqhBdFeQuAACATkTkKkRXBbkLAACgExG5CtFVQe4CAADoRESuQnRVkLsAAAA6EZGrEF0V5C4AAIBOROQqRFcFuQsAAKATEbkK0VVB7gIAAOhERK5CdFWQuwAAADoRkasQXRXkLgAAgE5E5CpEVwW5CwAAoBMRuQrRVUHuAgAA6ERErkJ0VRhe7opFFqILAACALLkLAACgXnIXAABAveQuAACAesldAAAA9ZK7AAAA6iV3AQAA1EvuAgAAqJfcBQAAUC+5CwAAoF5yFwAAQL3kLgAAgHoNL3cBAADQEKekCtFVQe4CAADoRESuQnRVkLsAAAA6EZGrEF0V5C4AAIBOROQqRFcFuQsAAKATEbkK0VVB7gIAAOhERK5CdFWQuwAAADoRkasQXRXkLoAO/eIXv5iww8c+9rHXXnstZoxX3/3ud+NwTJhw9tlnR+8u5+WXX37Pe97T2M23ve1tTz31VMwAYPyJyFWIrgpyF0CHxmHuWrFixWWXXbZgwYL49xvJXbuq/OsOMJ5F5CpEVwW5C6BD4yp3rV+//lvf+tZee+2VSRpy166nndcdYDyLyFWIrgpyF0CHxk/uWr169fvf//7Gnspd4yd3tfm6A4xnEbkK0VVB7gLo0PjJXW0mDblrFzMOr6gEGK6IXIXoqjC83BWLLEQXwHgld41PchcAHZC7ADokd41PchcAHZC7ADokd41PchcAHZC7ADokd41PchcAHZC7ADo0aO7aunXrfffdN3HixL322iv177bbbgcffPDZZ589Z86cvr6+xhPb0d/fv3Tp0htvvPGEE0448MAD03IaK0oT6Z+p84477li7dm1UD2X9+vXTpk1Lz9p///3bX04aZ6fRdqO+SjoIUT38+2qk9aa1p2O1zz77NJ61++67p4F+eu7jjz+ejmTUVSingnLuXb58efoldfjhh++5555pVmNPTzvttOG+BFWq0kjqnzp16lFHHdVYb5KOdlrvI488Mqz1puJ58+ZdcMEFaS3pgDQWlQ5ROlA333zz6tWro64No/O6A9AOuQugQ62568knnzzssMOiq8URRxzx2GOPxZOrpcT161//+kMf+lA8rVoalF9yySVpbB3PHEzaqssuu2wgCQyqajn15a4VK1acc845A6FiUCke3H333ZnE0pq7krQjmcWmVye9RvH8TrXmrm6tN+3sz372s4GFDyqtZfLkyekAxnMqpE0atdcdgHbIXQAdaspdP/nJTxrnuDLSOPiWW25JySoW0WLr1q2XX375wNmtdhx55JHLli2L57/RunXrPv7xj0fdUN73vvc999xz8cxCTblr1qxZBxxwQNRlpeOQ4lmKEPHMN2rKXc8///wxxxzT+GdGeo0eeOCBWERHmnLXgw8+2JX1pt1MO9vmS58OYDqM8cwWo/y6A9AOuQugQ+Xc9Rd/8Rdvectb4h8TJuy3335Tpkw5//zz0/C36ZxD+uf9998fi3ijlMemTp3aNPJuXGCWFpWkMHPYYYe1nlc577zztm3bFkvZIUW49JSoKKRVH3XUUeeee25jUYceemjTuo4//vjy2Y+lS5deeumlqfjMM89861vf2qjZY489PvvZz76+NYX58+dHdXu5K+170wFJ25C2JNWnpZ1wwgmt2fVTn/rUoOf0yvknhc8Pf/jDjekkLSQtKi1w0N08/PDDly9fHksZvvJ609EYuEgySbt27LHHVq03JZx0SGMpb5R2MG1w1O2Q34uqIDf6rzsA7ZC7ADpUzl0D3v3ud8+aNat8Ruu111775je/WQ5LBxxwwKJFi2J2SdN5hrSomTNntl5ol4bIX/va18oLTDFv4cKFMXuHxx57bCDhpHH21Vdf3XriaMmSJeXhfiq75557Yl5J65V1MeONhsxdabCeNjUqitWdccYZaeExu5D29+677953332jqHDhhRe2BsvyVg1IT7zrrruaPhv27LPPHnHEEVFRuOWWW2Le8A263pSCUmbetGlTFBXSq9x0veg111wT80rSrqUdjIpCeoekTNX00q9YseKUU04pR6Z0MFvzz+i/7gC0Q+4C6FBr7nr/+98/6CV/KYbde++95fM8rWeoUs3FF18csydMOOiggxYvXhzzWqTiO++8szwET2Ej5u1wySWXxLwJE9KSy1GwLKW4448/PuomTDjppJM2b94c83boSu5KmWTSpEkxe6hLLlPGKF+8l4pTBI15O7Tmn3T8qw5ael3S3Kh74304hqt1vSn/zJs3L2a/UTvrTbtWfm+kHa/6+FY6XOmglYvTIW0Ke6P/ugPQDrkLoENNuSsz+E7S8Pfqq6+O0sHOUK1Zs+aDH/xgzG7jhMy6devKyeQ73/lOzChs3LixfEIj/2mc6dOn77HHHo3Kd73rXS+99FLM2KEruWvu3LkDF60l6WhURYKGlKBS+IzqwQJGU/4ZNJuVpUMapRMmHHLIIUPemqJK03rToUuhOuYNJr/eFL9PP/30mD1U3k6a3khNe71TXncA2iF3AXSoKXcNeglZ2ZIlS9KwO6pbklXKUddee+3JJ5+cag499NDWQXCrlG1iWS0557XXXvvYxz4W8wY7G1aWksBhhx2W1pvWnn68v/LKKzFjh67krvJ5mCOOOKKd+6GXE0vrepvyz5CnsGbPnj3wGbyRpIim9U6cOLH84ahWTz755N57790obl3vc8899453vKMxNxkybyfp0JUvmzznnHMGEuxOed0BaMfwchcAA8q5q/X8Vas0OE5D5HjChAmnnnpq62eWhiWTu9K6zjzzzJg32D3rhmXkuavp7NxVV10VM7JS+HzXu94Vz5kw4fbbb48Zhab8M+Qyy0vrYu4acr3l+hTAmm4on6JRY1Yy6EmnQaWVxnMmTPjgBz+4Zs2aRv9Oed0BxrPihFSIrgpyF0CHyrnruOOO27BhQ8yoVh5kpzHxsL4Dt1UmdyX33HNP+QNge+6555QpU6ZPn976MZ4hjTx3LViw4O1vf3tj1h577PHII4/EjKy0qSeddFLjWUnTMpvyz5B3h+9WihjJepOma//OO++8mFHxIatBpQM4cIlg076M/usOMJ5F5CpEVwW5C6BD5dzVGnsGVb7ULeWQlEZiRtv6+/vTaHjatGmf+MQnyvdXaN2AtWvXfuQjH4nZJbvvvvuRRx553XXXPffcc5lvJS5rc/ydyV3lnPCOd7yj/ZMw5RM7TVcSlrcqJY2HH344ZlToVoooLydpylGtMvVNwfKSSy6JGUNpOhNYXubov+4A41lErkJ0VZC7ADpUzl1Nt7WokkauafzaeEo7A9kUM1588cUHH3xw6tSpU6ZMSYPg1i/vahg0+KXl57+heK+99jrttNNmzJjRdOP1Jm2OvzO5q3ys0qLSAmPGUMrLzOSudg5mt1LESNablDNS08ex0s7GjKFklpmM8usOMJ5F5CpEVwW5C6BD5SzR5oh5xYoVA7fWqBrI9vf3L1q06Jxzzil/Ie+Qqk64pTU2fenToPbcc8+LLroojbPjaW/U5vi77tzV9MThpoLh1lcZyXqTOnJX6xNH83UHGM8ichWiq4LcBdChDnLXkLd2aHO4nOy3337lLxeuyl0Ny5cvv/zyy9NTorrCAQccMGvWrHhOSZvj77pz1zHHHLNu3bqYMbL8M5IUMZL1JnXkrqr7Fo7O6w4wnkXkKkRXBbkLoEPlLNGV6wznz5//7ne/uzG31f777z9x4sQrrrji4Ycfbty/LmWbmDdU7mro7+9funTp7bfffuyxx5Y/G1aWxuhpM+IJO7Q5/q47d7nOcEBmma3qft0BxrOIXIXoqiB3AXSonCXaiT1J+b4aTTcNX79+/fHHH9+Y1XDggQdeeeWVjz32WEpZaegcdSXDzV1lW7duXbRoUVr+wQcfHIvY4eKLL25aXZvj70zu6vi+GuVv/TrhhBM2btwYM0aWf3okd3V8X410AAe+9aude4oMqON1BxjPInIVoquC3AXQoXLuaooEVW6//fZ4QstVc+Xbf6eJCy64YNOmTTGvwkhy14A01J4xY0b5UrTWG9y3Of7O5K7OckI6pOnANp6VnHfeeTGjMJL80yO5K8kEy4x0AAfeLR3fGLNbrzvAeBaRqxBdFeQugA6Vc1c733i7bdu2008/PZ4wYcI555wzcHohzTr11FNjxoQJH/nIR9auXduYVWXDhg3HHXdcPGGwnDN16tSTTz75oIMOmjJlypBf0HznnXfGggYbYbc5/s7krrq/N3m4+WckKWIk602acld3vzd5p7zuAONZRK5CdFWQuwA6VM5du+222z333BMzKixcuHDg9EJTfVMsaed6s/LSkqack7Zt4HzIoYceunLlyphRIQ2p08C6Ud/x+DuTu5LyiZ3DDz98+fLlMaNaeYEjTwXdShEjWW/SlLvKZwKTtMsxo1o6dOkAxhPeGOB3yusOMJ5F5CpEVwW5C6BD5dyVHHnkkU2XaZVt3bo1jY+jdMKEI444oly8Zs2aD37wgzGv5YK6VmlpkydPjupCU84pnylKA/Fp06bFjArl8fohhxyyYsWKmFFoc/ydz11z585961vfGrMnTLj66qubPk3UZPHixQcddFBUT5jwyU9+sunCy5Hkn5GkiJGsN2nKXU1nQdMupx2PeYNJBy0duqieMGGPPfaYPn16zNtJrzvAeBaRqxBdFYaXu2KRhegCGK+acleS8tKgH8rq6+u7/vrrBwa4SdNpjaYPMr3vfe9bunRpzGuRVnHBBReUl5aceeaZ5RjTNJrfb7/95s2bF/NaNN3S49RTT226Pq08/n7LW94ye/bsmPFG+dyVNnvSpEkxe8KE3Xff/cYbb6yKXikAlE8A7rnnnk1xJRlJ/umd3JXMnDmzfJvBFOCXLVsW894oHa5bbrmlXHziiSeW7/G4U153ANohdwF0qDV3JSk+LVmyJCoKa9euTSGkHJPSYDcNeWP2Dtdcc03MLnzoQx9atGhRzNth69atDz744GGHHRZFJU33WE/SKLl8fmnfffe966670hJi9g5pLWldUVQknBQDYt4OrafjBo2X+dyVzJ8/v3xtZDomp5xyStM5lpRRH3jggQMOOCCKCueff37rlu8yuSulnQsvvDBmF9KLdffdd6dDERWFtJwzzjij/EYaNFaN/usOQDvkLoAOlXPX3/7t36YheGM6jYw/8IEPnHvuuSktHHPMMbvvvnujv+Hd73536xclJU2X1SVpOQcffPCUKVPSctLSjjrqqPKJjjT38MMPH7g5+3HHHbdhw4ZYVqG/v/+yyy5rzB2w1157TZw4MS0wOfnkk/fff/+YsUPqbx2jN93uPEnLSTuS/PSnP42iNnJXcv/995f3Ikk7cuihh6b6tOqUWtOSY8YOqbM1pia7TO5K0g6WT3g2pEOROtNhSQcnHaJy4krSYUwHM55fMvqvOwDtkLsAOlTOXddff33TBWCDOuKII56r/uqqBx54oDV1DCqVff/733/66aff/va3N3paP5yTvPbaa2eddVajYEhpWH/OOec0nTQbcNtttzWN+xvKdyZsJ3clDz/88L777ht1WWmNp5122qChK9mVcleSdjPt7KAHuVU6gJl78Y/y6w5AO+QugA6Vc1eKHP39/b/85S+rEsXuu+9+ySWXVEWIAY899tiglxEOSMtJo+RGxCpfBpYGx4MO6Pv6+lIg3HvvvRtlVQ488MDWC9vKqoby5Q8FtZm7krT9kydPbjoT2CQdh4ceeqjqA2DJLpa7knT806uQXosoHUw6aBdeeOHAjeOrjObrDkA75C6ADjXlrkZnSlY33njjwDWBaZSc8kP6mdnObdMbtm7dmpacxrVpTDxwqmH//fc/4YQT7rjjjvL3eqVMcvHFFzcKkpRkWi8Va0j9M2bMSFnove9978BJuTSR/pk6H3/88aonlqXR+f333z9x4sTySbnytz+3n7sa0jFJxyotcJ999mk8K23S4Ycffumll86bNy8TBhp2vdzVMPBipWcNRNNB3wBDGp3XHYB2yF0AAAD1krsAAADqJXcBAADUS+4CAACol9wFAABQL7kLAACgXsPLXQAAADTEKalCdFWQuwAAADoRkasQXRXkLgAAgE5E5CpEVwW5CwAAoBMRuQrRVUHuAgAA6ERErkJ0VZC7AAAAOhGRqxBdFeQuAACATkTkKkRXBbkLAACgExG5CtFVQe4CAADoRESuQnRVkLsAAAA6EZGrEF0V5C4AAIBOROQqRFcFuQsAAKATEbkK0VVheLkrFlmILgAAALLkLgAAgHrJXQAAAPWSuwAAAOoldwEAANRL7gIAAKiX3AUAAFAvuQsAAKBechcAAEC95C4AAIB6yV0AAAD1krsAAADqNbzcBQAAQEOckipEVwW5CwAAoBMRuQrRVUHuAgAA6ERErkJ0VZC7AAAAOhGRqxBdFeQuAACATkTkKkRXBbkLAACgExG5CtFVQe4CAADoRESuQnRVkLsAAAA6EZGrEF0V5C4AAIBOROQqRFcFuQsAAKATEbkK0VVB7gIAAOhERK5CdFWQuwAAADoRkasQXRWGl7tikYXoAgAAIEvuAgAAqJfcBQAAUC+5CwAAoF5yFwAAQL3kLgAAgHrJXQAAAPWSuwAAAOoldwEAANRL7gIAAKiX3AUAAFAvuQsAAKBew8tdAAAANMQpqUJ0VZC7AAAAOhGRqxBdFeQuAACATkTkKkRXBbkLAACgExG5CtFVQe4CAADoRESuQnRVkLsAAAA6EZGrEF0V5C4AAIBOROQqRFcFuQsAAKATEbkK0VVB7gIAAOhERK5CdFWQuwAAADoRkasQXRXkLgAAgE5E5CpEVwW5CwAAoBMRuQrRVWF4uSsWWYguAAAAsuQuAACAenWeu1pFUVaUZkVpVpRmRWlWlGZFaVaUZkVpVpRmRWlWlGZFaVaUZkVpVpRmRWlWlGZFaVaUZkVpVpRmRWlWlGZFaVaUZkVpVpRmRWlWlGZFaVaUZkVpVpRmRWlWlGZFaVaUZkVpVpRmRWlWlGZFaVaUZkVpVpRmRWlWlGZFaVaUZkVpVpRmRWlWlGZFaVaUZkVpVpRmRWlWlGZFaVaUZkVpVpRmRWlWlGZFaVaUZkVpVpRmRWlWlGZFaVaUZkVpVpRmRWlWlGZFaVaUZkVpVpRmRWlWlGZFaVaUZkVpVpRmRWlWlGZFaVaUZkVpR+SuoUVpVpRmRWlWlGZFaVaUZkVpVpRmRWlWlGZFaVaUZkVpVpRmRWlWlGZFaVaUZkVpVpRmRWlWlGZFaVaUZkVpVpRmRWlWlGZFaVaUZkVpVpRmRWlWlGZFaVaUZkVpVpRmRWlWlGZFaVaUZkVpVpRmRWlWlGZFaVaUZkVpVpRmRWlWlGZFaVaUZkVpVpRmRWlWlGZFaVaUZkVpVpRmRWlWlGZFaVaUZkVpVpRmRWlWlGZFaVaUZkVpVpRmRWlWlGZFaVaUZkVpVpRmRWlWlGZFaVaUZkVpVpRmRWlH5K6hRWlWlGZFaVaUZkVpVpRmRWlWlGZFaVaUZkVpVpRmRWlWlGZFaVaUZkVpVpRmRWlWlGZFaVaUZkVpVpRmRWlWlGZFaVaUZkVpVpRmRWlWlGZFaVaUZkVpVpRmRWlWlGZFaVaUZkVpVpRmRWlWlGZFaVaUZkVpVpRmRWlWlGZFaVaUZkVpVpRmRWlWlGZFaVaUZkVpVpRmRWlWlGZFaVaUZkVpVpRmRWlWlGZFaVaUZkVpVpRmRWlWlGZFaVaUZkVpVpRmRWlWlGZFaVaUZkVpVpRmRWlWlGZFaUfkrqFFaVaUZkVpVpRmRWlWlGZFaVaUZkVpVpRmRWlWlGZFaVaUZkVpVpRmRWlWlGZFaVaUZkVpVpRmRWlWlGZFaVaUZkVpVpRmRWlWlGZFaVaUZkVpVpRmRWlWlGZFaVaUZkVpVpRmRWlWlGZFaVaUZkVpVpRmRWlWlGZFaVaUZkVpVpRmRWlWlGZFaVaUZkVpVpRmRWlWlGZFaVaUZkVpVpRmRWlWlGZFaVaUZkVpVpRmRWlWlGZFaVaUZkVpVpRmRWlWlGZFaVaUZkVpVpRmRWlWlGZFaVaUZkVpR4aXuwAAABguuQsAAKBechcAAEC95C4AAIB6yV0AAAD1krsAAADqJXcBAADUS+4CAACol9wFAABQL7kLAACgXnIXAABAveQuAACAesldAAAA9ZK7AAAA6iV3AQAA1EvuAgAAqJfcBQAAUC+5CwAAoF5yFwAAQL3kLgAAgHrJXQAAAPWSuwAAAOoldwEAANRL7gIAAKiX3AUAAFAvuQsAAKBechcAAEC95C4AAIB6yV0AAAD1krsAAADqJXcBAADUS+4CAACol9wFAABQL7kLAACgXnIXAABAveQuAACAesldAAAA9ZK7AAAA6iV3AQAA1EvuAgAAqJfcBQAAUC+5CwAAoF5yFwAAQL3kLgAAgHrJXQAAAPWSuwAAAOoldwEAANRL7gIAAKiX3AUAAFAvuQsAAKBechcAAEC95C4AAIB6yV0AAAD1krsAAADqJXcBAADUS+4CAACol9wFAABQL7kLAACgXnIXAABAveQuAACAesldAAAA9ZK7AAAA6iV3AQAA1EvuAgAAqJfcBQAAUC+5CwAAoF5yFwAAQL3kLgAAgHrJXQAAAPWSuwAAAOoldwEAANRL7gIAAKiX3AUAAFAvuQsAAKBechcAAEC95C4AAIB6yV0AAAD1krsAAADqJXcBAADUS+4CAACol9wFAABQL7kLAACgXnIXAABAveQuAACAesldAAAA9ZK7AAAA6iV3AQAA1EvuAgAAqJfcBQAAUC+5CwAAoF5yFwAAQL3kLgAAgHrJXQAAAPWSuwAAAOoldwEAANRL7gIAAKiX3AUAAFAvuQsAAKBechcAAEC95C4AAIB6yV0AAAD1krv4e9/97ncn7HD22WdHb6defvnl97znPY2lve1tb3vqqadiRu9Zv379HXfcMXHixH322aexwXvttVf6580337x27dooGoH+/v6rr766seRf/OIX0VuPrVu3nn/++WlFu+2222233Ra97Rnhdqanp1f5ggsuSK/77rvv3tiGgw8+OL2X5syZ09fXF3X1Swdh8uTJaQNqfeNt3rz55z//+amnnnrQQQc19jdJb6Gjjz566tSpy5cvj7puq+M4pwWmY5UW9Za3vGX27NnR+0ajs79Lly593/ve11h4/qfQihUrjjjiiFS23377zZs3L3oBoFfJXSOShjg/+9nP0lA1/j3GjcPclQboN9xwQ0pZje1slWalMeWmTZviCR1Jg8LGoDapO3fdf//9e+65Z1rRRz7ykeGGxpFs5wsvvJDW2HjuoNLcRYsWRXXN7r333j322COttKY3Xnrb3HjjjXvvvXdj1waVstApp5ySskE8p0tqOs6333574+kf/OAH16xZE707jNr+DgTmhiF/Ck2bNi2tN1WecMIJ69evj14A6ElyV4f6+/vTILUxABp5ROkR4y13pYFaeZCX8alPfarjUd2yZcve//73x4Jqzl0D5wpS6njggQeitz0j2c6HHnpoILBlpBA73K3qQPqPud9++zXWWMcbb926dZ/4xCcayx9S2oB0cOKZI1bTcd62bdupp57aeO4ll1wSvTuM5v4O5KiGIX8Kvfbaax/72Mcaxddff336sRwzAKD3yF0d+v73vz8wPpC7BtXjuWvrjuvxBuy+++5HHnnkuYUPfOAD5fFfcsYZZ6SnxJPbltLaCSecEIso1Je70uadc845jbVMmjRpWOfoRrKd5ZzTsM8++5x88snp8KbHpnOJ6Z1QdRlbVzSlx66/8VoPVDKwv+l/zaGHHtr0zunWVXD1HeclS5Yccsgh6Vlpy5te99Hc30WLFh1wwAGxlEI7P4VmzpzZOMGbdrkrxxkAaiJ3dai7EaVHjKvc1fSX9TS4TKPPmFdIo8DyBV2peLgfl0pj1tbzafXlrrTkxgD0rW9967CyzUi2c+3ateWjlEb/d9xxRzmgpvg3derUcipI4Xb16tUxu6tWrFhxzDHHxGoK3X3jlT//1nDEEUfMmTOn6TRL2oxTTjml/O5KZSO8AK/W45xe68bWvutd73rppZeid3T3N23/pEmT4vk7tPNTKB2EgXfviSee+Nprr8UMAOgxcleH5K4h9XLuSuPRxifyG1LoStkj5pU0/bH/8MMPb//mAatWrTr++OPjmSU15a7yuPz000/ftm1bzBjKCLfzlltuiSdMmJBS3/333x8z3mjgU2cN6Z0WM7rnueeeG7gfw4DuvvGaTshUvW2Svr6+66+/vhxFrrnmmpjXkVqP8yWXXNKoP+mkkzZv3hy9o7u/N954Y/npDW3+FJo9e/Zb3/rWVJ+WMG3atOgFgB4jd3VI7hpSL+eu8ij2oIMOWrx4ccxo0XTdWnpizMh68skn3/3ud8dz3qim3HXbbbc1hq1pADp37tzoHcoIt7Mpvl599dVVH7BJ/VOnTh0YWKdndfGUV1p42tr0HmssvKy7b7yUJWK5Q71tkvJ5mGQku1zrcV63bt3AScKmnDZq+zt//vymSygb2vwptG3bttNPP73xlPrOpgLACMldHZK7htSzuav8WfxkyD/Ml0PaxIkTq/7k37Bp06avfvWrA3fZTtIg+I//+I/jH/XkrjTQTMPNxvI/+clPtvPJrq5sZ6oZGOIfcsghTRdqNimHh/Sse+65J2aMTIoNabg/sBlJ2ouBf3bxjVfOJ0k753OmT5/euK1ikrk/+5BqPc7p+DQia9MWjtr+ls8qp/T16U9/ujGdtP9TaGDVaZeHez0wAIwOuatDcteQejZ3DQw0k3bODr300kvvete7GvWZ0WRfX9/dd9994IEHNiobGp/DKV/IV0fuGjjZ1c44u1vb2d/fP3Abj6SdixuvuuqqqJ4w4dRTT23/YshBpeh4ww03NN3c/IADDrj//vvreOM999xz73jHOxqLbTNUlP8LJJ3dy7Hu41x1B/nR2d/yCbr0mKavv/76xtOT9n8KpfA2ceLExrOc8gKgN9WVu9JvwWnTpp1wwgn7779/43dh+p2ahnqpJw3v8l8rVD4dkX6Lp9/ljf70rBtvvPHoo48e+Ox4WvgnP/nJNEAsf768HWlRaTPK35O75557Hn744ZdeeumiRYuqruFJ0jigUV8lbXm3Pti9efPm6dOnX3DBBR/4wAfKH5dP06knbeq8efPSGDqq27B8+fI0rDnqqKManwBp3L4vHdKBEzjDyl3pmM+YMeO0004beInTwUz/TFvVOIDDyl1pnHTzzTeXX5G0eQcddFAaNd53333d/az8XXfd1VhFcswxx6xbty5mVNi4cePA3+OTm266KWa8UXofRsUORxxxRBq8Np1e63ruKo8427m4q1vb2XQ+JB3VmFHt4Ycfboywk/e9730jHByX364N6WVatWpVTYG/vPGHHHJIO/eNaDqkaYNjxnDUepxTJBu4g3xKd+UffaOzv+WbNKaXL72ZO/7rz8AT02Z362wqAHRR93NX+tV72WWXlT/b3SoNqS+55JKB4X6T8i/vRu5KQ/z8l9vuu+++v/zlLzN5aUBaaVp1+fKqVh+p/uLR0cldaSO/+tWvZvZ3wGGHHTZr1qwhdzy/1wNHr80RT6pMK02rjtI3SoOeyZMnp8Fim8PfNFBO9flXJB2KlBjbuXyuHQN3EUjOPPPMdt427TylnGfKG9w0GO167ipf3HXxxRcPuTvd2s7y+ZC99977ySefjBnVOnhKRvntmt7Dd999d+PPEDXlrvnz55977rlHH330QQcdlMJMWkvMqJYCT/lWH7fffnvMGI5aj/PKlSsPPfTQVNaaVUZhf9PPpYFTrAN3n+84d6UXOr3cjSe2ebUtAIymLueuNNr++Mc/3vjNN6T0GzqND+KZJU256/nnny9/XLtKGrjfeOON+UFn5i4CTVJuvOWWW1qXNgq5Kw132tzIhiF3PB3kgc97VEn7e++997ZzhU/KwNdee20+JiXpbZCy65DD38WLF5fvWpGXhmgppMUzO9V08uo73/lOzMi66aab4gkTJhx33HEbNmyIGSWNPJPGr6ecckr55ECtuSu97gMXoaVVt7Pwbm1nB+dDmsblI/wO5cYAPb0Vm/6IU1Pu6kA5CaRjlY5YzBiOWo/zQGhvuoN8Z4a1v+mtO/ADJxWn/N/4IdZx7iq/gYd1dxkAGB3dzF1pRN70RbRpNH/UUUede+65Vd+wmUbS5QFTQ/nX54EHHvjJT36yMZ2kBR577LFpaWmZRx55ZNPoPz/GKl/Q0pCefthhh6UNa3zx6MAVbg3locCAO+64IxUnH/7wh6NuwoT3vve9jc7khhtuKN+Iebia7p6XpI1Mg8gpU6Y0lp8yQ9N2Jpkdb11g2q8PfOAD6QA2HcO0kL/9279tTCeDjnjS0UjHpOlF3GuvvQa+vLW8bSl6DXyIaNAtTC99OQIlaVETJ05s7Gna5Xe+850xY4eUMYZ7TWmTDq7aShpZpSG9HIP+7T+NMj/1qU+1nimtNXcNfONt0ubQuVvbOdzLNZOmVaQRdszoyM0335zew605pHdyV/l+gB0Hm1qP88CJ3KY7yHdmWPs7e8fN35PGFYaN/o5zV1L+YFs7NwIBgNHUzdz12GOPDVxemIbmV199dfr1H/N2SMPE8lA7lbVeiN80aGhII/Lrr7++aYFpyNU0cK+6zqopfjT+Rt70MbO+vr6ZM2eWzzWl3akafY5kcFBl27Zt5513Xiy0ODhf+tKXWj8Ll3Zwzpw5TaewBt3xFFGaThWmw9V0M7S0/LSWpiiVDLpT5aFSkl6UFETLQaj1GDYMOvxNzx1YbzrUP/rRj5oyVdqj+fPnl/d05H/GLg/KkzZTUNrxt7zlLY2nvOMd7xj0PG2Vpvdzd3NXWtrAMUwv7saNG2PG8A13O8v/BdITW/+ztyp/mihJ/wdjRlf1SO5avnz54Ycf3tiMZFhfqlZW33Eu/w0ik83aNKz9TT92Br5ubuAKw4aR/Ggt/3do81gBwKjpZu4a+NNpkvmcSfma/qT176xN478k/WJOSSNmv1HTOZNDDz105cqVMW+HpjyThvj33ntv1eY1fY1sGhy0Jp+kjty1cOHC8hm5zLf0JK+88kr5vM2gfwhPEWggCSfpIAz6mYe0ltazWK07lZ47adKkmJ19UVpPsrUOf9OLnl76mJ39XqylS5eWL5oa4WC9zZsTNkkbn3ah8azhDuWHm2eGpfyf7qqrrorejgx3Ozu7OWF6X8Vzuvcfp0kv5K6mk/977LHH9OnTY94w1XecB97V7f9HqDKs/U0/cC677LJGZfqxc+ONN8aMwkh+tJY/2Dbcv48AQN26lruaPjaTH7SV7wTQejlK0/gv/WLOfx9LeWmDfoi8nGfS0lqvHmyyePHigw46aKB+0Ftj1ZG7Bm7onLRzY7ryBUitH/xI47OB7xJNqgJkQxo2le9VnbTu1Ny5cwdOdqXDMm3atJgxmHnz5g0ElaR1+Fv+CMqQg+PyN2i1ealVlYGxZjLkegd09qyG+nLXhg0bjjvuuFhu29dMVhnudrYzsm/V2bOGpRdy1/3331/+k8fkyZObzuW2r77jXHUH+Q4Ma3/Lfw868cQT0xsvZhRG8qO1fAYvGeEHCAGgu7qWu5oGbfkhYEoIhx12WIoKJ5988te//vVXXnklZhSaFjXoKayy8hmMpHW8WP7UQT5+DCg/ZdBPPtSRu2bMmHHBBRccffTR+++/fzvnLvJhoHxYqtJjWdPZttadKv/dfeJQXx+cku3FF18c1YNtXnlwPOSf21OWPvDAA1NOmzJlyvXXXz+SO5XlD1qVzp7VUF/uKr/EI789oNzVLQ899NDAuyU56KCDFi9eHPOGr6bjvK36DvLDNaz9TT/8B64cTj9w5s+fHzN2GMmP1vJOJW3eNQcARkfXclf6tX3mmWfGr7vqexW2o2n8N+SlNU1/42waLzYtLf1SjxlZ5c/ztJ6RS+rIXcOVDwPpOKS41Zg76C40aRqyNO1U02FsJxaWj2Hr5jWdq+nKvQrbkT9oVTp7VkN9uSsFrRS3Gott5yXOk7u6Ys6cOeW/X+y55573339/zOtITcd54A7yyUjOlA5rf9MPmQsvvLBRmX46NV1h2DDCH63lPw+1+S0RADA6uvn5rnvuuWdgoJ+kX8BTpkyZPn36cG+T1TT+G/JvlvnxYtNpnzZv5bxixYqB28TtsccejzzySMzYofdzV3n80ebNysp3S2/aqfJhHPSAtBrySsLyScUkRYgLLrjgiSee6PiKrHbkD1qVzp7VUF/uSouKhXbja4jlrpFL/y/KIWT3Nr7cYkg1Hee0qY3Ls0fyOajh7m/5csTWKwwbRvijtfxDLL2fB10FAOwU3cxd5VtUlaVfxkceeeR1112Xfrs3vtg0r2n8l36PxowK+fFi+axLGmd89rOfLe5SPoQzzzyzfOO+1r8H78TclRLUvHnzrrzyyoMPPji2oGV82XT68bzzzosZWeVvCmraqfKplbe//e0LFiyIGdXKH/kbdPhb/hxdWRqZHXvssbfffvvSpUu7/ufqzhJUZ89qGG6eaV/5TTjyIeZwt3PIkf2gOnvWsOyU3JXeqPfdd99epe8670roSmo6zgN3ZOnsndPB/pZvtzPoFYYNI/zR2t0/RgBAF3UzdyVpiHPAAQfEL73BpN/Tp5122owZMzLnNIY7/svXl38NdywNBWJxOww5OCiPezLye5diaho3PPbYYyn4pXHSxIkTW7+8q6FpfNl0TFq3f1DldNG0U+XDmAa1aWgbM7IGDkLV8PeBBx4oD91apfHZBRdckHJmVWIf7nEun7hr/zNR5SMz3KH8cN/P7du5uauzC7rKr1fTe6xbRj93pX2/5ZZbBs7kJGl60C9e70Adx3mEd5DvYH/TD/zzd9zwcLfsrZKG/NGa19lPKgAYBV3OXcmKFStOOeWU8gWHg0q/py+66KJBfykOd/yXry//Gu5Y69BkyMFBedyTMejepT268847W78YOqNpfNl0TNocWpXTRdNOdTaaGTgImeHvokWLBj1N2iRlpGuvvbb1Zh7DPc7lQXky6PFvVT5r2jvf31UekadVpBXFjI4MdzvL/wXaXHvTZwhH+JUAVUY5d6VEcfnllzddYp3+/3YldCV1HOeB/+lD3tKmVWf7e++99w7cdXbSpEmZW+MM+aM1b+D6yUTuAqCndD93NSxfvjz9bi5f+j+oAw44YNasWfGcHYY7/svXp3/GjBFozS1DDg6Gmwca+vr67r777n333TdmV0uR7OCDDx4YYYzd3JWkEVtKX+ecc07+3FdyxBFHNGWe4R7nzu403dnuNwz3/dy+8r63OSLPGO523lX6GoPjjjtuw4YNMaNaZ2/L4RrN3JXeTp/73Oca62pIa3zooYdidjfUcZw7voN8Z/tb/gq+9DM//WePGYMZ8kdrXvmHmNwFQE+pK3c1pPF0+o2bfscfe+yx5YtSylov9B/u+C9fP5IRc0Yduav1D8ll6QC+973vnTJlyq233poGLqm4PMJoGl92NsAtL7Bppzo7jAMHoWnzqqTYmWLVddddlznXl6JX+ZvKhnucm76vuc0jM5IP6w/3/dy+nXu+q4MTC+VbrSRdPBRlo5a70vuwnOGTFCrmzp0bs7uk68e5fDZsWHeQ73h/0wbEE0amnTdM+UOqXfyBDwAjV2/uKks5IaWFprtBNFx88cXl3/3DHf/l68u/htu8IUQ7RvhH2UGVL8VJUvD4m7/5m5/85CcvvvjioHcjzOSupBxI2tzC8tV0TU/Jr2tQ5eFdB8PftMtz5sy54IILWs+a3nLLLVHUkYE7CiRtHpnyU4Z7c+r6clf5TTj6uSsl5He84x2N4jZf3/JT2v9w3XCNTu5K+1LONsmRRx45ku/pqtL149zZHeRHsr/pvRTPGZl2/u+U1yV3AdBTRi93DUhj1hkzZpQH0+nXefmuU93NXSlopbjVmJUCWDu/udvR9dy1fv36iRMnxhLb+0NyGoGlcVijvnVA9p3vfKcxK2lzUF6+oqlpp8o31m/zMJav6BvJ8Levr++OO+4ony894YQTNm7cGLOHr7ybaQvTdsaMCuUbMyZD3mCzyXDfz+3r7i2zh7udTVdstjOCL/8RpOl/fReNQu5Ky0z/QxuraPjEJz4x5BupM10/zh3cQX6E+5veS/G0kWnn/055XfW9xwCgA13LXen399SpU08++eSDDjpoypQp27LfdJzceeed8buxZWw03PFfvn7NmjUf/OAHY17LubUqCxcufNe73pWSRtqjK664YtmyZTFjh67nrvK5pjRmmjZtWsyo9sADDzTqk9bxZXns1c4AKx2Wc845p1GfNO1UU/Zo544IaXvSVjXqWzdv3rx511xzTVrmgQceePXVV0dvhbRtV155ZWNRyQj/jJ3fsFblswcd3IegvtxVHmKO/E/7w93OpjdMO1eslU8bnjrU96F3rO7cNX/+/He/+92N5TecddZZ6ejF7G7r+nEeuDw1vdztbPbI9zclvbSENpVv2brXXntFbyEtJ5ZYrbsngQGgi7qWu9IobWCUf+ihh65cuTJmVMiMfYc7/svXpzFKyloxb8KEFAuHvDYmPSUlgXhCRWjpeu4qn4RpMyaV96t1fFm+mihJGxwzKixZsmTgjFbSulPlXT788MOXL18eMyqUvxa5dfOGOzzqYsZoesOk7YwZFW655ZYobe/8WJPhvp/bV/5StfbPXVTpYDtTzcD/+vTmSW+hmDGY1atXH3HEEY3ipJ3zNp2pNXeVv4QqSbt/+eWXb63zm76TLh7n8nn1FMCit9ro7+8If7R2cBUxAIyOruWu8tcipd/NQ56uaRpJlO+UMNzx35D1M2fOLF+ldv755+fHDfPnzy9fBvnZz3629eNVXc9dA3cYS9r5HNrs2bPL3+zcOr4cVuBsippJ604tXLiwfFhSfXpWzGvR9J3IrZtXPr+XdmTIk0jlA97mXd0yylEqf2TKt2JLhgxprerLXeWLPzs4Edekg+1sGuJn3hKp//rrr4+6NsLDSNSXuzZt2jRp0qTGkpP0Eyy9H+oOXUkXj3M6GumYpFl77LHHkKePdsr+juRHa/kzpcl3vvOdmAEAPaBruSv9wjv99NPj111xl8J58+bFvBbr168//vjjo7TlSpiu565hjR7WrVv38Y9/PEqLuwim2BbzSsqDg65cMVW+LDBJg6dMqpk7d27Txy0GvUvBokWLymXpmK9atSrmlaQV3XvvvU03nGwd8aSyyy67LGZnv7Sn6RgmrcPfps+zvf/972+9mHNAU/hp5+/0ecuXLz/88MNjcRMmpK0d9CxW2sjy1ZXtnCxtVV/uarr4M0X3mNGRzraz/B8hvSXSG2nQt8T9999ffoPlQ/sI1Ze7brvttvJ/0iH/gtNF3TrOw7qD/E7Z35HkrvJV5WnL0w/VmAEAPaCb99VoOgOz77773nXXXa2/p1MY+NCHPhRFgwWbrueupOkUVnLSSSc9//zzMbuQBiizZs067LDDoqJQNdQon55KS54zZ07M6FTTZX7psKTo1frtoikwXHjhhYPeY711x9MeTZ06tTxySnuX9rE8FEtH75vf/GbrAgcd8TRddJSedckll6RwErOLNaZDXf7bfMOgw99p06Y1bVt6J/T19cXsQuNFeXfp4yUpSea//6dNTWPK9J5sWmz6Z/kLnVPxjTfeGPOGo77clZRvJX/eeedFb0c6287Vq1cfeeSR8ZzB3rdpOr0Jy9/Mlt4e5fPbTdIbL+o6TU2d5a4h19uU1fN70b4297crx7l8OmjIz4nVtL9DGknuKt9F6V3vetdLL70UMwCgB3Qzd6Xf4uXzIQ1pHDBx4sSUXpKTTz55//33jxk7tAabOnJX0vSX4IZ3vvOdU6ZMSduQHpuCWXLsscdWfY6o/KU6SRqUH3jggSke/M3f/M3atWujaDjS0bv6jVf6Jfmjl5LtwLWdyaBfAZyObXpuVOwwsNeZ71WrGvHMmzev6UClJaTlpKWlZaYlR+8bDTqgTCPF8nnIhn322eeEE054fYfPPz9NlD9kn6TjnAaX+fFim1qPTFr4oYcemnb83HPP/cAHPlBOZUkqHjSBD6nW3FV+H3bw2bOyjrez9S2R3reNFzG9actJIEmVmTPhSZs5JKOm3FW+NrUzKVHEskra39+RH+dh3UG+pv0d0khyV/lWQyeddNKgX78BADtLN3NXkoZuZ511VvzeG0oa155zzjnpKfHkHYY7/mu//qGHHkojm6gbShrFZv6+2/Tn5wEj+SPr+vXrP/WpT8WChvLRj3506dKl5513Xvy7+sMMbb4oadx2xRVXDByfzIgnjfWbxn+DSvvy6U9/ujFdNaBctWpV+YrTvN133/3aa6/tLPwMKh3wyZMnx9Kz0r6UT+sNy3Dfz8NSHkm/Y2S31hjJdrb5Pyu9xwb960BZb+au9OqXL4vtzAhzVzLC4zyQ0od8q9S3v0MaSe4q31RjhN/yBwBd1+XclfT19aVfeAO3Waty4IEH3n333U0XlTXUl7uSFKXSUHvQ6/QGpFHL1KlTy9fwDGrQ+DHC2xukfUlDh/zmpTHlz372s8ahK1/umA5CenpjOU1ScTra++67b5S2OOyww5588sk05hsY1eVHPOkwnnLKKU1nhAak7f/qV7+aDuDAmDIzoExlV155ZdVptwFHHHFE0xWSXdF6dVaTNt8MGSPJM0NKB6R895SRfMRrhNvZdFlmqzS3nQtEh5VDBlVH7kopJWWVmN2pkeeuZCTHuf07yNe3v0PqOHeVP9yVfjIvXLgwZgBAb+h+7mrYunXrjBkz0m/N9773vQND6jSR/pk6H3/88cxZi+GO/zoYL65evfrmm2+eOHHiwJV7KUKkKPjJT37yvvvuy49IylL8uOiiiw4++OByAhn5DbKXL19+zTXXHH300QN5IB26ww8//NJLL503b145rJbvMTjkXQHTfk2bNi3t9cDFe2ki7XI6Yo2XI4350sivMWvIEU8a8afh3QUXXJDGuI2gmB5Tfvv617+etr9RMzCmHHJAmbYtHflTTz31oIMOGoidafc/8IEPpL1+9tlnB43o3bJ27do77rijfGTSqtM/05uks6tGyzp4fw5L+VLDkdziZeTbmV6j9P4svyXS/4v0vyO9DebMmdPmKzjwnknaT01ldeSu8n+NjnUldyWdHefy6zvknWnq298hdZy70k+/gVuknn766SO/1xEAdFdduQsYHeVLwkZ4qSGMXQNn8/bYY4/p06dHLwD0DLkLxrx77rln4Iyrj7UwDpW/4mzixIkdfxoTAOojd8GYV77Li0En49DAnx7S45Df2g8AO4XcBbuCga8jc5EV482mTZs++clPFn92eP22IiP/TCYA1EHugl1BGmsO3OZu8uTJXbzbPvS4ga/sd7ILgF4md8Eu4oEHHmjc2HDIO1vCLmPr1q0D38J34oknvtb23WgBYJTJXbCLKA9AnfJinBg42eXPDQD0OLkLdh2LFy8+6KCD0hh0zz33nDlzZvTCLmrTpk2TJk0q/tQw4eqrr+7696oDQBfJXbBLmTZtWuMGGx/72Mdcc8Wu7d57721cW3v88ce7jScAPU7ugl3K1q1bzz///DQSTenrtttui17Y5Qx8fcJ+++03b9686AWAXiV3AQAA1EvuAgAAqJfcBQAAUC+5CwAAoF5yFwAAQL3kLgAAgHrJXQAAAPWSuwAAAOoldwEAANRL7gIAAKjX8HLX19sWT8iK0qwozYrSrCjNitKsKM2K0qwozYrSrCjNitKsKM2K0qwozYrSrCjNitKsKM2K0qwozYrSrCjNitKsKM2K0qwozYrSrCjNitKsKM2K0qwozYrSrCjNitKsKM2K0qwozYrSrCjNitKsKM2K0qwozYrSrCjNitKsKM2K0qwozYrSrCjNitKsKM2K0qwozYrSrCjNitKsKM2K0qwozYrSrCjNitKsKM2K0qwozYrSrCjNitKsKM2K0qwozYrSrCjNitKsKM2K0qwozYrSrCjNitKsKM2K0qwozYrSrCjNitKsKM2K0qwobZvc9feiNCtKs6I0K0qzojQrSrOiNCtKs6I0K0qzojQrSrOiNCtKs6I0K0qzojQrSrOiNCtKs6I0K0qzojQrSrOiNCtKs6I0K0qzojQrSrOiNCtKs6I0K0qzojQrSrOiNCtKs6I0K0qzojQrSrOiNCtKs6I0K0qzojQrSrOiNCtKs6I0K0qzojQrSrOiNCtKs6I0K0qzojQrSrOiNCtKs6I0K0qzojQrSrOiNCtKs6I0K0qzojQrSrOiNCtKs6I0K0qzojQrSrOiNCtKs6I0K0qzojQrSrOiNCtKs6I0K0rbJnf9vSjNitKsKM2K0qwozYrSrCjNitKsKM2K0qwozYrSrCjNitKsKM2K0qwozYrSrCjNitKsKM2K0qwozYrSrCjNitKsKM2K0qwozYrSrCjNitKsKM2K0qwozYrSrCjNitKsKM2K0qwozYrSrCjNitKsKM2K0qwozYrSrCjNitKsKM2K0qwozYrSrCjNitKsKM2K0qwozYrSrCjNitKsKM2K0qwozYrSrCjNitKsKM2K0qwozYrSrCjNitKsKM2K0qwozYrSrCjNitKsKM2K0qwozYrSrCjNitKsKM2K0rbJXX8vSrOiNCtKs6I0K0qzojQrSrOiNCtKs6I0K0qzojQrSrOiNCtKs6I0K0qzojQrSrOiNCtKs6I0K0qzojQrSrOiNCtKs6I0K0qzojQrSrOiNCtKs6I0K0qzojQrSrOiNCtKs6I0K0qzojQrSrOiNCtKs6I0K0qzojQrSrOiNCtKs6I0K0qzojQrSrOiNCtKs6I0K0qzojQrSrOiNCtKs6I0K0qzojQrSrOiNCtKs6I0K0qzojQrSrOiNCtKs6I0K0qzojQrSrOiNCtKs6I0K0qzojQrSrOiNCtKs6K0bZ3nrugCAAAgS+4CAACol9wFAABQL7kLAACgXnIXAABAveQuAACAeg0vdwEAANAQp6QK0VVB7gIAAOhERK5CdFWQuwAAADoRkasQXRXkLgAAgE5E5CpEVwW5CwAAoBMRuQrRVUHuAgAA6ERErkJ0VZC7AAAAOhGRqxBdFeQuAACATkTkKkRXBbkLAACgExG5CtFVQe4CAADoRESuQnRVkLsAAAA6EZGrEF0V5C4AAIBOROQqRFeF4eWuWGQhugAAAMiSuwAAAOoldwEAANRL7gIAAKiX3AUAAFAvuQsAAKBechcAAEC95C4AAIB6yV0AAAD1krsAAADqJXcBAADUS+4CAACo1/ByFwAAAA1xSqoQXRXkLgAAgE5E5CpEVwW5CwAAoBMRuQrRVUHuAgAA6ERErkJ0VZC7AAAAOhGRqxBdFeQuAACATkTkKkRXBbkLAACgExG5Cngu6qUAADNmSURBVNFVQe4CAADoRESuQnRVkLsAAAA6EZGrEF0V5C4AAIBOROQqRFcFuQsAAKATEbkK0VVB7gIAAOhERK5CdFUYXu6KRRaiCwAAgCy5CwAAoF5yFwAAQL3kLgAAgHrJXQAAAPWSuwAAAOoldwEAANRL7gIAAKiX3AUAAFAvuQsAAKBechcAAEC95C4AAIB6DS93AQAA0BCnpArRVUHuAgAA6ERErkJ0VZC7AAAAOhGRqxBdFeQuAACATkTkKkRXBbkLAACgExG5CtFVQe4CAADoRESuQnRVkLsAAAA6EZGrEF0V5C4AAIBOROQqRFcFuQsAAKATEbkK0VVB7gIAAOhERK5CdFWQuwAAADoRkasQXRXkLgAAgE5E5CpEV4Xh5a5YZCG6AAAAyJK7AAAA6iV3AQAA1EvuAgAAqJfcBQAAUC+5CwAAoF5yFwAAQL3kLgAAgHrJXQAAAPWSuwAAAOoldwEAANRL7gIAAKjX8HIXAAAADXFKqhBdFeQuAACATkTkKkRXBbkLAACgExG5CtFVQe4CAADoRESuQnRVkLsAAAA6EZGrEF0V5C4AAIBOROQqRFcFuQsAAKATEbkK0VVB7gIAAOhERK5CdFWQuwAAADoRkasQXRXkLgAAgE5E5CpEVwW5CwAAoBMRuQrRVUHuAgAA6ERErkJ0VRhe7opFFqILAACALLkLAACgXnIXAABAveQuAACAesldAAAA9ZK7AAAA6iV3AQAA1EvuAgAAqJfcBQAAUC+5CwAAoF5yFwAAQL3kLgAAgHoNL3cBAADQEKekCtFVQe4CAADoRESuQnRVkLsAAAA6EZGrEF0V5C4AAIBOROQqRFcFuQsAAKATEbkK0VVB7gIAAOhERK5CdFWQuwAAADoRkasQXRXkLgAAgE5E5CpEVwW5CwAAoBMRuQrRVUHuAgAA6ERErkJ0VZC7AAAAOhGRqxBdFeQuAACATkTkKkRXheHlrlhkIboAAADIkrsAAADqJXcBAADUS+4CAACol9wFAABQL7kLAACgXnIXAABAveQuAACAesldAAAA9ZK7AAAA6iV3AQAA1EvuAgAAqNfwchcAAAANcUqqEF0V5C4AAIBOROQqRFcFuQsAAKATEbkK0VVB7gIAAOhERK5CdFWQuwAAADoRkasQXRXkLgAAgE5E5CpEVwW5CwAAoBMRuQrRVUHuAgAA6ERErkJ0VZC7AAAAOhGRqxBdFeQuAACATkTkKkRXBbkLAACgExG5CtFVQe4CAADoRESuQnRVGF7uikUWoguArlqyZttd8zZ94xcbvnp/aus9emzz8aoHN/zw1xvnvLQ13kkA9BK5C6BXbNjc/3ePb5p0y9qPXPuKpnXW/vcNa775yw0LVmyLdxUAvUHuAugVN858rTF0PvY7awaG0aZNdzB94V2vvvSK6AXQQ+QugF4xMG7WtJG3b/5yw6at/fHeAmBnk7sAekUaK3dwZsO06appn/UC6B1yF0CvGBgxa1pX2g9/vTHeWwDsbHIXQK8YGC53cGbDtOnW6ase3BDvLQB2NrkLoFcMjJs1rSvtq/fLXQC9Qu4C6BVpoNzxmQ3Tplunv3r/+nhvAbCzyV0AvWJgxKxpXWnOdwH0DrkLoFcMDJc7OLNh2nTrtNwF0DvkLoBeMTBu1rSuNLkLoHcML3cBUJ80UO74zIZp063TPt8FULc4JVWIrgpyF0CvGBgxa1pXmvNdAHWLyFWIrgpyF0CvGBgud3Bmw7Tp1mm5C6BuEbkK0VVB7gLoFQPjZk3rSpO7AOoWkasQXRXkLoBekQbKHZ/ZMG26ddrnuwDqFpGrEF0V5C6AXjEwYta0rjTnuwDqFpGrEF0V5C6AXjEwXO7gzIZp063TchdA3SJyFaKrgtwF0CsGxs2a1pUmdwHULSJXIboqyF0AvSINlDs+s2HadOu0z3cB1C0iVyG6KshdAL1iYMSsaV1pzncB1C0iVyG6KshdAL1iYLjcwZkN06Zbp+UugLpF5CpEVwW5C6BXDIybNa0rTe4CqFtErkJ0VRhe7opFFqILgC5pGjRr2gibz3cB9A65C6BXHHPtK5rWxXa5810APUPuAugVH/726jRW9uixW49fuc/5LoBeIXcB9Iq/+vbq1D787VcaE6ZNj3Ba7gLoHXIXQK/4n99KY+VXisfVpged/uwdr37vma1ffGBDpsb0wPSX5S6AniF3AfSKNFbWqtpxN6y5evamn6/d3mg/WLj1sz9+talGa2pyF0DvkLsAesXR31z1oW+t/tC3Xn80XZ6+8Bcb7l/dPxC6Bto1czb9r++t6WyZ42H6sp/JXQC9Qu4C6BVHf2tVGi4fXQyaTTemp/z01dtf3NYUt5raxQ+/NuhzTctdAL1D7gLoFf+jGDSnx0Yb59N/84M135m3uSliVbW/e2nbaXe9OuhyxvP0pT97Nd5bAOxschdArzjqm6u01D507eovz9jYlKzaadc/teXEH65tWtp4bnIXQO+QuwB6xZHXvJzGyuP88fM/W//TZX1NgWpY7auPbPyr77yeOjJrGSePl9wrdwH0CrkLoFeksfIHr3n5yGtWFY/jbvpvb1970zNbm0JUZ+3uFf1n37++g23YxablLoDeMbzcBUB9/vs30lh5VfH48rianvjd1Vf9+u/vEd+t9v2FWz/9d+sy693lpy++d128twCoR5ySKkRXBbkLoFeksfI4bF/8+Yb7XxnkHvHdalc/vumvb1jdtNJx0i5yvgugZhG5CtFVQe4C6BVHXL3y//3Gy//vN15/HA/Tn/3x2h++MMQ94rvT1mw//5cbBt2GXXv6onuc7wKoV0SuQnRVkLsAesUR31iZhstHpEFzmtilp//X91/59hPt3iO+W+1Hi7d9btqrg27Prjr9JbkLoGYRuQrRVUHuAugVHygGzcXjyl11+r9/8+VLpr/WlIhGs1331OaP/eCVjrd/bE1fKHcB1CwiVyG6KshdAL0ijZXfv6PtktOn3/vqT0Z2j/hutctmvnbkt18ub9suOS13AdQtIlchuirIXQC94vCvr0hj5V3y8cQfrrnhmS1N4WfntrtW9J1536uZbd4FHi+4W+4CqFdErkJ0VZC7AHpFGiv//76+4vCvvz5o3mWm/+q6l698bGNT5umd9r1nt3zi9jUd7NeYmJa7AOoWkasQXRXkLoBecdhVaay8snhcsWtMf+GB9ffVeY/4brWvzd744e+uyu/LWJw+/+618d4CoB4RuQrRVUHuAugVhxXD5WhjfHrSj9fe+sLWpnjT023N9vN+sX5g+0ey770zLXcB1C0iVyG6KshdAL3ifVctf99VK9JjGjGP3em/vmnVN+duak41Y6TdvnjbZ36ytuN977XpL94ldwHUKyJXIboqyF0AveK9Vy1/79eWv/eqFa9PjM3pS3/dux/lar99e8GW939r5UiOQ49My10AdYvIVYiuCsPLXbHIQnQB0CX/rRg0F4/Lx+j053+96fLntt3w3Ji6wrDU7l3Vf/ZTmz+wZFd4LdL0eXetifcWADub3AXQK9JY+dCvvT5iHruPKXdds3J7al9esOWnK3viq7rab5fP3/I/X+hLoauRu/J7OiYez3W+C6BnyF0AveI9Vy5LY+Ux/TiQu1K7aln/FfO3PLimOd70YPvuc1tPeGZrI3E1WmYfx9DjudOc7wLoFXIXQK9IY+WivT5oHqPTZz22cSB3NdpXX+j79rO9e9nhncv7Jj+1pZy4Gq1pv8bo9BfkLoCeIXcB9Ip3X7Hs3VcuH9OPZz329+e7yu3Lz269bcm2psyz09uXntry319qTlyNltnHMfR4jtwF0DPkLoBe8V+vXPZfr1g2ph9bz3cNtKuXb//K01seaAk/O6V989ktxy3c1pS1yi2zj2PoUe4C6B1yF0CvOOSKpYdcsSw9pkHzGJ0+szp3NdqVL/VdvWBLUwoazfbDxdsmPT3IhYVNLbOPY2j67J/KXQC9Qu4C6BUHX7E0tTRcbkyMxekhc1ejfeW5bTc9P9qXHT7wyvYvDPZRrkFb036N0Wm5C6B3yF0AveK/fDWNlZeN6cc2c1dq31i5/cvzt9y9qr8pHdXUrliw5Zgd94hvp2X2cQw9fv6nr8R7C4CdTe4C6BVprNxoB+2YGHPT7eeuRrtqaf+VC7Y82BKTuthuen7rJxa84R7x7bSm/Rqj03IXQO+QuwB6xbsuX5JGzGP68Yxh5q5Gu/yFbdct6v695u9a2XdGGx/lGrRl9nEMPZ71E7kLoFfIXQC9Io2Vi/b6oHmMTp/xaCe5q9G+/MzWO5b3NWWnjtsl8zcf3ZKm2m9N+zVGp89yvgugZwwvdwFQn3devuSdly9951eKx7E5PZLcldrVy/svnz/Se81/e+GWj2XvEd9O62Dfe3D6zJ+sjvcWAPWIU1KF6KogdwH0iv/n8iX/z1eWjOnH00eWuxrtisV933i2k3vN/2jJts8O/6Ncg7bMPo6hxzNdZwhQs4hcheiqIHcB9IoDv/JSGiu//nh58TgGp7uSuxrty4u2/mDxMO41/8X5HX6Ua9CW2ccxNH3Gnc53AdQrIlchuirIXQC94j9/5aXUDvzKksbEWJw+/dHXmuLTSNo3Vmy/bP6W+9c0R6ymdtWzWz46nHvEt9Oa9muMTp/hOkOAmkXkKkRXBbkLoFcc8OU0Vl4yph+7eL5roH1tyev3mm/KWo128+Ktf/tMdy4sbGqZfRxDj6c73wVQs4hcheiqIHcB9Io0Vh7r7bSunu8qt8uf3/bd5/7+XvP3ru7/fFcvLGxqTfs1RttpchdAzSJyFaKrgtwF0Cv+02WL3/Hll95RPI7R6fpyV6NdtmDLnSv7vvzMlv+5tDkpdbd1sO89OD3lx3IXQL0ichWiq4LcBdAr0lj59VYMmsfo9Gmz6s1dN6/efuPy/lOWbz+iJSl1tzXt1xidnuJ8F0DNInIVoquC3AXQK/Z/faz8Unrcv3gci9P15a6pL2//ySuvX2GYclf65+Urtn9iWXNY6mLL7OMYmp7841Xx3gKgHhG5CtFVQe4C6BX7XbY42qVj9XFKDbnr2yu3/2h1fKxrIHc12vkrtn+0ngsOM/s4hh7lLoC6ReQqRFcFuQugV/zfl76Yhstj+rHrueuWVdvv35G4WnNXo52xfPvRLcFphC2zj2Po8dQ75C6AekXkKkRXBbkLoFf835cu3vfSF9NjGjSP0enJ3ctdN63afvdg39zVmrtSu3rl9knLm7PTSFpmH8fQ9KnOdwHULCJXIboqDC93xSIL0QVAl/zHS17c99LFY/qxK7nrupe3/7j4KNegbdDc1WiXrtj+8S5ddpjZxzH0+DnnuwB6htwF0CvSWHmstxHmrm+u2H7bquag1dQyuavRvrBi+0dGnL6a9muMNrkLoHfIXQC94u0Xv/D2S14c048jyV0/WL39Zy0pq7XdMFTuarTJy7d/sCVNtd8y+ziGHk+54+V4bwGws8ldAL3iP1z84n+4+IX/cEnxODanT31kQ1P+aafdsGr7tME+yjVoazN3pXbFyu2f6vRe8x3sew9Oy10AvUPuAugV+xTD5TH9eOojwzvfde3K7X9Xukd8O6393NVoX1q+/fjhX3aY2ccx9PjZv5O7AHqF3AXQK9JY+f+6+IUx/Tis8123rtr+QNunuQbacHNXo521Yvv/HE76yuzjGHo8We4C6BlyF0CveNtFz6ex8ph+bDN3fW/19ntaAlWbrbPc1Wifbfuyw8w+jqFHuQugd8hdAL3ibRe98JcXPZ8e06B5jE5/bqjc9d2Xt/+k+h7x7bSR5K7Uvrxi+9+0kb4y+ziGpj8jdwH0DLkLoFfs/aXn//KiF8b0YyZ3fWvl9tuH+VGuQdsIc1ejfXHF9r/OXnaY2ccx9DjpRyvjvQXAziZ3AfSKNFYe660qd/1g9fb7WxJUZ60ruavRTlu+/aiWxNVoTfs1RpvcBdA75C6AXvHvL3zu33/p+X//pefSiHmMTp/SkrtuXLX9ruHfPCPTupi7Urtq5fZPD3bZYQf73oPTn5a7AHqG3AXQK/7iS8//xYXPjenHU2b+fe667uXtPx7ZR7kGbd3NXY128YrtH3vjZYeZfRxDj3IXQO8YXu4CoD7/ZzFcfv3xwuJxDE4PnO/6YTc+yjVoqyN3Ndo5K7YfsyN9ZfZxDE2fdLvcBVCvOCVViK4KchdAr0hj5bde+NyYfjxl5oabV23/WVcvLGxq9eWuRvvcsu3/b5G78ns6Jh7lLoC6ReQqRFcFuQugV/z5BYvSWHlMP5758Kv31xm6Uptac+5K7XMLtmT2cQw9/u3tK+K9BUA9InIVoquC3AXQK/78gteHy2P9cf8rXvzmM5ubwlIXW63nu764uO+wO1Zn9m5sPcpdAHWLyFWIrgpyF0Cv2Ov8RXtd8Nyu8fg/vr/8tmV9TZGpK62m3HXFiu0TH1qf2aOx+Pip2+QugHpF5CpEVwW5C6BX/LvzF+1i7dSfr72n2zfYqOM6w5Pmbd77suebNn4XaHIXQN0ichWiq4LcBdAr3vLFhWms/JZixLzLTO990fNXzNvYlJ1G0rqbuz7//LZDbl7RwX6NielPyl0ANYvIVYiuCnIXQK/4s/MX/dkXF6Zx8+sTu9b0e69bevPibU0JqrPWrdx12bL+o+9bm9nmXWD6E3IXQM0ichWiq4LcBdAr/u0XF6bh8i78eOJdr0xb1d+Uo4bbupK7Tpi9MbOdu8zjiT9cHu8tAOoRkasQXRXkLoBekcbKu3z7swsWXTz7tQdb0lT7bYS5a8qzW/e/dmnTVu2qTe4CqFtErkJ0VZC7AHrFn5z37J9+ceGfnrcwPe7a0//P1S9NfWFLU6Bqs3Wcu760pP/9P1096PbsqtN/I3cB1CwiVyG6KshdAL3iT857fbhcPDbaLj498e9evnP4lx12kLu+tmL7R2eu73g7x+603AVQt4hcheiqMLzcFYssRBcAXfJvzn3235y3cFw9/skXF579yKv3rWkOV5k2dXlfU6zKt5Of2rz3FS9mtmEXfjzhVrkLoFfIXQC9Ys/znt3z3B1tPE3vc/nz31y4uSlfVbX2c9e5L/YdcsvKpnWNq2m5C6B3yF0AveJfn/tMGiv/62LcPA6nP3jz8ttX9DWlrNbWTu76yvLtH3pwXQfbsItNf/zWZfHeAmBnk7sAekUaMf+rLzzz+mMxeh6H0ykqfO6X6+55pTlrlduQuesTczf+6YWLOt6GXWla7gLoHXIXQK/4l194Jo2YPf7ZBQuveHpTU9waaJncdcZzW9/x3aWZJY+3x/99i9wF0CvkLoBekcbK2kB7z3VLfrB0W1PoSm3Q3HXxsv4j7n6laQma3AXQO+QugF7xz89Z8C++8My/OOeZ9Gi6Mf2Jn70ybfUb7jU/ddkbctc3Vmw/ftaGQZ9r+mNyF0DPkLsAesU/P+f14XLx2GimX297fvGZi+a89uBguetz87f85dcXN9WbHpiWuwB6h9wF0Cv2OPv1QbPHQR8PuHrx1Be3DuSuLy7ue8+PXs7Ue0yP/+sHS+O9BcDOJncB9Ir/45wF/8fZCzxmHv/6zpevW7Ltww+/mqnxOPB4vNwF0DPkLoBe8c/Onp/Gyv+sGDSbNj3y6ePkLoCeIXcB9Io0Yv7jz89Pj41m2vQIp+UugN4xvNwFQH3+6PPz//jsBR49duvx//u+3AVQrzglVYiuCnIXQK9IY2VN62KTuwDqFpGrEF0V5C6AXvGHZz39h5+f/4dnvT5iNm165NMf/f6SeG8BUI+IXIXoqiB3AfSKPzhr/h+c9XTx2GimTY9oWu4CqFtErkJ0VZC7AHrF7sWgefczi0fTpkc8/dc3y10A9YrIVYiuCnIXQK9IY+XfP/Npjx679Sh3AdQtIlchuirIXQC94vfOfCqNlX/vzKd//6z0aNr0SKcnyl0ANYvIVYiuCnIXQK9II+Y0XC4eG8206RFNy10AdYvIVYiuCnIXQK/4p2c89U/PfPqfFI+mTY98+tjvvRTvLQDqEZGrEF0V5C6AXpFGzJrWxfYRuQugZhG5CtFVQe4C6BW7nf7kbmc8tdvpr4+YTZse+bTcBVC3iFyF6KogdwH0in98+lP/uBguFxOmTY90+hi5C6BmEbkK0VVheLkrFlmILgC65B+d/mQaLnv02K3HD98kdwH0CrkLoFeksfI/PO1Jjx679Sh3AfQOuQugV/zuafPSWPl3T3vyH56eHk2bHun0X920ON5bAOxschdAr0gj5jRcLh4bzbTpEU3/lfNdAD1D7gLoFb8zZd7vnPakR4/devyfNzrfBdAr5C6AXvEPpszTtC42uQugd8hdAL3ityc/kcbKvz359RGzadMjn/6Q3AXQM+QugF7xW5Pn/dbkJ357SnpsNNOmRzQ98Waf7wLoFXIXQK/4zclPpOGyR4/dejz73hXx3gJgZ5O7AHpFGitHO3XHhGnTI5i+a8H6eG8BsLPJXQC94s2nzv2NyU/8xqlPpEfTpkc4/b9uXbJ+c1+8twDY2eQugF7xmTuXpeHym09Ng+ZGM226w+lDv/XcE8s3xRsLgB4wvNwFQH3WbNx23n0r/vTC+W869Yk3fe71AXR6NG16WNO/d9aTx9+65KHnX4t3FQB1ilNSheiqIHcB9JanVmz68i9f/usfvHTk1Bd34fbhqx4a/XbUdc82bcau1D78vcVn3bN82vxX450EQP0ichWiq4LcBcBO8OlPf/qkk05Kjw2jM/3cc8/F6gGgGyJyFaKrgtwFwGjr7+//zM7w/PPPxxYAQDdE5CpEVwW5C4DRlnLXZ3cGuQuA7orIVYiuCnIXAKOtr6/vczuD3AVAd0XkKkRXBbkLgNG2bdu2KVOmTJ48eZQf5S4AuisiVyG6KshdAIy2LVu2nLbD6aefHlP1T7uvBgDdFZGrEF0V5C4ARtumTZvOPPPMM844Y5QfFy1aFFsAAN0QkasQXRXkLgBG28aNG88666zP7zBq0wsXLowtAIBuiMhViK4KchcAo+3VV18955xzzj777FF+fOaZZ2ILAKAbInIVoquC3AXAaFuzZs25O8PTTz8dWwAA3RCRqxBdFYaXu2KRhegCgGF6+eWXv7gzPPHEE7EFADC65C4ARtvy5csv2BnmzJkTWwAAo0vuAmC0vfDCCxdddNGXdhi16UceeSS2AABGl9wFwGhbsGDBxTvDQw89FFsAAKNL7gJgtM2ZM+eyyy679NJLR/nx/vvvjy0AgNEldwEw2mbNmvXlL3/5K1/5yig/3nXXXbEFADC65C4ARtuDDz741a9+9fLLLx/lx9tuuy22AABGl9wFwGj76U9/emXhiiuuaEwkozB90003xRYAwOiSuwAYbT/84Q+vuuqqr33ta6P8+O1vfzu2AABGl9wFwGj7zne+c/VOsnHjxtgIABhFchcAo+q11167pvCNb3yjMZGM2vTSpUtjOwBgFMldAIyqlHy+tfM8+eSTsR0AMIqGl7sAYITmzJlz7bXXfuc739kpj7/4xS9iOwBgxOKUVCG6KshdAIyqn/3sZ9ftPG4lD0AXReQqRFcFuQuAUfWDH/zgu9/97tSpU3fW4+bNm2NTAGBkInIVoquC3AXA6Fm5cuUNN9xw44037sTHRYsWxdYAwMhE5CpEVwW5C4DR89hjj33ve9+76aabduKjj3gB0C0RuQrRVUHuAmD0/PjHP/7+znbrrbdu3bo1NggARiAiVyG6KshdAIyS559//gc/+MEtO+zEaXeTB6ArInIVoquC3AXAKLnrrrt+2BvuuOMOp7wAGLmIXIXoqiB3ATAaFixYcHsvefzxx2PLAKBTEbkK0VVB7gKgdps2bbrzzjv/rpfccccd69ati+0DgI5E5CpEVwW5C4B69ff3P/TQQz/+8Y9T9EqPDb0w/cADD2zbti22EgCGLyJXIboqyF0A1Gv27Nk/+clPfvrTn6bHht6ZnjlzZoqFsaEAMEwRuQrRVWF4uSsWWYguAKg2b968adOm3XXXXT37+Nhjj/X19cXmAkA95C4AarFt27bZs2fffffd99xzT48/zpw5c8uWLbHdAFADuQuA7lu9evUvf/nLe++992c/+9mYePz5z3++fPny2HoA6Da5C4BuWr9+/RNPPHH//fffd9996bFhrEzPnj37lVdeiT0BgO6RuwDogo0bNy5btmzu3LkPPPDAgw8+OKYfH3vssSVLlmzYsCH2DQBGTO4CoEPr1q1L+eSpp56aPn36L3ZFv/rVr+bNm/fiiy++8sor7jgPwEjIXQAMQ19f38qVK59++umUSR5++OGHdhgP03Pnzk05c9OmTXEsAKBtchcA7Vq0aFGKWzzxxBMbN26MgwIAbZC7ABja5s2b586dO2PGjJkzZ3pMj7NmzXIHDgDaJ3cBMIR169Y99thjj9DipZdeimMEAFlyFwA527Zt+/Wvfx0545FHZs2aFVOmC856AdAOuQuAnOeff74RMBjU448/3tfXFwcLACoML3cBMK5s2LAh4sUIzgglu/b04sWL43gBMM7EKalCdFWQuwCotGjRokbAIOOxxx6L4wXAOBORqxBdFeQuACo98cQTKVd0dhaoYZxM+1IvgPEpIlchuirIXQAMrq+vL4IFQ1m1alUcNQDGk4hcheiqIHcBMLh169Z1cOYnpsbZ9IsvvhhHDYDxJCJXIboqyF0AAACdiMhViK4KchcAAEAnInIVoquC3AUAANCJiFyF6KogdwEAAHQiIlchuirIXQAAAJ2IyFWIrgpyFwAAQCcichWiq4LcBQAA0ImIXIXoqjC83BWLLEQXAAAAWXIXAABAveQuAACAesldAAAA9ZK7AAAA6iV3AQAA1EvuAgAAqJfcBQAAUC+5CwAAoF5yFwAAQL3kLgAAgHrJXQAAAPUaXu4CAACgIU5JFaKrgtwFAADQiYhcheiqIHcBAAB0IiJXIboqyF0AAACdiMhViK4KchcAAEAnInIVoquC3AUAANCJiFyF6KogdwEAAHQiIlchuirIXQAAAJ2IyFWIrgpyFwAAQCcichWiq4LcBQAA0ImIXIXoqiB3AQAAdCIiVyG6KshdAAAAnYjIVYiuCsPLXbHIQnQBAACQJXcBAADUS+4CAACol9wFAABQL7kLAACgXnIXAABAveQuAACAesldAAAA9ZK7AAAA6iV3AQAA1EvuAgAAqJfcBQAAUK/h5S4AAAAa4pRUIboqyF0AAACdiMhViK4KchcAAEAnInIVoquC3AUAANCJiFyF6KogdwEAAHQiIlchuirIXQAAAJ2IyFWIrgpyFwAAQCcichWiq4LcBcDOcfbZZ0/Y4bvf/W70durll19+z3ve01ja2972tqeeeipm7AyzZ89+61vfmrYk7WN0AbArishViK4KchcAO8eumrvWr19//PHHN7ZE7gLYtUXkKkRXBbkLgJ1jl8xdW7duPf/88xubkchdALu2iFyF6KogdwGwc+x6uau/v3/q1Km77bZbYzMSuQtg1xaRqxBdFeQuAHaOXSx3pdB1yy237Lnnno1taJC7AHZtEbkK0VVheLkrFlmILgDoyK6Uu7Zu3XrNNdeUz3Q1yF0ANMhdAOwcu0zuWrdu3ec+97nGqpvIXQA0yF0A7By7QO7q7+//5S9/ue+++zbW27DHHnvElNwFwA5yFwA7x1jPXYsWLfrrv/7r8rWFafqCCy745je/Gf+WuwDYQe4C4HWrV6++4447Tj755IMOOmj33XeP3DBhwv777z9x4sQbb7xx+fLlUdqG/v7+F1544corrzzssMMaS9tzzz2PPfbYu+66a9OmTY2aYeWurVu3zpgx47TTTkvb03jKPvvsk/45b968tK5UMKzclXb25ptvTvuVFtJ4StrItOOnnnrqfffd99prr0VdtfLqGvbaa6+f/OQnaWPSvkSX3AXADnIXwHi3aNGiE088sfWeEE1SwSmnnLJixYp4WrVUkyqrFpiS2JNPPpnK2sxdKcnMmjUrPStK3yitZfLkyevWrWszd61atSrVl4Nlq5Sgpk6dOpAPB1VeXdORkbsAaCV3AYxfKdK03vo874ADDsifSkoZKdVEdYX99ttvzpw57eSurVu3XnvttfmYlHz84x9P6XHI3LV48eL3v//9jZohHX/88SmkxTNbDOSuFAjTLjfOuTXIXQC0krsAxq/777+/KXTttddeRx999Lnnnnv++eenx6OOOqo1lX3sYx+ruhJv3rx5KVNFXSFFpmOOOSYtLSWQQw89dOAk2Pve975jjz22MZ0MmrtSmGn6GuIkbeHJJ5+cFpgeB64STFL0OvDAAxvTg+au9evXn3DCCY2ChrSoiRMnpkUlU6ZMeec73xkzdjjnnHNS8Ivnv1HKXSeeeOLPfvazvr6+6NpB7gKgldwFME4tX7788MMPj3xQZJVp06a1xoxNmzbdeuutKaJEXXG/vunTp8fskrVr137kIx+JouLqu5Q6UmfMLixZsuQzn/lMVJQMmrtmz5791re+NSqKmHTHHXeUtzBlnpkzZ7773e+Oih0GzV3puQMRLoXJH/3oR007m2Le/PnzjzjiiEZNktY+d+7cmN02uQuAVnIXwDh1yy23RDgoAkYKOTFjMLNmzSpHoKuuuipmlNx2220DwSZNXH/99a3ngpKUds4///xG2YDW3JXy3qRJk2L2jksTY94bLVu2rOnqwdbctXnz5pNOOilmT5iQ9j1mtFi6dOn73ve+qJsw4ZJLLokZbZO7AGgldwGMR0055OKLLy5/QqnVtm3bTj311KieMOHMM89sql+/fv3EiRNj9oQJkydPrrpCL0nFxx9/fJQWWnPX3LlzB5JeSnHTpk2LGYOZN29eylqN4qQ1d61evXogTQ16NqysnEiPOeaYdevWxYz2yF0AtJK7AMajTZs2pXQxZcqUlEb233///MmuhnKcaP2IV1rCW97ylsbcdi7Pmz59evn7hVtz11VXXRXzJkxIiS5FtZgxmBQCU3SM6sGSVfn2g2k78/v75JNPHnjggenIpONz/fXX529s2EruAqDV8HIXAONWPneV57ZzjigVpLJ4QkvuSgtPq4h5FZc1NikHv9bctWHDhuOOO64xN8nfq3CE5C6A8SNOSRWiq4LcBUBbMrmr6SrENj8Tdd5558UTWnLXSy+99K53vasxa4899njkkUdiRrUhryS85pprGnMb9t577wsuuOCJJ57IXA/ZGbkLYPyIyFWIrgpyFwA5a9as+cUvfnHaaaeVb2nYlLuazibddNNNMSMrlcUTWnLXk08+mXJRY9bb3/72BQsWxIxqGzduHLhN/KC5a/HixQcddFCjoGzPPfc89thjb7/99qVLl+Y/5NYmuQtg/IjIVYiuCnIXAGHz5s3Lli1LKevWW29NgeHwww+v+krlptxV/vRUkpYQM7JSWTyhJXeVZ6Ulp+XHjKy0zY2nVN0544EHHiinx1b77bffBRdcMG/evEHvxNgmuQtg/IjIVYiuCnIXwHi3fPnyyy+/vPVbgzPGaO5KFi1aVP6SsSp77733tddem7+ZRxW5C2D8iMhViK4KchfA+JVyxSWXXLL77rtHSqi21157lS/SG7u5K+nv70/p65xzzsmf+0qOOOKI5557Lp7WNrkLYPyIyFWIrgpyF8A4tWLFivIdBZvss88+Rx999EUXXXTfffel2JOySjlOjOncNaCvry/Fquuuu+7II4+sCp8peqUDFU9oj9wFMH5E5CpEVwW5C2A82rp16znnnBPhoNC4v9/DDz+cQs6gn27K5K40nXpiXkuIqnLXXXfFE1qeklJTyk6NWW2GqPI9Fdt8StnmzZvnzJmTjsB+++3XWMiAW265JYraI3cBjB8RuQrRVUHuAhiP5s6d+9a3vjXCwYQJn/jEJ4b8xq1M7urv7z/zzDNj3oQJKdG1c2PA8jcjN+WuFStWHHLIIY1Zu+22Wzsn0MpfCNZB7hqQMucdd9xRvqHICSecsHHjxpjdBrkLYPyIyFWIrgpyF8B4VM48Bx100OLFi2NGhaZk1ZS7kvJN4T/4wQ+uWbMmZlTInyIr3xQ+aecLwfKnyObNm3fNNdekZR544IFXX3119FZIO3vllVc2FpW0f6Fjg9wFMH5E5CpEVwW5C2Dcafqa45NOOmnz5s0xr8Lq1auPOOKIeMJguasce/bYY48HHnggZlRoOuHWlLuScno5/PDDly9fHjMqlL8WuTV3lZfWuvGtOvuAWYPcBTB+ROQqRFcFuQtg3EkpK2WtSAZtXEfX399/9dVXR3WhNbps2rTpk5/8ZMyeMOEjH/nI2rVrY16LrVu3Tp48OUoLrblr4cKF5Y9apQ3IXLvY9J3Irblr9uzZb3nLWxpzU95L/4wZFcrZ6bjjjtuwYUPMaIPcBTB+ROQqRFeF4eWuWGQhugAYg84777xIBkVKmTdvXsxo0dfXN3Xq1Kbb/Q0aRWbOnFn+WNRZZ5016GmltMDrr79+t912i7pCa+5KKeuyyy6L2RMmpCXfeeedg0avdevWffzjH4+6QmvuWr9+/cSJE2P2hAnvf//7ly1bFvNaLF269H3ve1+UTphw1VVXxYz2yF0AtJK7AMaje+65p5x83v3ud8+aNasp1aSANGfOnEG/ZXjQS++2bt16/vnnR0UhPXfRokUxu7B27doURZpCV9Kau5IUjVJAiooJE1L2u+SSS8rfZZw2eP78+eULIBtac1cybdq08noPO+ywFBSb7tyYFpiOQzoaUTRhwgEHHNC0C0OSuwBoJXcBjEcp/7QGqv333//kk09O2SmZOHFi09cKH3rooQOfyDrkkEMG/VarFIrK98NIUtRJT0zx49xzz818TdaguSuZN29e043d99xzz2OPPTZt4ZQpU975zndG7xsNmrs2bdo0adKkqNhhn332SRvc2OU0kf4ZMwpp46dOnTroSbYMuQuAVnIXwDiVkskBBxwQ+SArhaWvfvWr5avv9t577yeffDIW9EarVq06/vjjG2UZadWZ+8iXPfLII63fqdXqU5/61Kc//enG9KC5K2lz2xrSXl977bVbt26NJ7dN7gKgldwFMH698MILg15GOGC33XY78cQTGxfaNd2NI5OUNm3aNHXq1KbTZWUf/ehHU4or3zMws7RkxYoVp5xySuvViQ2NWJhWmkJOo6cqdyWp7Morryx/Dm1QRxxxROuFl22SuwBoJXcBjGuND3GlePCe97xn4CLAffbZZ+LEiTfeeGPT3dtvueWWRkGSv2NhkuamJRx99NEDAWz//fc/7bTT0uoan6pqP3clKQKl+HfBBRcMbGd6POyww9Lvo4GNbCd3Nbz22mv33XffqaeeetBBBw3sddrOD3zgA5deeumzzz7b9LmvYZG7AGgldwEAANRL7gIAAKiX3AUAAFAvuQsAAKBechcAAEC95C4AAIB6DS93AQAA0BCnpArRVUHuAgAA6ERErkJ0VZC7AAAAOhGRqxBdFeQuAACATkTkKkRXBbkLAACgExG5CtFVQe4CAADoRESuQnRVkLsAAAA6EZGrEF0V5C4AAIBOROQqRFcFuQsAAKATEbkK0VVB7gIAAOhERK5CdFWQuwAAADoRkasQXRXkLgAAgE5E5CpEV4Xh5a5YZCG6AAAAyJK7AAAA6iV3AQAA1EvuAgAAqJfcBQAAUC+5CwAAoF5yFwAAQL3kLgAAgHrJXQAAAPWSuwAAAOoldwEAANRL7gIAAKjX8HIXAAAADXFKqhBdFeQuAACATkTkKkRXBbkLAACgExG5CtFVQe4CAADoRESuQnRVkLsAAAA6EZGrEF0V5C4AAIBOROQqRFcFuQsAAKATEbkK0VVB7gIAAOhERK5CdFWQuwAAADoRkasQXRXkLgAAgE5E5CpEVwW5CwAAoBMRuQrRVUHuAgAA6ERErkJ0VRhe7opFFqILAACALLkLAACgXnIXAABAveQuAACAesldAAAA9ZK7AAAA6iV3AQAA1EvuAgAAqJfcBQAAUC+5CwAAoF5yFwAAQL3kLgAAgHoNL3cBAADQEKekCtFVQe4CAADoRESuQnRVkLsAAAA6EZGrEF0V5C4AAIBOROQqRFcFuQsAAKATEbkK0VVB7gIAAOhERK5CdFWQuwAAADoRkasQXRXkLgAAgE5E5CpEVwW5CwAAoBMRuQrRVUHuAgAA6ERErkJ0VZC7AAAAOhGRqxBdFeQuAACATkTkKkRXheHlrlhkIboAAADIkrsAAADq1XnuahVFWVGaFaVZUZoVpVlRmhWlWVGaFaVZUZoVpVlRmhWlWVGaFaVZUZoVpVlRmhWlWVGaFaVZUZoVpVlRmhWlWVGaFaVZUZoVpVlRmhWlWVGaFaVZUZoVpVlRmhWlWVGaFaVZUZoVpVlRmhWlWVGaFaVZUZoVpVlRmhWlWVGaFaVZUZoVpVlRmhWlWVGaFaVZUZoVpVlRmhWlWVGaFaVZUZoVpVlRmhWlWVGaFaVZUZoVpVlRmhWlWVGaFaVZUZoVpVlRmhWlWVGaFaVZUZoVpVlRmhWlWVGaFaVZUZoVpVlRmhWlWVGaFaUdkbuGFqVZUZoVpVlRmhWlWVGaFaVZUZoVpVlRmhWlWVGaFaVZUZoVpVlRmhWlWVGaFaVZUZoVpVlRmhWlWVGaFaVZUZoVpVlRmhWlWVGaFaVZUZoVpVlRmhWlWVGaFaVZUZoVpVlRmhWlWVGaFaVZUZoVpVlRmhWlWVGaFaVZUZoVpVlRmhWlWVGaFaVZUZoVpVlRmhWlWVGaFaVZUZoVpVlRmhWlWVGaFaVZUZoVpVlRmhWlWVGaFaVZUZoVpVlRmhWlWVGaFaVZUZoVpVlRmhWlWVGaFaVZUZoVpR2Ru4YWpVlRmhWlWVGaFaVZUZoVpVlRmhWlWVGaFaVZUZoVpVlRmhWlWVGaFaVZUZoVpVlRmhWlWVGaFaVZUZoVpVlRmhWlWVGaFaVZUZoVpVlRmhWlWVGaFaVZUZoVpVlRmhWlWVGaFaVZUZoVpVlRmhWlWVGaFaVZUZoVpVlRmhWlWVGaFaVZUZoVpVlRmhWlWVGaFaVZUZoVpVlRmhWlWVGaFaVZUZoVpVlRmhWlWVGaFaVZUZoVpVlRmhWlWVGaFaVZUZoVpVlRmhWlWVGaFaVZUZoVpVlRmhWlHZG7hhalWVGaFaVZUZoVpVlRmhWlWVGaFaVZUZoVpVlRmhWlWVGaFaVZUZoVpVlRmhWlWVGaFaVZUZoVpVlRmhWlWVGaFaVZUZoVpVlRmhWlWVGaFaVZUZoVpVlRmhWlWVGaFaVZUZoVpVlRmhWlWVGaFaVZUZoVpVlRmhWlWVGaFaVZUZoVpVlRmhWlWVGaFaVZUZoVpVlRmhWlWVGaFaVZUZoVpVlRmhWlWVGaFaVZUZoVpVlRmhWlWVGaFaVZUZoVpVlRmhWlWVGaFaVZUZoVpVlRmhWlWVGaFaUdGV7uAgAAYLjkLgAAgHrJXQAAAPWSuwAAAOoldwEAANRL7gIAAKiX3AUAAFAvuQsAAKBechcAAEC95C4AAIB6yV0AAAD1krsAAADqJXcBAADUS+4CAACol9wFAABQL7kLAACgXnIXAABAveQuAACAOm3f/v8HtJw+xHNleOIAAAAASUVORK5CYII=;" parent="1" vertex="1">
                    <mxGeometry x="223.56" y="135" width="92.88" height="150" as="geometry"/>
                </mxCell>
                <mxCell id="74" value="" style="shape=image;verticalLabelPosition=bottom;verticalAlign=top;imageAspect=0;aspect=fixed;image=data:image/svg+xml,PHN2ZyB4bWxucz0iaHR0cDovL3d3dy53My5vcmcvMjAwMC9zdmciIHZpZXdCb3g9IjAgMCA0OCA0OSI+PHBhdGggZD0iTTQ4IC41ODNIMHY0OGg0OHYtNDh6IiBmaWxsPSIjZmZmIi8+PHBhdGggZD0iTTAgNDguNTg0aDQ4di00OEgwdjQ4eiIvPjxwYXRoIGQ9Ik0wIDQ4LjU4NGg0OHYtNDhIMHY0OHoiIGZpbGw9IiMwMDc4RDQiLz48cGF0aCBkPSJNMzguNjg4IDI3LjIzOGgtLjA4NWE3Ljk1IDcuOTUgMCAwMC41NTYtMi45MTVjMC00LjI5LTMuMzkzLTcuNzctNy41NzgtNy43Ny0uODg0IDAtMS43MzQuMTYtMi41MjYuNDU1LTIuMDgtMi42NDYtNS4yNy00LjM0LTguODQtNC4zNC02LjI3MyAwLTExLjM2NyA1LjIxNi0xMS4zNjcgMTEuNjU1IDAgMS4wMS4xMzUgMS45ODguMzggMi45MjQtMi4zMDguMDU5LTQuMTYgMS45OC00LjE2IDQuMzU2IDAgMi40MSAxLjkxMSA0LjM3NCA0LjI2IDQuMzc0aDI5LjM2YzIuMzU3IDAgNC4yNi0xLjk1NSA0LjI2LTQuMzc0IDAtMi40MS0xLjkwMy00LjM2NS00LjI2LTQuMzY1eiIgZmlsbD0iIzUwRTZGRiIvPjwvc3ZnPg==;labelBackgroundColor=none;fontColor=#000000;strokeColor=#000000;strokeWidth=2;fillColor=none;" parent="1" vertex="1">
                    <mxGeometry x="40" y="185.5" width="48" height="49" as="geometry"/>
                </mxCell>
                <mxCell id="81" value="&lt;div style=&quot;text-align: left&quot;&gt;&lt;span&gt;&lt;u&gt;&lt;b&gt;vnet-app-01:&lt;/b&gt;&lt;/u&gt;&lt;/span&gt;&lt;/div&gt;&lt;div style=&quot;text-align: left&quot;&gt;&lt;span&gt;- Peerings&lt;/span&gt;&lt;/div&gt;&lt;div style=&quot;text-align: left&quot;&gt;&lt;span&gt;&lt;span style=&quot;white-space: pre&quot;&gt; &lt;/span&gt;vnet-shared-01&lt;br&gt;&lt;/span&gt;&lt;/div&gt;&lt;div style=&quot;text-align: left&quot;&gt;&lt;span&gt;- dns_servers:&amp;nbsp;&lt;/span&gt;&lt;/div&gt;&lt;div style=&quot;text-align: left&quot;&gt;&lt;span&gt;&lt;span style=&quot;white-space: pre&quot;&gt; &lt;/span&gt;10.1.2.4&lt;/span&gt;&lt;/div&gt;&lt;div style=&quot;text-align: left&quot;&gt;&lt;span&gt;&lt;span style=&quot;white-space: pre&quot;&gt; &lt;/span&gt;1&lt;/span&gt;&lt;span&gt;68.63.129.16&lt;/span&gt;&lt;/div&gt;&lt;div style=&quot;text-align: left&quot;&gt;&lt;span&gt;&lt;br&gt;&lt;/span&gt;&lt;/div&gt;&lt;div style=&quot;text-align: left&quot;&gt;&lt;div&gt;&lt;u&gt;&lt;b&gt;mssqlwin1:&lt;/b&gt;&lt;/u&gt;&lt;/div&gt;&lt;span style=&quot;text-align: center&quot;&gt;- Packages:&amp;nbsp;&lt;/span&gt;&lt;/div&gt;&lt;div style=&quot;text-align: left&quot;&gt;&lt;span style=&quot;text-align: center&quot;&gt;&lt;span style=&quot;white-space: pre&quot;&gt; &lt;/span&gt;SQL Server 2019&lt;/span&gt;&lt;/div&gt;&lt;div style=&quot;text-align: left&quot;&gt;&lt;div&gt;&lt;br&gt;&lt;/div&gt;&lt;/div&gt;" style="text;html=1;resizable=0;autosize=1;align=center;verticalAlign=middle;points=[];rounded=0;fontColor=#000000;" parent="1" vertex="1">
                    <mxGeometry x="810" y="40" width="130" height="160" as="geometry"/>
                </mxCell>
                <mxCell id="14" value="&lt;span&gt;vnet-app-01 (10.2.0.0/16)&lt;/span&gt;" style="rounded=0;whiteSpace=wrap;html=1;dashed=1;fontColor=#000000;fillColor=none;align=left;strokeColor=#0000FF;labelPosition=center;verticalLabelPosition=top;verticalAlign=bottom;" parent="1" vertex="1">
                    <mxGeometry x="370" y="120" width="250" height="500" as="geometry"/>
                </mxCell>
                <mxCell id="60" value="snet-db-01 (10.2.0.0/24)" style="rounded=0;whiteSpace=wrap;html=1;dashed=1;fontColor=#000000;fillColor=none;align=left;strokeColor=#999999;labelPosition=center;verticalLabelPosition=top;verticalAlign=bottom;" parent="1" vertex="1">
                    <mxGeometry x="410" y="150" width="170" height="120" as="geometry"/>
                </mxCell>
                <mxCell id="16" value="snet-privatelink-01 (10.2.2.0/24)" style="rounded=0;whiteSpace=wrap;html=1;dashed=1;fontColor=#000000;fillColor=none;align=left;strokeColor=#999999;labelPosition=center;verticalLabelPosition=top;verticalAlign=bottom;" parent="1" vertex="1">
                    <mxGeometry x="410" y="470" width="170" height="120" as="geometry"/>
                </mxCell>
                <mxCell id="17" value="snet-app-01 (10.2.1.0/24)" style="rounded=0;whiteSpace=wrap;html=1;dashed=1;fontColor=#000000;fillColor=none;align=left;strokeColor=#999999;labelPosition=center;verticalLabelPosition=top;verticalAlign=bottom;" parent="1" vertex="1">
                    <mxGeometry x="410" y="310" width="170" height="120" as="geometry"/>
                </mxCell>
                <mxCell id="22" value="mssqlwin1" style="shape=image;verticalLabelPosition=bottom;verticalAlign=top;imageAspect=0;aspect=fixed;image=data:image/svg+xml,PHN2ZyB4bWxucz0iaHR0cDovL3d3dy53My5vcmcvMjAwMC9zdmciIGRhdGEtbmFtZT0iZmx1ZW50X2ljb25zIiB2aWV3Qm94PSIwIDAgMTggMTgiPjxkZWZzPjxsaW5lYXJHcmFkaWVudCBpZD0iYSIgeDE9IjguODgiIHkxPSIxMi4yMSIgeDI9IjguODgiIHkyPSIuMjEiIGdyYWRpZW50VW5pdHM9InVzZXJTcGFjZU9uVXNlIj48c3RvcCBvZmZzZXQ9IjAiIHN0b3AtY29sb3I9IiMwMDc4ZDQiLz48c3RvcCBvZmZzZXQ9Ii44MiIgc3RvcC1jb2xvcj0iIzVlYTBlZiIvPjwvbGluZWFyR3JhZGllbnQ+PGxpbmVhckdyYWRpZW50IGlkPSJiIiB4MT0iOC44OCIgeTE9IjE2Ljg0IiB4Mj0iOC44OCIgeTI9IjEyLjIxIiBncmFkaWVudFVuaXRzPSJ1c2VyU3BhY2VPblVzZSI+PHN0b3Agb2Zmc2V0PSIuMTUiIHN0b3AtY29sb3I9IiNjY2MiLz48c3RvcCBvZmZzZXQ9IjEiIHN0b3AtY29sb3I9IiM3MDcwNzAiLz48L2xpbmVhckdyYWRpZW50PjwvZGVmcz48cmVjdCB4PSItLjEyIiB5PSIuMjEiIHdpZHRoPSIxOCIgaGVpZ2h0PSIxMiIgcng9Ii42IiBmaWxsPSJ1cmwoI2EpIi8+PHBhdGggZmlsbD0iIzUwZTZmZiIgZD0iTTExLjg4IDQuNDZ2My40OWwtMyAxLjc2di0zLjVsMy0xLjc1eiIvPjxwYXRoIGZpbGw9IiNjM2YxZmYiIGQ9Ik0xMS44OCA0LjQ2bC0zIDEuNzYtMy0xLjc2IDMtMS43NSAzIDEuNzV6Ii8+PHBhdGggZmlsbD0iIzljZWJmZiIgZD0iTTguODggNi4yMnYzLjQ5bC0zLTEuNzZWNC40NmwzIDEuNzZ6Ii8+PHBhdGggZmlsbD0iI2MzZjFmZiIgZD0iTTUuODggNy45NWwzLTEuNzR2My41bC0zLTEuNzZ6Ii8+PHBhdGggZmlsbD0iIzljZWJmZiIgZD0iTTExLjg4IDcuOTVsLTMtMS43NHYzLjVsMy0xLjc2eiIvPjxwYXRoIGQ9Ik0xMi40OSAxNS44NGMtMS43OC0uMjgtMS44NS0xLjU2LTEuODUtMy42M0g3LjExYzAgMi4wNy0uMDYgMy4zNS0xLjg0IDMuNjNhMSAxIDAgMDAtLjg5IDFoOWExIDEgMCAwMC0uODktMXoiIGZpbGw9InVybCgjYikiLz48L3N2Zz4=;dashed=1;fontColor=#000000;strokeColor=#999999;fillColor=none;labelPosition=center;align=center;" parent="1" vertex="1">
                    <mxGeometry x="470" y="185" width="50" height="50" as="geometry"/>
                </mxCell>
                <mxCell id="73" value="" style="shape=image;verticalLabelPosition=bottom;verticalAlign=top;imageAspect=0;aspect=fixed;image=data:image/svg+xml,PHN2ZyB4bWxucz0iaHR0cDovL3d3dy53My5vcmcvMjAwMC9zdmciIHZpZXdCb3g9IjAgMCAxOCAxOCI+PGRlZnM+PGxpbmVhckdyYWRpZW50IGlkPSJhIiB4MT0iOS44OCIgeTE9IjguNTkiIHgyPSIxMS41MiIgeTI9IjEwLjIzIiBncmFkaWVudFRyYW5zZm9ybT0icm90YXRlKC0uMDggLTI4NS40NjQgLTE0NTQuMDgpIiBncmFkaWVudFVuaXRzPSJ1c2VyU3BhY2VPblVzZSI+PHN0b3Agb2Zmc2V0PSIwIiBzdG9wLWNvbG9yPSIjODZkNjMzIi8+PHN0b3Agb2Zmc2V0PSIxIiBzdG9wLWNvbG9yPSIjNWU5NjI0Ii8+PC9saW5lYXJHcmFkaWVudD48bGluZWFyR3JhZGllbnQgaWQ9ImIiIHgxPSI2LjE4IiB5MT0iOC41OSIgeDI9IjcuODEiIHkyPSIxMC4yMyIgZ3JhZGllbnRVbml0cz0idXNlclNwYWNlT25Vc2UiPjxzdG9wIG9mZnNldD0iMCIgc3RvcC1jb2xvcj0iIzg2ZDYzMyIvPjxzdG9wIG9mZnNldD0iMSIgc3RvcC1jb2xvcj0iIzVlOTYyNCIvPjwvbGluZWFyR3JhZGllbnQ+PGxpbmVhckdyYWRpZW50IGlkPSJjIiB4MT0iMi40OCIgeTE9IjguNTkiIHgyPSI0LjExIiB5Mj0iMTAuMjMiIGdyYWRpZW50VW5pdHM9InVzZXJTcGFjZU9uVXNlIj48c3RvcCBvZmZzZXQ9IjAiIHN0b3AtY29sb3I9IiM4NmQ2MzMiLz48c3RvcCBvZmZzZXQ9IjEiIHN0b3AtY29sb3I9IiM1ZTk2MjQiLz48L2xpbmVhckdyYWRpZW50PjwvZGVmcz48Y2lyY2xlIGN4PSIxMi43NCIgY3k9IjguOTkiIHI9IjEuMTYiIGZpbGw9InVybCgjYSkiLz48Y2lyY2xlIGN4PSI5LjA0IiBjeT0iOSIgcj0iMS4xNiIgZmlsbD0idXJsKCNiKSIvPjxjaXJjbGUgY3g9IjUuMzQiIGN5PSI5IiByPSIxLjE2IiBmaWxsPSJ1cmwoI2MpIi8+PHBhdGggZD0iTTYuMTgyIDEzLjYzOGwtLjY2NC42NjVhLjMuMyAwIDAxLS40MjQgMEwuMTggOS40MDRhLjYuNiAwIDAxLS4wMDEtLjg0OGwuNjYzLS42NjYgNS4zNCA1LjMyNGEuMy4zIDAgMDEwIC40MjV6IiBmaWxsPSIjNTBlNmZmIi8+PHBhdGggZD0iTTUuNDE4IDMuNzA4bC42NjYuNjY0YS4zLjMgMCAwMTAgLjQyNEwuODM4IDEwLjA1N2wtLjY2Ni0uNjYzYS42LjYgMCAwMS0uMDAxLS44NDlMNC45OTQgMy43MWEuMy4zIDAgMDEuNDI0IDB6IiBmaWxsPSIjMTQ5MGRmIi8+PHBhdGggZD0iTTE3LjE1NyA3Ljg4bC42NjMuNjY2YS42LjYgMCAwMTAgLjg0OGwtNC45MTUgNC45YS4zLjMgMCAwMS0uNDI0IDBsLS42NjQtLjY2NmEuMy4zIDAgMDEwLS40MjRsNS4zNC01LjMyNHoiIGZpbGw9IiM1MGU2ZmYiLz48cGF0aCBkPSJNMTcuODE4IDkuMzg3bC0uNjY1LjY2NC01LjI0Ny01LjI2MWEuMy4zIDAgMDEwLS40MjVsLjY3NC0uNjdhLjMuMyAwIDAxLjQyNCAwbDQuODIzIDQuODM2YS42LjYgMCAwMS0uMDAyLjg0OXoiIGZpbGw9IiMxNDkwZGYiLz48L3N2Zz4=;fontColor=#000000;strokeColor=#999999;strokeWidth=2;fillColor=none;imageBackground=#ffffff;" parent="1" vertex="1">
                    <mxGeometry x="600" y="610" width="18" height="18" as="geometry"/>
                </mxCell>
                <mxCell id="123" value="" style="shape=image;verticalLabelPosition=bottom;verticalAlign=top;imageAspect=0;aspect=fixed;image=data:image/svg+xml,PHN2ZyB4bWxucz0iaHR0cDovL3d3dy53My5vcmcvMjAwMC9zdmciIHZpZXdCb3g9IjAgMCAxOCAxOCI+PGRlZnM+PGxpbmVhckdyYWRpZW50IGlkPSJhIiB4MT0iLjUiIHkxPSIxMC4wNCIgeDI9IjEzLjE4IiB5Mj0iMTAuMDQiIGdyYWRpZW50VW5pdHM9InVzZXJTcGFjZU9uVXNlIj48c3RvcCBvZmZzZXQ9IjAiIHN0b3AtY29sb3I9IiMwMDViYTEiLz48c3RvcCBvZmZzZXQ9Ii4wNyIgc3RvcC1jb2xvcj0iIzAwNjBhOSIvPjxzdG9wIG9mZnNldD0iLjM2IiBzdG9wLWNvbG9yPSIjMDA3MWM4Ii8+PHN0b3Agb2Zmc2V0PSIuNTIiIHN0b3AtY29sb3I9IiMwMDc4ZDQiLz48c3RvcCBvZmZzZXQ9Ii42NCIgc3RvcC1jb2xvcj0iIzAwNzRjZCIvPjxzdG9wIG9mZnNldD0iLjgyIiBzdG9wLWNvbG9yPSIjMDA2YWJiIi8+PHN0b3Agb2Zmc2V0PSIxIiBzdG9wLWNvbG9yPSIjMDA1YmExIi8+PC9saW5lYXJHcmFkaWVudD48L2RlZnM+PHBhdGggZD0iTTYuODQgNS4wOWMtMy41IDAtNi4zNC0xLTYuMzQtMi4zVjE1YzAgMS4yNiAyLjc5IDIuMjggNi4yNSAyLjNoLjA5YzMuNSAwIDYuMzQtMSA2LjM0LTIuM1YyLjc5YzAgMS4yNy0yLjg0IDIuMy02LjM0IDIuM3oiIGZpbGw9InVybCgjYSkiLz48cGF0aCBkPSJNMTMuMTggMi43OWMwIDEuMjctMi44NCAyLjMtNi4zNCAyLjNTLjUgNC4wNi41IDIuNzkgMy4zNC40OSA2Ljg0LjQ5czYuMzQgMSA2LjM0IDIuMyIgZmlsbD0iI2U4ZThlOCIvPjxwYXRoIGQ9Ik0xMS43IDIuNmMwIC44MS0yLjE4IDEuNDYtNC44NiAxLjQ2UzIgMy40MSAyIDIuNnMyLjE2LTEuNDYgNC44NC0xLjQ2IDQuODYuNjYgNC44NiAxLjQ2IiBmaWxsPSIjNTBlNmZmIi8+PHBhdGggZD0iTTYuODQgMi45NEExMiAxMiAwIDAwMyAzLjQ5YTExLjI1IDExLjI1IDAgMDAzLjg1LjU3IDExLjI1IDExLjI1IDAgMDAzLjg1LS41NyAxMiAxMiAwIDAwLTMuODYtLjU1eiIgZmlsbD0iIzE5OGFiMyIvPjxwYXRoIGQ9Ik0xMC43NCAxMS4xVjcuNzJoLS45M3Y0LjE0aDIuNDZ2LS43NnpNMy41OSA5LjQzYTEuOTIgMS45MiAwIDAxLS41MS0uMzFBLjQ0LjQ0IDAgMDEzIDguOGEuMzguMzggMCAwMS4xNi0uMzEuNzIuNzIgMCAwMS40Mi0uMTEgMS42NyAxLjY3IDAgMDExIC4yOXYtLjg2YTIuNjcgMi42NyAwIDAwLTEtLjE2IDEuNzQgMS43NCAwIDAwLTEuMi4zNSAxLjEzIDEuMTMgMCAwMC0uNDEuOWMwIC41MS4zMi45MSAxIDEuMjFhMi45IDIuOSAwIDAxLjYxLjM2LjQuNCAwIDAxLjE2LjMyLjM4LjM4IDAgMDEtLjE2LjMxLjc1Ljc1IDAgMDEtLjQ1LjEyQTEuNiAxLjYgMCAwMTIgMTAuNzd2LjkzYTIuMjkgMi4yOSAwIDAwMS4wNy4yMyAyIDIgMCAwMDEuMTgtLjMyIDEuMSAxLjEgMCAwMC40My0uOTIgMSAxIDAgMDAtLjI1LS43IDIuNDIgMi40MiAwIDAwLS44NC0uNTZ6TTguNzkgMTFhMi40IDIuNCAwIDAwLjMzLTEuMjcgMi4zMiAyLjMyIDAgMDAtLjI1LTEuMSAxLjgxIDEuODEgMCAwMC0uNy0uNzUgMiAyIDAgMDAtMS0uMjYgMi4xOCAyLjE4IDAgMDAtMS4wOS4yNyAxLjg3IDEuODcgMCAwMC0uNzMuNzcgMi40MSAyLjQxIDAgMDAtLjI2IDEuMTUgMi4yNiAyLjI2IDAgMDAuMjQgMS4wNSAxLjgzIDEuODMgMCAwMC42OC43NSAyIDIgMCAwMDEgLjI5bC44NSAxaDEuMTlsLTEuMi0xLjExYTEuODEgMS44MSAwIDAwLjk0LS43OXptLS45My0uMjZhMSAxIDAgMDEtMS41MyAwIDEuNTEgMS41MSAwIDAxLS4yOC0xIDEuNDggMS40OCAwIDAxLjI5LTEgLjkyLjkyIDAgMDEuNzgtLjM3Ljg5Ljg5IDAgMDEuNzUuMzcgMS42MiAxLjYyIDAgMDEuMjcgMSAxLjQ2IDEuNDYgMCAwMS0uMjggMS4wM3oiIGZpbGw9IiNmMmYyZjIiLz48cGF0aCBkPSJNMTQuODEgMTcuNDlsLjI0LS43OS40Ny0uMjcuODEuMzYuNTItLjUzdi0uMDZsLS4zNy0uNzEuMjItLjUuODEtLjI5aC4wOXYtLjczaC0uMWwtLjgtLjI0LS4yNi0uNDYuMzUtLjgyLS41My0uNTFoLS4wNmwtLjcxLjM2TDE1IDEybC0uMzItLjg5aC0uNzR2LjExbC0uMjQuNzktLjUxLjIyLS44Ny0uNC0uNTEuNTMuMDUuMS4zOC43NC0uMi41MS0uOTQuMjl2Ljc0aC4xMWwuNzkuMjQuMjIuNTEtLjM5Ljg2LjUzLjUyLjA5LS4wNS43NC0uMzguNTEuMi4zNC44OWguNzN6bS0xLjItMi4zNmExLjA2IDEuMDYgMCAxMTEuNDktMS41MiAxLjA2IDEuMDYgMCAwMS0xLjQ5IDEuNTJ6IiBmaWxsPSIjOTQ5NDk0Ii8+PC9zdmc+;labelBackgroundColor=#FFFFFF;fontColor=#000000;" parent="1" vertex="1">
                    <mxGeometry x="312" y="580" width="18" height="18" as="geometry"/>
                </mxCell>
                <mxCell id="127" value="testdb" style="shape=image;verticalLabelPosition=bottom;verticalAlign=top;imageAspect=0;aspect=fixed;image=data:image/svg+xml,PHN2ZyB4bWxucz0iaHR0cDovL3d3dy53My5vcmcvMjAwMC9zdmciIHZpZXdCb3g9IjAgMCAxOCAxOCI+PGRlZnM+PHJhZGlhbEdyYWRpZW50IGlkPSJiIiBjeD0iOS4zNiIgY3k9IjEwLjU3IiByPSI3LjA3IiBncmFkaWVudFVuaXRzPSJ1c2VyU3BhY2VPblVzZSI+PHN0b3Agb2Zmc2V0PSIwIiBzdG9wLWNvbG9yPSIjZjJmMmYyIi8+PHN0b3Agb2Zmc2V0PSIuNTgiIHN0b3AtY29sb3I9IiNlZWUiLz48c3RvcCBvZmZzZXQ9IjEiIHN0b3AtY29sb3I9IiNlNmU2ZTYiLz48L3JhZGlhbEdyYWRpZW50PjxsaW5lYXJHcmFkaWVudCBpZD0iYSIgeDE9IjIuNTkiIHkxPSIxMC4xNiIgeDI9IjE1LjQxIiB5Mj0iMTAuMTYiIGdyYWRpZW50VW5pdHM9InVzZXJTcGFjZU9uVXNlIj48c3RvcCBvZmZzZXQ9IjAiIHN0b3AtY29sb3I9IiMwMDViYTEiLz48c3RvcCBvZmZzZXQ9Ii4wNyIgc3RvcC1jb2xvcj0iIzAwNjBhOSIvPjxzdG9wIG9mZnNldD0iLjM2IiBzdG9wLWNvbG9yPSIjMDA3MWM4Ii8+PHN0b3Agb2Zmc2V0PSIuNTIiIHN0b3AtY29sb3I9IiMwMDc4ZDQiLz48c3RvcCBvZmZzZXQ9Ii42NCIgc3RvcC1jb2xvcj0iIzAwNzRjZCIvPjxzdG9wIG9mZnNldD0iLjgyIiBzdG9wLWNvbG9yPSIjMDA2YWJiIi8+PHN0b3Agb2Zmc2V0PSIxIiBzdG9wLWNvbG9yPSIjMDA1YmExIi8+PC9saW5lYXJHcmFkaWVudD48L2RlZnM+PHBhdGggZD0iTTkgNS4xNGMtMy41NCAwLTYuNDEtMS02LjQxLTIuMzJ2MTIuMzZjMCAxLjI3IDIuODIgMi4zIDYuMzIgMi4zMkg5YzMuNTQgMCA2LjQxLTEgNi40MS0yLjMyVjIuODJjMCAxLjI5LTIuODcgMi4zMi02LjQxIDIuMzJ6IiBmaWxsPSJ1cmwoI2EpIi8+PHBhdGggZD0iTTE1LjQxIDIuODJjMCAxLjI5LTIuODcgMi4zMi02LjQxIDIuMzJzLTYuNDEtMS02LjQxLTIuMzJTNS40Ni41IDkgLjVzNi40MSAxIDYuNDEgMi4zMiIgZmlsbD0iI2U4ZThlOCIvPjxwYXRoIGQ9Ik0xMy45MiAyLjYzYzAgLjgyLTIuMjEgMS40OC00LjkyIDEuNDhzLTQuOTItLjY2LTQuOTItMS40OFM2LjI5IDEuMTYgOSAxLjE2czQuOTIuNjYgNC45MiAxLjQ3IiBmaWxsPSIjNTBlNmZmIi8+PHBhdGggZD0iTTkgM2ExMS41NSAxMS41NSAwIDAwLTMuODkuNTdBMTEuNDIgMTEuNDIgMCAwMDkgNC4xMWExMS4xNSAxMS4xNSAwIDAwMy44OS0uNThBMTEuODQgMTEuODQgMCAwMDkgM3oiIGZpbGw9IiMxOThhYjMiLz48cGF0aCBkPSJNMTIuOSAxMS40VjhIMTJ2NC4xM2gyLjQ2di0uNzN6TTUuNzYgOS43M2ExLjgzIDEuODMgMCAwMS0uNTEtLjMxLjQ0LjQ0IDAgMDEtLjEyLS4zMi4zNC4zNCAwIDAxLjE1LS4zLjY4LjY4IDAgMDEuNDItLjEyIDEuNjIgMS42MiAwIDAxMSAuMjl2LS44NmEyLjU4IDIuNTggMCAwMC0xLS4xNiAxLjY0IDEuNjQgMCAwMC0xLjA5LjM0IDEuMDggMS4wOCAwIDAwLS40Mi44OWMwIC41MS4zMi45MSAxIDEuMjFhMi44OCAyLjg4IDAgMDEuNjIuMzYuNDIuNDIgMCAwMS4xNS4zMi4zOC4zOCAwIDAxLS4xNi4zMS44MS44MSAwIDAxLS40NS4xMSAxLjY2IDEuNjYgMCAwMS0xLjA5LS40MlYxMmEyLjE3IDIuMTcgMCAwMDEuMDcuMjQgMS44OCAxLjg4IDAgMDAxLjE4LS4zMyAxLjA4IDEuMDggMCAwMC4zMy0uOTEgMS4wNSAxLjA1IDAgMDAtLjI1LS43IDIuNDIgMi40MiAwIDAwLS44My0uNTd6TTExIDExLjMyYTIuMzQgMi4zNCAwIDAwLjMzLTEuMjZBMi4zMiAyLjMyIDAgMDAxMSA5YTEuODEgMS44MSAwIDAwLS43LS43NSAyIDIgMCAwMC0xLS4yNiAyLjExIDIuMTEgMCAwMC0xLjA4LjI3IDEuODYgMS44NiAwIDAwLS43My43NCAyLjQ2IDIuNDYgMCAwMC0uMjYgMS4xNCAyLjI2IDIuMjYgMCAwMC4yNCAxIDEuNzYgMS43NiAwIDAwLjY5Ljc0IDIuMDYgMi4wNiAwIDAwMSAuM2wuODYgMWgxLjIxTDEwIDEyLjA4YTEuNzkgMS43OSAwIDAwMS0uNzZ6bS0xLS4yNWEuOTQuOTQgMCAwMS0uNzYuMzUuOTIuOTIgMCAwMS0uNzYtLjM2IDEuNTIgMS41MiAwIDAxLS4yOS0xIDEuNTMgMS41MyAwIDAxLjI5LTEgMSAxIDAgMDEuNzgtLjM3Ljg3Ljg3IDAgMDEuNzUuMzcgMS42MiAxLjYyIDAgMDEuMjcgMSAxLjQ2IDEuNDYgMCAwMS0uMjggMS4wMXoiIGZpbGw9InVybCgjYikiLz48L3N2Zz4=;labelBackgroundColor=#FFFFFF;fontColor=#000000;" parent="1" vertex="1">
                    <mxGeometry x="250" y="510" width="40" height="40" as="geometry"/>
                </mxCell>
                <mxCell id="ELwy-iJFH6Sv0OvzXci1-129" value="pend-mssql-xxxxxxxxxx" style="aspect=fixed;html=1;points=[];align=center;image;fontSize=12;image=img/lib/azure2/networking/Private_Endpoint.svg;fontColor=#000000;labelBackgroundColor=none;" parent="1" vertex="1">
                    <mxGeometry x="459" y="497" width="72" height="66" as="geometry"/>
                </mxCell>
            </root>
        </mxGraphModel>
    </diagram>
</mxfile>